<?xml version="1.0" encoding="UTF-8" standalone="no"?>
<!-- Created with Inkscape (http://www.inkscape.org/) -->

<svg
   xmlns:dc="http://purl.org/dc/elements/1.1/"
   xmlns:cc="http://creativecommons.org/ns#"
   xmlns:rdf="http://www.w3.org/1999/02/22-rdf-syntax-ns#"
   xmlns:svg="http://www.w3.org/2000/svg"
   xmlns="http://www.w3.org/2000/svg"
   xmlns:sodipodi="http://sodipodi.sourceforge.net/DTD/sodipodi-0.dtd"
   xmlns:inkscape="http://www.inkscape.org/namespaces/inkscape"
   width="87.115799mm"
   height="94.034172mm"
   viewBox="0 0 87.115799 94.034172"
   version="1.1"
   id="svg8"
   inkscape:version="0.92.5 (0.92.5+68)"
   sodipodi:docname="anki-chinese.svg">
  <defs
     id="defs2" />
  <sodipodi:namedview
     id="base"
     pagecolor="#ffffff"
     bordercolor="#666666"
     borderopacity="1.0"
     inkscape:pageopacity="0.0"
     inkscape:pageshadow="2"
     inkscape:zoom="1.979899"
     inkscape:cx="263.58809"
     inkscape:cy="153.9862"
     inkscape:document-units="mm"
     inkscape:current-layer="layer1"
     showgrid="false"
     inkscape:window-width="2560"
     inkscape:window-height="1378"
     inkscape:window-x="0"
     inkscape:window-y="0"
     inkscape:window-maximized="1"
     fit-margin-top="0"
     fit-margin-left="0"
     fit-margin-right="0"
     fit-margin-bottom="0" />
  <metadata
     id="metadata5">
    <rdf:RDF>
      <cc:Work
         rdf:about="">
        <dc:format>image/svg+xml</dc:format>
        <dc:type
           rdf:resource="http://purl.org/dc/dcmitype/StillImage" />
        <dc:title></dc:title>
      </cc:Work>
    </rdf:RDF>
  </metadata>
  <g
     inkscape:label="Layer 1"
     inkscape:groupmode="layer"
     id="layer1"
     transform="translate(-52.135338,-41.882859)">
    <rect
       style="opacity:1;fill:#8dbfae;fill-opacity:1;stroke:#e7f1ee;stroke-width:3.78768873;stroke-linecap:butt;stroke-linejoin:round;stroke-miterlimit:4;stroke-dasharray:none;stroke-opacity:1"
       id="rect4520"
       width="52.076942"
       height="58.167484"
       x="54.029182"
       y="43.776703"
       rx="7.8176336"
       ry="7.8176336" />
    <g
       aria-label="bèi"
       style="font-style:normal;font-variant:normal;font-weight:bold;font-stretch:normal;font-size:22.66698074px;line-height:1.25;font-family:'Ubuntu Condensed';-inkscape-font-specification:'Ubuntu Condensed, Bold';letter-spacing:0px;word-spacing:0px;fill:#ffffff;fill-opacity:1;stroke:none;stroke-width:0.56667447"
       id="text4610">
      <path
         d="m 75.366995,70.673609 q 0,2.877644 -1.228532,4.493552 -1.228533,1.60484 -3.431037,1.60484 -1.947944,0 -3.110069,-1.494161 l -0.143883,1.272804 H 64.57583 V 59.550408 h 3.198612 V 65.6488 q 1.106787,-1.29494 2.910848,-1.29494 2.191437,0 3.431037,1.615908 1.250668,1.60484 1.250668,4.526756 z m -3.198612,-0.232425 q 0,-1.815129 -0.575528,-2.645219 -0.575529,-0.841157 -1.715519,-0.841157 -1.527365,0 -2.102894,1.250668 v 4.725977 q 0.586597,1.261736 2.12503,1.261736 1.5495,0 2.036486,-1.527365 0.232425,-0.730478 0.232425,-2.22464 z"
         style="font-style:normal;font-variant:normal;font-weight:bold;font-stretch:normal;font-family:Roboto;-inkscape-font-specification:'Roboto Bold';fill:#ffffff;fill-opacity:1;stroke-width:0.56667447"
         id="path4621"
         inkscape:connector-curvature="0" />
      <path
         d="m 82.837802,76.772001 q -2.634151,0 -4.29433,-1.615908 -1.649112,-1.615907 -1.649112,-4.305398 v -0.3099 q 0,-1.804061 0.697275,-3.220748 0.697276,-1.427754 1.97008,-2.191436 1.283872,-0.774751 2.921915,-0.774751 2.457066,0 3.862684,1.549501 1.416686,1.549501 1.416686,4.393941 v 1.306008 h -7.625756 q 0.15495,1.173193 0.9297,1.881536 0.785818,0.708343 1.981147,0.708343 1.848333,0 2.888712,-1.339211 l 1.571637,1.75979 q -0.719412,1.018243 -1.947944,1.593772 -1.228533,0.564461 -2.722694,0.564461 z m -0.36524,-9.828261 q -0.951836,0 -1.5495,0.641936 -0.586597,0.641936 -0.752615,1.837265 h 4.449281 V 69.16838 Q 84.597592,68.105865 84.044199,67.530337 83.490806,66.94374 82.472562,66.94374 Z m 1.239601,-3.962295 H 81.08908 l -3.05473,-3.431037 h 3.486376 z"
         style="font-style:normal;font-variant:normal;font-weight:bold;font-stretch:normal;font-family:Roboto;-inkscape-font-specification:'Roboto Bold';fill:#ffffff;fill-opacity:1;stroke-width:0.56667447"
         id="path4623"
         inkscape:connector-curvature="0" />
      <path
         d="m 92.964895,76.550644 h -3.20968 V 64.575218 h 3.20968 z M 89.567061,61.476216 q 0,-0.719411 0.475918,-1.184261 0.486986,-0.46485 1.317076,-0.46485 0.819022,0 1.306008,0.46485 0.486985,0.46485 0.486985,1.184261 0,0.730479 -0.498053,1.195329 -0.486986,0.464851 -1.29494,0.464851 -0.807954,0 -1.306008,-0.464851 -0.486986,-0.46485 -0.486986,-1.195329 z"
         style="font-style:normal;font-variant:normal;font-weight:bold;font-stretch:normal;font-family:Roboto;-inkscape-font-specification:'Roboto Bold';fill:#ffffff;fill-opacity:1;stroke-width:0.56667447"
         id="path4625"
         inkscape:connector-curvature="0" />
    </g>
    <rect
       style="opacity:1;fill:#8dbfae;fill-opacity:1;stroke:#e7f1ee;stroke-width:3.87861419;stroke-linecap:butt;stroke-linejoin:round;stroke-miterlimit:4;stroke-dasharray:none;stroke-opacity:1"
       id="rect4520-6"
       width="51.986019"
       height="61.100368"
       x="85.325813"
       y="72.877357"
       rx="7.8176341"
       ry="7.8176341" />
    <g
       aria-label="背"
       style="font-style:normal;font-variant:normal;font-weight:bold;font-stretch:normal;font-size:35.47148514px;line-height:1.25;font-family:'Ubuntu Condensed';-inkscape-font-specification:'Ubuntu Condensed, Bold';letter-spacing:0px;word-spacing:0px;fill:#000000;fill-opacity:1;stroke:none;stroke-width:0.88678718"
       id="text4606">
      <path
         d="m 106.50571,100.80329 h 4.2211 V 87.075823 h -4.2211 v 2.660361 h -8.122975 v 3.263377 h 8.122975 v 2.234703 c -3.3698,0.496601 -6.597701,0.95773 -8.974291,1.206031 l 0.567544,3.476205 c 2.447537,-0.425658 5.427137,-0.886787 8.406747,-1.454331 z m -0.35472,10.5705 v -1.95093 h 14.47237 v 1.95093 z m 14.47237,-6.70411 v 1.84452 h -14.47237 v -1.84452 z m 4.32752,-3.05055 h -23.09194 v 18.58706 h 4.29205 v -5.92374 h 14.47237 v 1.63169 c 0,0.4966 -0.21283,0.63849 -0.85132,0.67396 -0.4966,0 -2.80225,0 -4.50488,-0.10642 0.53207,1.06415 1.13509,2.58942 1.31245,3.68904 2.87319,0 4.93053,0 6.38486,-0.60302 1.48981,-0.56754 1.98641,-1.56074 1.98641,-3.61809 z m -4.64677,-4.611291 c -1.31244,0 -1.56074,-0.177358 -1.56074,-1.276974 v -1.702631 c 3.15696,-0.673958 6.70411,-1.596217 9.54183,-2.62489 l -2.73131,-3.015076 c -1.77357,0.780372 -4.29205,1.667159 -6.81052,2.376589 v -3.689034 h -4.29205 v 8.655042 c 0,3.653563 1.02867,4.824125 5.24978,4.824125 h 4.96601 c 3.15696,0 4.29205,-1.099619 4.7177,-4.824125 -1.13508,-0.2483 -2.83772,-0.815844 -3.68903,-1.418859 -0.14189,2.270175 -0.39019,2.695833 -1.45433,2.695833 z"
         style="fill:#ffffff;fill-opacity:1;stroke-width:0.88678718"
         id="path4618"
         inkscape:connector-curvature="0" />
    </g>
    <rect
       style="opacity:1;fill:#ffffff;fill-opacity:1;stroke:none;stroke-width:1.9484086;stroke-linecap:round;stroke-linejoin:round;stroke-miterlimit:4;stroke-dasharray:none;stroke-opacity:1"
       id="rect4656"
       width="21.792686"
       height="3.9215031"
       x="61.726482"
       y="85.079239"
       rx="0"
       ry="0" />
  </g>
</svg>
