<svg xmlns="http://www.w3.org/2000/svg" viewBox="0 0 180 180" fill="#a00"><g transform="matrix(.196286 .210513 -.210491 .196306 106.730969 -70.483289)"><circle cx="-424" cy="369" r="313" fill="#ff9c9c" transform="rotate(270)"/><path fill="#e31212" d="M369 111a313 313 0 0 1 271 157 313 313 0 0 1-272 468"/><path fill="#760a0a" d="M682 424a313 313 0 0 1-157 270 313 313 0 0 1-313 0A313 313 0 0 1 57 423"/><path fill="#e41212" d="M369 736A313 313 0 0 1 57 423l312 1z"/><circle cx="369" cy="424" r="286" fill="#fff"/></g><g transform="matrix(.28781 0 0 .28784 -33 228)"><path d="M409-684l-18-55-87 24-48 63-21 68-32 81-3 130 22 43 13 10 24 35 38 27 7 18 46 23 15-25h20l44-73v-370zm40 0l18-55 87 24 48 63 21 68 32 81 3 130-22 43-13 10-24 35-39 27-6 18-46 23-15-25h-20l-44-73v-370z"/><rect width="33" height="371" x="412" y="-686" ry="12"/></g><path d="M49.853 66.288l7.88 32.63h.18l7.97-32.63h11.2v44.44H68.54v-12.9l.725-17.276-.18-.03-8.393 30.217h-5.706l-8.303-29.973-.18.03.755 17.032v12.9h-8.544v-44.44zM92.15 103.8h16.062v6.93H83.547V66.3h8.605zm48.157-37.512v30.248q0 7.112-4.136 10.988-4.106 3.846-10.778 3.846-6.672 0-10.8-3.876-4.106-3.876-4.106-10.958V66.288h8.574v30.248q0 4.06 1.66 5.982 1.66 1.923 4.68 1.923 3.1 0 4.74-1.83 1.63-1.83 1.63-6.074v-30.25z" fill="#fffdfd"/></svg>