<?xml version="1.0" standalone="no"?>
<!DOCTYPE svg PUBLIC "-//W3C//DTD SVG 20010904//EN"
 "http://www.w3.org/TR/2001/REC-SVG-20010904/DTD/svg10.dtd">
<svg version="1.0" xmlns="http://www.w3.org/2000/svg"
 width="625.000000pt" height="625.000000pt" viewBox="0 0 625.000000 625.000000"
 preserveAspectRatio="xMidYMid meet">
<metadata>
Created by potrace 1.11, written by Peter Selinger 2001-2013
</metadata>
<g transform="translate(0.000000,625.000000) scale(0.100000,-0.100000)"
fill="#000000" stroke="none">
<path d="M2918 6245 c-2 -1 -34 -5 -73 -9 -228 -19 -461 -66 -671 -135 -99
-33 -243 -85 -271 -99 -10 -5 -72 -35 -138 -66 -829 -397 -1439 -1142 -1670
-2041 -71 -279 -95 -492 -91 -815 6 -362 43 -594 148 -920 356 -1107 1317
-1932 2466 -2120 187 -30 195 -31 447 -36 257 -5 417 7 628 46 1202 223 2166
1127 2462 2310 71 283 90 442 90 765 0 248 -5 325 -36 510 -89 539 -325 1061
-668 1475 -93 112 -270 290 -397 400 -76 67 -325 250 -338 250 -3 0 -24 13
-48 29 -81 54 -278 156 -420 217 -139 59 -387 140 -488 158 -14 2 -32 7 -40
10 -8 3 -32 8 -54 11 -21 3 -41 7 -45 10 -4 2 -30 7 -57 10 -27 4 -56 8 -64
10 -8 2 -40 7 -70 10 -30 3 -71 8 -90 11 -38 5 -506 14 -512 9z"/>
</g>
</svg>
