<svg xmlns="http://www.w3.org/2000/svg" width="1160" height="1160" viewBox="0 0 306.917 306.917"><path fill="#0e121a" d="M0 0h306.917v306.917H0z"/><path d="M49.625 64.458H79.29v29.667H49.626zM79.29 94.125h29.668v29.667H79.29z" fill="#478285"/><path d="M108.959 64.458h29.666v29.667h-29.667z" fill="#99c7c9"/><path d="M108.959 94.125h29.666v29.667h-29.667zm29.666 29.667h29.667v29.667h-29.667zm-29.667 0h29.667v29.667h-29.667z" fill="#325c5f"/><path d="M168.291 94.125h29.667v29.667h-29.667z" fill="#99c7c9"/><path d="M168.291 153.458h29.667v29.667h-29.667z" fill="#478285"/><path d="M138.625 153.458h29.667v29.667h-29.667z" fill="#325c5f"/><path d="M168.291 123.792h29.667v29.667h-29.667zm-59.333 59.333h29.667v29.667h-29.667z" fill="#478285"/><path d="M197.958 183.125h29.667v29.667h-29.667z" fill="#325c5f"/><path d="M138.625 212.792h29.667v29.667h-29.667z" fill="#28494c"/><path d="M197.958 153.458h29.667v29.667h-29.667z" fill="#478285"/><path d="M227.625 123.792h29.667v29.667h-29.666z" fill="#99c7c9"/><path d="M138.625 183.125h29.667v29.667h-29.667z" fill="#478285"/></svg>