<svg xmlns="http://www.w3.org/2000/svg" viewBox="0 0 87.1 94"><g transform="translate(-52.1 -41.9)"><rect width="52.1" height="58.2" x="54" y="43.8" fill="#8dbfae" stroke="#e7f1ee" stroke-linejoin="round" stroke-width="3.8" rx="7.8" ry="7.8"/><g style="line-height:1.25;-inkscape-font-specification:'Ubuntu Condensed, Bold'"><path style="-inkscape-font-specification:'Roboto Bold'" d="M75.4 70.7q0 2.8-1.3 4.5-1.2 1.6-3.4 1.6-2 0-3.1-1.5l-.1 1.2h-3v-17h3.3v6.1q1-1.3 2.9-1.3 2.2 0 3.4 1.7 1.3 1.6 1.3 4.5zm-3.2-.3q0-1.8-.6-2.6t-1.7-.8q-1.5 0-2.1 1.2V73q.6 1.3 2.1 1.3 1.6 0 2-1.5.3-.8.3-2.3zm10.6 6.4q-2.6 0-4.3-1.6-1.6-1.7-1.6-4.3v-.4q0-1.8.7-3.2.7-1.4 2-2.2 1.3-.7 2.9-.7 2.4 0 3.9 1.5 1.4 1.6 1.4 4.4v1.3H80q.2 1.2 1 1.9t2 .7q1.8 0 2.8-1.4l1.6 1.8q-.7 1-2 1.6-1.2.6-2.7.6zm-.3-9.9q-1 0-1.6.7-.6.6-.7 1.8h4.4v-.2q0-1-.6-1.7-.5-.6-1.5-.6zm1.2-4h-2.6l-3-3.4h3.4zM93 76.6h-3.2v-12H93zm-3.4-15q0-.7.4-1.2.5-.5 1.4-.5.8 0 1.3.5t.5 1.2q0 .7-.5 1.2-.5.4-1.3.4t-1.3-.4q-.5-.5-.5-1.2z" fill="#fff" aria-label="bèi" font-family="Roboto" font-size="22.7" font-weight="700" letter-spacing="0" word-spacing="0"/></g><rect width="52" height="61.1" x="85.3" y="72.9" fill="#8dbfae" stroke="#e7f1ee" stroke-linejoin="round" stroke-width="3.9" rx="7.8" ry="7.8"/><path fill="#fff" d="M106.5 100.8h4.2V87.1h-4.2v2.6h-8.1V93h8.1v2.2c-3.4.5-6.6 1-9 1.2l.6 3.5 8.4-1.4zm-.3 10.6v-2h14.4v2zm14.4-6.7v1.8h-14.4v-1.8zm4.4-3h-23.1v18.5h4.2v-6h14.5v1.7c0 .5-.2.6-.8.7l-4.5-.1a14.8 14.8 0 011.3 3.7c2.9 0 5 0 6.4-.6 1.5-.6 2-1.6 2-3.6zm-4.7-4.7c-1.3 0-1.6-.2-1.6-1.3V94a78 78 0 009.6-2.6l-2.8-3a55.3 55.3 0 01-6.8 2.3v-3.6h-4.3v8.6c0 3.7 1 4.8 5.3 4.8h5c3.1 0 4.3-1 4.7-4.8a12.1 12.1 0 01-3.7-1.4c-.2 2.3-.4 2.7-1.5 2.7z" aria-label="背" font-family="Ubuntu Condensed" font-size="35.5" font-weight="700" letter-spacing="0" word-spacing="0"/><path d="M59.2 84.2l.8-.2h1.5q.3.1.5.4l.6-.3q.3-.2.7-.2.4 0 .7.2.3 0 .6.3l.3.8.1 1v3.4h-.9v-3.2q0-.9-.2-1.3-.2-.3-.7-.3h-.4l-.4.2.1.6v4h-.8v-3.2q0-.9-.2-1.3-.2-.3-.7-.3H60v4.8h-.9zm8 3l.1.7q0 .3.2.5l.4.4q.2.2.6.2l.6-.1.3-.2.2.7-.4.2-.8.2q-.6 0-1-.2l-.6-.6-.4-1v-1q0-1.6.4-2.3.5-.7 1.4-.7.9 0 1.3.7.4.8.4 2v.5zm1-2.5q-.5 0-.7.5l-.3 1.2H69l-.1-1.2q-.2-.5-.6-.5zm3-.5l.8-.2h1.5q.3.1.5.4l.6-.3q.3-.2.7-.2.4 0 .7.2.3 0 .6.3l.3.8.1 1v3.4h-.9v-3.2q0-.9-.2-1.3-.2-.3-.7-.3h-.4l-.4.2.1.6v4h-.8v-3.2q0-.9-.2-1.3-.2-.3-.7-.3H72v4.8h-.9zm11 2.6L82 88l-.4 1q-.2.4-.6.6-.4.2-.9.2t-.8-.2l-.7-.6-.3-1-.1-1.2.1-1.1.3-1q.3-.4.7-.6.3-.2.8-.2t.9.2l.6.6.4 1v1.1zm-1 0V86q0-.4-.2-.7l-.3-.4q-.2-.2-.5-.2l-.4.2q-.2.1-.3.4l-.2.7v1.8l.2.6q0 .2.3.4l.4.1.5-.1.3-.4.2-.7v-.9z" fill="#fff" aria-label="memo" font-family="Ubuntu Condensed" font-size="10.6" font-weight="700" letter-spacing="0" word-spacing="0"/></g></svg>