<svg xmlns="http://www.w3.org/2000/svg" viewBox="0 0 87.12 94.03">
  <defs/>
  <g transform="translate(-52.14 -41.88)">
    <rect width="52.08" height="58.17" x="54.03" y="43.78" fill="#8dbfae" stroke="#e7f1ee" stroke-linejoin="round" stroke-width="3.79" rx="7.82" ry="7.82"/>
    <g fill="#fff" stroke-width=".57" style="line-height:1.25;-inkscape-font-specification:'Ubuntu Condensed, Bold'" aria-label="bèi" font-family="Roboto" font-size="22.67" font-weight="700" letter-spacing="0" word-spacing="0">
      <path style="-inkscape-font-specification:'Roboto Bold'" d="M75.37 70.67q0 2.88-1.23 4.5-1.23 1.6-3.43 1.6-1.95 0-3.11-1.5l-.15 1.28h-2.87v-17h3.2v6.1q1.1-1.3 2.9-1.3 2.2 0 3.44 1.62 1.25 1.6 1.25 4.53zm-3.2-.23q0-1.81-.58-2.64-.57-.85-1.71-.85-1.53 0-2.1 1.26v4.72q.58 1.26 2.12 1.26 1.55 0 2.04-1.52.23-.73.23-2.23zM82.84 76.77q-2.64 0-4.3-1.61-1.65-1.62-1.65-4.3v-.32q0-1.8.7-3.22.7-1.43 1.97-2.2 1.29-.77 2.92-.77 2.46 0 3.87 1.55 1.41 1.55 1.41 4.4v1.3h-7.62q.15 1.18.93 1.88.78.71 1.98.71 1.85 0 2.89-1.34l1.57 1.76q-.72 1.02-1.95 1.6-1.23.56-2.72.56zm-.37-9.83q-.95 0-1.55.65-.58.64-.75 1.83h4.45v-.25q-.02-1.06-.58-1.64-.55-.59-1.57-.59zm1.24-3.96H81.1l-3.06-3.43h3.5zM92.96 76.55h-3.2V64.58h3.2zm-3.4-15.07q0-.72.48-1.19.49-.46 1.32-.46.82 0 1.3.46.5.47.5 1.19 0 .73-.5 1.2-.5.46-1.3.46t-1.3-.47q-.5-.46-.5-1.2z"/>
    </g>
    <rect width="51.99" height="61.1" x="85.33" y="72.88" fill="#8dbfae" stroke="#e7f1ee" stroke-linejoin="round" stroke-width="3.88" rx="7.82" ry="7.82"/>
    <path fill="#fff" stroke-width=".89" d="M106.5 100.8h4.23V87.08h-4.22v2.66h-8.13V93h8.13v2.23c-3.37.5-6.6.96-8.98 1.21l.57 3.48c2.45-.43 5.43-.89 8.4-1.46zm-.35 10.57v-1.95h14.47v1.95zm14.47-6.7v1.84h-14.47v-1.84zm4.33-3.05h-23.1v18.59h4.3v-5.93h14.47v1.63c0 .5-.2.64-.85.68-.5 0-2.8 0-4.5-.1a14.83 14.83 0 011.31 3.68c2.87 0 4.93 0 6.38-.6 1.5-.57 2-1.56 2-3.62zM120.3 97c-1.3 0-1.56-.18-1.56-1.28v-1.7c3.16-.68 6.7-1.6 9.55-2.63l-2.74-3.01a55.3 55.3 0 01-6.8 2.37v-3.68h-4.3v8.65c0 3.65 1.03 4.82 5.25 4.82h4.97c3.15 0 4.29-1.1 4.71-4.82a12.1 12.1 0 01-3.68-1.42c-.15 2.27-.4 2.7-1.46 2.7z" aria-label="背" font-family="Ubuntu Condensed" font-size="35.47" font-weight="700" letter-spacing="0" word-spacing="0"/>
    <g fill="#fff" stroke-width=".26" style="line-height:1.25;-inkscape-font-specification:'Ubuntu Condensed, Bold'" aria-label="memo" font-family="Ubuntu Condensed" font-size="10.58" font-weight="700" letter-spacing="0" word-spacing="0">
      <path d="M59.24 84.23q.37-.12.8-.2.44-.08.8-.08.37 0 .66.1.31.1.54.32.28-.18.6-.3.31-.12.7-.12.37 0 .68.12.32.1.54.37.22.27.35.72.13.44.13 1.11v3.36h-.91v-3.28q0-.83-.2-1.21-.18-.38-.71-.38-.2 0-.42.07-.2.08-.38.2.09.25.13.55.04.31.04.7v3.35h-.9v-3.28q0-.83-.2-1.21-.19-.38-.72-.38-.27 0-.62.1v4.77h-.91zM67.24 87.12q.01.4.08.74.06.33.2.58.15.24.38.38.24.14.61.14.3 0 .56-.09.27-.09.38-.15l.17.73q-.13.1-.46.2-.32.11-.76.11-.59 0-.99-.2-.39-.22-.64-.6t-.35-.91q-.11-.53-.11-1.16 0-1.54.5-2.25.52-.7 1.35-.7.94 0 1.34.7.39.71.39 2v.23l-.01.25zm.92-2.41q-.45 0-.66.45-.2.46-.25 1.22h1.69q0-.78-.16-1.22-.16-.45-.62-.45zM71.23 84.23q.37-.12.8-.2.44-.08.8-.08.37 0 .66.1.3.1.54.32.28-.18.6-.3.31-.12.7-.12.37 0 .68.12.32.1.54.37.22.27.35.72.13.44.13 1.11v3.36h-.91v-3.28q0-.83-.2-1.21-.18-.38-.71-.38-.2 0-.42.07-.2.08-.38.2.09.25.13.55.04.31.04.7v3.35h-.9v-3.28q0-.83-.2-1.21-.19-.38-.72-.38-.27 0-.62.1v4.77h-.91zM82.17 86.85q0 .66-.11 1.2-.12.53-.36.91t-.6.6q-.37.2-.86.2-.5 0-.87-.2-.37-.22-.62-.6-.23-.38-.34-.91-.12-.54-.12-1.2 0-.64.12-1.18.11-.54.34-.92.25-.4.62-.6.37-.22.87-.22t.85.21q.37.22.6.6.25.39.37.93.11.54.11 1.18zm-.95 0q0-.46-.05-.84-.06-.4-.17-.67-.12-.29-.3-.43-.2-.16-.46-.16-.28 0-.47.16-.18.14-.3.43-.12.28-.18.67-.05.38-.05.84 0 .47.05.86.06.38.17.66.13.27.31.43.2.15.47.15.26 0 .45-.15.2-.16.3-.43.12-.28.18-.66.05-.4.05-.86z"/>
    </g>
  </g>
</svg>
