<svg xmlns="http://www.w3.org/2000/svg" viewBox="0 0 812.1 375.3"><g transform="matrix(.31201 0 0 .31201 60.6 -680.8)"><rect width="800" height="480.2" x="-1896.9" y="1335.9" ry="0" transform="matrix(1.24749 0 0 1.24749 2172 517.4)" fill="#ff7878"/><g transform="matrix(.89042 0 0 .89042 583.5 1914.4)" fill="red"><circle r="105.1" cy="677.9" cx="-718.4" fill="#83e4f5" fill-opacity=".7"/><g transform="translate(-1254.4 404.8) scale(.41711)"><circle cx="1272.6" cy="559.8" r="61.4" fill="#d35f5f"/><circle cx="1243.1" cy="546.5" r="17.4" fill="#fff"/><circle cx="1243.1" cy="546.5" r="11.4" fill="#000"/><circle cx="1303" cy="545.3" r="17.4" fill="#fff"/><circle cx="1303" cy="545.3" r="11.4" fill="#000"/><path d="M1252.5 582.5a19.6 20 0 0 0 19.5 17.9 19.6 20 0 0 0 19.6-17.9z" fill="#fff"/></g><g transform="translate(-1110.2 360.3) scale(.41711)"><rect width="152.1" height="188.1" x="850.8" y="731.6" ry="50.7" fill="#d35f5f"/><path d="M998.3 762.7a73 97 0 0 1 1.9 21 73 97 0 0 1-73.1 97 73 97 0 0 1-73-97 73 97 0 0 1 1.7-20.9c-3 6.5-4.7 13.8-4.7 21.5v86.8c0 28 22.6 50.7 50.6 50.7h50.8c28 0 50.7-22.6 50.7-50.7v-86.8c0-7.7-1.8-15-4.9-21.6z" fill="#8f2626"/></g><g transform="translate(-1110.2 360.3) scale(.41711)"><rect ry="23" y="-1036.5" x="449.7" height="126.7" width="43.3" transform="scale(1 -1) rotate(24)" fill="#d35f5f"/><path d="M790.4 649c-3 5.9-3.4 13.3-.3 20.1l32.8 73.8a22.8 22.8 0 0 0 22.8 13.8z" fill="#8f2626"/></g><g transform="matrix(-.41711 0 0 .41711 -336.3 358.9)"><rect transform="scale(1 -1) rotate(24)" width="43.3" height="126.7" x="449.7" y="-1036.5" ry="23" fill="#d35f5f"/><path d="M790.4 649c-3 5.9-3.4 13.3-.3 20.1l32.8 73.8a22.8 22.8 0 0 0 22.8 13.8z" fill="#8f2626"/></g><circle r="58" cy="641.6" cx="-686.5" fill="#fff" fill-opacity=".6"/></g><g transform="scale(.89042) rotate(51.8 -2431.2 2574.3)" fill="red"><circle cx="-602.3" cy="657.9" r="105.1" fill="#83e4f5" fill-opacity=".7"/><g transform="translate(-1138.3 384.8) scale(.41711)"><circle r="61.4" cy="559.8" cx="1272.6" fill="#d35f5f"/><circle r="17.4" cy="546.5" cx="1243.1" fill="#fff"/><circle r="11.4" cy="546.5" cx="1243.1" fill="#000"/><circle r="17.4" cy="545.3" cx="1303" fill="#fff"/><circle r="11.4" cy="545.3" cx="1303" fill="#000"/><path d="M1252.5 582.5a19.6 20 0 0 0 19.5 17.9 19.6 20 0 0 0 19.6-17.9z" fill="#fff"/></g><g transform="translate(-994.1 340.3) scale(.41711)"><rect ry="50.7" y="731.6" x="850.8" height="188.1" width="152.1" fill="#d35f5f"/><path d="M998.3 762.7a73 97 0 0 1 1.9 21 73 97 0 0 1-73.1 97 73 97 0 0 1-73-97 73 97 0 0 1 1.7-20.9c-3 6.5-4.7 13.8-4.7 21.5v86.8c0 28 22.6 50.7 50.6 50.7h50.8c28 0 50.7-22.6 50.7-50.7v-86.8c0-7.7-1.8-15-4.9-21.6z" fill="#8f2626"/></g><g transform="translate(-994.1 340.3) scale(.41711)"><rect transform="scale(1 -1) rotate(24)" width="43.3" height="126.7" x="449.7" y="-1036.5" ry="23" fill="#d35f5f"/><path d="M790.4 649c-3 5.9-3.4 13.3-.3 20.1l32.8 73.8a22.8 22.8 0 0 0 22.8 13.8z" fill="#8f2626"/></g><g transform="matrix(-.41711 0 0 .41711 -220.2 338.9)"><rect ry="23" y="-1036.5" x="449.7" height="126.7" width="43.3" transform="scale(1 -1) rotate(24)" fill="#d35f5f"/><path d="M790.4 649c-3 5.9-3.4 13.3-.3 20.1l32.8 73.8a22.8 22.8 0 0 0 22.8 13.8z" fill="#8f2626"/></g><circle cx="-570.4" cy="621.6" r="58" fill="#fff" fill-opacity=".6"/></g><g transform="matrix(-.75435 .47308 -.47308 -.75435 287 3299)" fill="red"><circle r="105.1" cy="657.9" cx="-602.3" fill="#83e4f5" fill-opacity=".7"/><g transform="translate(-1138.3 384.8) scale(.41711)"><circle cx="1272.6" cy="559.8" r="61.4" fill="#d35f5f"/><circle cx="1243.1" cy="546.5" r="17.4" fill="#fff"/><circle cx="1243.1" cy="546.5" r="11.4" fill="#000"/><circle cx="1303" cy="545.3" r="17.4" fill="#fff"/><circle cx="1303" cy="545.3" r="11.4" fill="#000"/><path d="M1252.5 582.5a19.6 20 0 0 0 19.5 17.9 19.6 20 0 0 0 19.6-17.9z" fill="#fff"/></g><g transform="translate(-994.1 340.3) scale(.41711)"><rect width="152.1" height="188.1" x="850.8" y="731.6" ry="50.7" fill="#d35f5f"/><path d="M998.3 762.7a73 97 0 0 1 1.9 21 73 97 0 0 1-73.1 97 73 97 0 0 1-73-97 73 97 0 0 1 1.7-20.9c-3 6.5-4.7 13.8-4.7 21.5v86.8c0 28 22.6 50.7 50.6 50.7h50.8c28 0 50.7-22.6 50.7-50.7v-86.8c0-7.7-1.8-15-4.9-21.6z" fill="#8f2626"/></g><g transform="translate(-994.1 340.3) scale(.41711)"><rect ry="23" y="-1036.5" x="449.7" height="126.7" width="43.3" transform="scale(1 -1) rotate(24)" fill="#d35f5f"/><path d="M790.4 649c-3 5.9-3.4 13.3-.3 20.1l32.8 73.8a22.8 22.8 0 0 0 22.8 13.8z" fill="#8f2626"/></g><g transform="matrix(-.41711 0 0 .41711 -220.2 338.9)"><rect transform="scale(1 -1) rotate(24)" width="43.3" height="126.7" x="449.7" y="-1036.5" ry="23" fill="#d35f5f"/><path d="M790.4 649c-3 5.9-3.4 13.3-.3 20.1l32.8 73.8a22.8 22.8 0 0 0 22.8 13.8z" fill="#8f2626"/></g><circle r="58" cy="621.6" cx="-570.4" fill="#fff" fill-opacity=".6"/></g><g transform="scale(-.89042) rotate(73.7 1639.4 -1194.3)" fill="red"><circle r="105.1" cy="657.9" cx="-602.3" fill="#83e4f5" fill-opacity=".7"/><g transform="translate(-1138.3 384.8) scale(.41711)"><circle cx="1272.6" cy="559.8" r="61.4" fill="#d35f5f"/><circle cx="1243.1" cy="546.5" r="17.4" fill="#fff"/><circle cx="1243.1" cy="546.5" r="11.4" fill="#000"/><circle cx="1303" cy="545.3" r="17.4" fill="#fff"/><circle cx="1303" cy="545.3" r="11.4" fill="#000"/><path d="M1252.5 582.5a19.6 20 0 0 0 19.5 17.9 19.6 20 0 0 0 19.6-17.9z" fill="#fff"/></g><g transform="translate(-994.1 340.3) scale(.41711)"><rect width="152.1" height="188.1" x="850.8" y="731.6" ry="50.7" fill="#d35f5f"/><path d="M998.3 762.7a73 97 0 0 1 1.9 21 73 97 0 0 1-73.1 97 73 97 0 0 1-73-97 73 97 0 0 1 1.7-20.9c-3 6.5-4.7 13.8-4.7 21.5v86.8c0 28 22.6 50.7 50.6 50.7h50.8c28 0 50.7-22.6 50.7-50.7v-86.8c0-7.7-1.8-15-4.9-21.6z" fill="#8f2626"/></g><g transform="translate(-994.1 340.3) scale(.41711)"><rect ry="23" y="-1036.5" x="449.7" height="126.7" width="43.3" transform="scale(1 -1) rotate(24)" fill="#d35f5f"/><path d="M790.4 649c-3 5.9-3.4 13.3-.3 20.1l32.8 73.8a22.8 22.8 0 0 0 22.8 13.8z" fill="#8f2626"/></g><g transform="matrix(-.41711 0 0 .41711 -220.2 338.9)"><rect transform="scale(1 -1) rotate(24)" width="43.3" height="126.7" x="449.7" y="-1036.5" ry="23" fill="#d35f5f"/><path d="M790.4 649c-3 5.9-3.4 13.3-.3 20.1l32.8 73.8a22.8 22.8 0 0 0 22.8 13.8z" fill="#8f2626"/></g><circle r="58" cy="621.6" cx="-570.4" fill="#fff" fill-opacity=".6"/></g><g transform="matrix(.72055 0 0 .72055 1075.9 1977.5)" fill="red"><rect ry="30.1" y="457.4" x="-786.6" height="60.1" width="393" fill="#91e0f5"/><circle r="53.4" cy="487.5" cx="-770.3" fill="#fff"/><rect ry="16.6" y="470.8" x="-705.6" height="33.3" width="294.9" fill="#fff"/><circle r="36.9" cy="486" cx="-769.8" fill="#91e0f5"/><path d="M-763.6 460l-23.5 27.5 17.3.2-9.8 25.3 27-32.8-18.3.5z" fill="#fff" fill-rule="evenodd"/><rect ry="17.1" y="469.8" x="-619.5" height="34.3" width="210.6" fill="#51a8c0"/></g><rect ry="0" y="410.8" x="-2629.5" height="840.6" width="1385" transform="matrix(.71377 0 0 .71377 2671.2 2491.7)" fill="#fcbeb7"/><ellipse cx="3592" cy="2777.3" rx="148.5" ry="60.5" transform="matrix(.95841 .28538 -.66103 .75036 0 0)" fill="none" stroke="#defdff" stroke-width="6.4"/><g transform="rotate(28.7 -2973.6 6729) scale(.59029)" fill="red"><circle r="113.5" cy="2250.4" cx="-1194.4" fill="#ffd5d5"/><circle r="65.5" cy="2250.4" cx="-1194.4" fill="#fff"/></g><g transform="matrix(.3431 0 0 .3431 2397.3 2501.7)" fill="red"><ellipse cx="-1671.3" cy="1589.7" rx="223.8" ry="91.2" transform="matrix(.99781 .06609 -.47847 .8781 0 0)" fill="none" stroke="#d3fcff" stroke-width="9.6"/><g transform="matrix(.8556 .24411 -.24411 .8556 -860 -388.7)"><circle r="113.5" cy="2250.4" cx="-1194.4" fill="#ffd5d5"/><circle r="65.5" cy="2250.4" cx="-1194.4" fill="#fff"/></g></g><g transform="scale(.3431) rotate(10.1 -40603.2 36771.3)" fill="red"><ellipse cx="-1671.3" cy="1589.7" rx="223.8" ry="91.2" transform="matrix(.99781 .06609 -.47847 .8781 0 0)" fill="none" stroke="#c4fbff" stroke-width="9.6"/><g transform="matrix(.8556 .24411 -.24411 .8556 -860 -388.7)"><circle r="113.5" cy="2250.4" cx="-1194.4" fill="#ffd5d5"/><circle r="65.5" cy="2250.4" cx="-1194.4" fill="#fff"/></g></g><g fill="red" fill-rule="evenodd"><g fill="#fffeff"><path d="M1458.3 3058.4l-35.5 53.4 35.5 19.2zM1458.3 3058.5l35.5 54.7-35.5 19.2z"/><path d="M1422.8 3111.4l34.9 18.4 1.6 38z"/><path d="M1493.6 3113.3l-35.7 17 1 37.6z"/><path d="M1458.8 3167.2l-16-45 15.4 7.5z"/><path d="M1458.3 3058.4l24.7 60.3-25.7 11z"/><path d="M1445 3125.7s11.7-3.3 12.9-23.8c0 0 3 23.8 11 22.8 0 0-9.6 8.2-10.6 25.1 0 0 .2-25-13.4-24.1zM1455 3088s-6.3-1.2-7-9c0 0-1.6 9-5.9 8.7 0 0 5.2 3.1 5.7 9.6 0 0 0-9.6 7.2-9.2z"/></g><path d="M1459.4 3069l-28.3 42.7 28.4 15.3z" fill="#2ad2ff"/><path d="M1459.4 3069.2l28.5 43.6-28.4 15.3z" fill="#b8f2ff"/><path d="M1431.1 3111.4l28 14.6-.1 31z" fill="#0085ac"/><path d="M1488 3113l-28.8 13-.3 31.1z" fill="#00bff3"/><path d="M1459 3157.2l-12-37.4 12.4 6.2z" fill="#00a5d3"/><path d="M1459.3 3069l20 48-19.9 9z" fill="#6ee0ff"/></g><g transform="matrix(.99702 -.1802 .1802 .99702 3229.9 1380.5)" fill="red"><ellipse transform="matrix(.99781 .06609 -.47847 .8781 0 0)" ry="91.2" rx="223.8" cy="1589.7" cx="-1671.3" fill="none" stroke="#d3fcff" stroke-width="9.6"/><g transform="matrix(.8556 .24411 -.24411 .8556 -860 -388.7)"><circle cx="-1194.4" cy="2250.4" r="113.5" fill="#ffd5d5"/><circle cx="-1194.4" cy="2250.4" r="65.5" fill="#fff"/></g></g><g fill="red" fill-rule="evenodd"><g fill="#fffeff"><path d="M1180.5 3060.7l-51.8 78 51.9 28z"/><path d="M1180.5 3060.8l52 80-52 28zM1128.7 3138.2l51 26.8 2.3 55.5z"/><path d="M1232.2 3140.9l-52.2 25 1.3 54.8z"/><path d="M1181.2 3219.7l-23.3-65.8 22.6 11z"/><path d="M1180.5 3060.6l36.2 88.2-37.6 16z"/><path d="M1161 3159s17.2-4.7 19-34.8c0 0 4.3 34.8 16 33.4 0 0-14 12-15.4 36.7 0 0 .2-36.7-19.6-35.3zM1175.8 3104s-9.3-1.7-10.2-13.2c0 0-2.4 13.3-8.7 12.7 0 0 7.6 4.6 8.4 14 0 0-.2-14 10.5-13.4z"/></g><path d="M1182.2 3076.2l-41.4 62.4 41.5 22.3z" fill="#2ad2ff"/><path d="M1182.2 3076.5l41.6 63.7-41.5 22.4z" fill="#b8f2ff"/><path d="M1140.8 3138.1l40.8 21.5v45.2z" fill="#0085ac"/><path d="M1224 3140.5l-42.2 19-.4 45.5z" fill="#00bff3"/><path d="M1181.5 3205.1l-17.3-54.7 18 9z" fill="#00a5d3"/><path d="M1182 3076.3l29.2 70-29 13.2z" fill="#6ee0ff"/></g><g transform="rotate(-86.2 1815.5 836.5) scale(.67122)" fill="red"><circle cx="-602.3" cy="657.9" r="105.1" fill="#83e4f5" fill-opacity=".7"/><g transform="translate(-1138.3 384.8) scale(.41711)"><circle r="61.4" cy="559.8" cx="1272.6" fill="#d35f5f"/><circle r="17.4" cy="546.5" cx="1243.1" fill="#fff"/><circle r="11.4" cy="546.5" cx="1243.1" fill="#000"/><circle r="17.4" cy="545.3" cx="1303" fill="#fff"/><circle r="11.4" cy="545.3" cx="1303" fill="#000"/><path d="M1252.5 582.5a19.6 20 0 0 0 19.5 17.9 19.6 20 0 0 0 19.6-17.9z" fill="#fff"/></g><g transform="translate(-994.1 340.3) scale(.41711)"><rect ry="50.7" y="731.6" x="850.8" height="188.1" width="152.1" fill="#d35f5f"/><path d="M998.3 762.7a73 97 0 0 1 1.9 21 73 97 0 0 1-73.1 97 73 97 0 0 1-73-97 73 97 0 0 1 1.7-20.9c-3 6.5-4.7 13.8-4.7 21.5v86.8c0 28 22.6 50.7 50.6 50.7h50.8c28 0 50.7-22.6 50.7-50.7v-86.8c0-7.7-1.8-15-4.9-21.6z" fill="#8f2626"/></g><g transform="translate(-994.1 340.3) scale(.41711)"><rect transform="scale(1 -1) rotate(24)" width="43.3" height="126.7" x="449.7" y="-1036.5" ry="23" fill="#d35f5f"/><path d="M790.4 649c-3 5.9-3.4 13.3-.3 20.1l32.8 73.8a22.8 22.8 0 0 0 22.8 13.8z" fill="#8f2626"/></g><g transform="matrix(-.41711 0 0 .41711 -220.2 338.9)"><rect ry="23" y="-1036.5" x="449.7" height="126.7" width="43.3" transform="scale(1 -1) rotate(24)" fill="#d35f5f"/><path d="M790.4 649c-3 5.9-3.4 13.3-.3 20.1l32.8 73.8a22.8 22.8 0 0 0 22.8 13.8z" fill="#8f2626"/></g><circle cx="-570.4" cy="621.6" r="58" fill="#fff" fill-opacity=".6"/></g><g fill="red" fill-rule="evenodd"><g fill="#fffeff"><path d="M1165.4 2919.8l-20.7 31.1 20.7 11.2zM1165.4 2919.9l20.7 31.8-20.7 11.2z"/><path d="M1144.7 2950.7l20.4 10.7.9 22.1z"/><path d="M1186 2951.8l-20.8 10 .5 21.8z"/><path d="M1165.7 2983.2l-9.3-26.2 9 4.3z"/><path d="M1165.4 2919.8l14.4 35.1-15 6.5z"/><path d="M1157.6 2959s6.9-1.9 7.6-13.9c0 0 1.7 14 6.4 13.3 0 0-5.6 4.8-6.2 14.7 0 0 .1-14.7-7.8-14zM1163.5 2937.1s-3.7-.7-4-5.3c0 0-1 5.3-3.5 5 0 0 3 1.9 3.3 5.6 0 0 0-5.5 4.2-5.3z"/></g><path d="M1166.1 2926l-16.5 24.9 16.5 8.9z" fill="#2ad2ff"/><path d="M1166 2926l16.7 25.5-16.6 9z" fill="#b8f2ff"/><path d="M1149.6 2950.7l16.3 8.5v18z" fill="#0085ac"/><path d="M1182.7 2951.6l-16.8 7.6-.1 18.1z" fill="#00bff3"/><path d="M1165.8 2977.4l-6.9-21.8 7.2 3.6z" fill="#00a5d3"/><path d="M1166 2926l11.6 28-11.5 5.2z" fill="#6ee0ff"/></g><g transform="matrix(.18257 0 0 .18257 1796.2 2632.8)" fill="red"><ellipse transform="matrix(.99781 .06609 -.47847 .8781 0 0)" ry="91.2" rx="223.8" cy="1589.7" cx="-1671.3" fill="none" stroke="#defdff" stroke-width="9.6"/><g transform="matrix(.8556 .24411 -.24411 .8556 -860 -388.7)"><circle cx="-1194.4" cy="2250.4" r="113.5" fill="#ffd5d5"/><circle cx="-1194.4" cy="2250.4" r="65.5" fill="#fff"/></g></g><g transform="rotate(-38.9 4088 -819.4) scale(.67122)" opacity=".6" fill="red"><circle cx="-602.3" cy="657.9" r="105.1" fill="#83e4f5" fill-opacity=".7"/><g transform="translate(-1138.3 384.8) scale(.41711)"><circle r="61.4" cy="559.8" cx="1272.6" fill="#d35f5f"/><circle r="17.4" cy="546.5" cx="1243.1" fill="#fff"/><circle r="11.4" cy="546.5" cx="1243.1" fill="#000"/><circle r="17.4" cy="545.3" cx="1303" fill="#fff"/><circle r="11.4" cy="545.3" cx="1303" fill="#000"/><path d="M1252.5 582.5a19.6 20 0 0 0 19.5 17.9 19.6 20 0 0 0 19.6-17.9z" fill="#fff"/></g><g transform="translate(-994.1 340.3) scale(.41711)"><rect ry="50.7" y="731.6" x="850.8" height="188.1" width="152.1" fill="#d35f5f"/><path d="M998.3 762.7a73 97 0 0 1 1.9 21 73 97 0 0 1-73.1 97 73 97 0 0 1-73-97 73 97 0 0 1 1.7-20.9c-3 6.5-4.7 13.8-4.7 21.5v86.8c0 28 22.6 50.7 50.6 50.7h50.8c28 0 50.7-22.6 50.7-50.7v-86.8c0-7.7-1.8-15-4.9-21.6z" fill="#8f2626"/></g><g transform="translate(-994.1 340.3) scale(.41711)"><rect transform="scale(1 -1) rotate(24)" width="43.3" height="126.7" x="449.7" y="-1036.5" ry="23" fill="#d35f5f"/><path d="M790.4 649c-3 5.9-3.4 13.3-.3 20.1l32.8 73.8a22.8 22.8 0 0 0 22.8 13.8z" fill="#8f2626"/></g><g transform="matrix(-.41711 0 0 .41711 -220.2 338.9)"><rect ry="23" y="-1036.5" x="449.7" height="126.7" width="43.3" transform="scale(1 -1) rotate(24)" fill="#d35f5f"/><path d="M790.4 649c-3 5.9-3.4 13.3-.3 20.1l32.8 73.8a22.8 22.8 0 0 0 22.8 13.8z" fill="#8f2626"/></g><circle cx="-570.4" cy="621.6" r="58" fill="#fff" fill-opacity=".6"/></g><g transform="rotate(-38.9 4168.8 -978.6) scale(.67122)" opacity=".3" fill="red"><circle cx="-602.3" cy="657.9" r="105.1" fill="#83e4f5" fill-opacity=".7"/><g transform="translate(-1138.3 384.8) scale(.41711)"><circle r="61.4" cy="559.8" cx="1272.6" fill="#d35f5f"/><circle r="17.4" cy="546.5" cx="1243.1" fill="#fff"/><circle r="11.4" cy="546.5" cx="1243.1" fill="#000"/><circle r="17.4" cy="545.3" cx="1303" fill="#fff"/><circle r="11.4" cy="545.3" cx="1303" fill="#000"/><path d="M1252.5 582.5a19.6 20 0 0 0 19.5 17.9 19.6 20 0 0 0 19.6-17.9z" fill="#fff"/></g><g transform="translate(-994.1 340.3) scale(.41711)"><rect ry="50.7" y="731.6" x="850.8" height="188.1" width="152.1" fill="#d35f5f"/><path d="M998.3 762.7a73 97 0 0 1 1.9 21 73 97 0 0 1-73.1 97 73 97 0 0 1-73-97 73 97 0 0 1 1.7-20.9c-3 6.5-4.7 13.8-4.7 21.5v86.8c0 28 22.6 50.7 50.6 50.7h50.8c28 0 50.7-22.6 50.7-50.7v-86.8c0-7.7-1.8-15-4.9-21.6z" fill="#8f2626"/></g><g transform="translate(-994.1 340.3) scale(.41711)"><rect transform="scale(1 -1) rotate(24)" width="43.3" height="126.7" x="449.7" y="-1036.5" ry="23" fill="#d35f5f"/><path d="M790.4 649c-3 5.9-3.4 13.3-.3 20.1l32.8 73.8a22.8 22.8 0 0 0 22.8 13.8z" fill="#8f2626"/></g><g transform="matrix(-.41711 0 0 .41711 -220.2 338.9)"><rect ry="23" y="-1036.5" x="449.7" height="126.7" width="43.3" transform="scale(1 -1) rotate(24)" fill="#d35f5f"/><path d="M790.4 649c-3 5.9-3.4 13.3-.3 20.1l32.8 73.8a22.8 22.8 0 0 0 22.8 13.8z" fill="#8f2626"/></g><circle cx="-570.4" cy="621.6" r="58" fill="#fff" fill-opacity=".6"/></g><g fill="red" fill-rule="evenodd"><g fill="#fffeff"><path d="M1640.6 2928.4l-20.7 31.1 20.7 11.2zM1640.6 2928.4l20.7 32-20.7 11z"/><path d="M1620 2959.3l20.3 10.7.9 22z"/><path d="M1661.2 2960.4l-20.8 10 .5 21.8z"/><path d="M1640.9 2991.8l-9.3-26.3 9 4.4z"/><path d="M1640.6 2928.4l14.4 35.1-15 6.4z"/><path d="M1632.8 2967.6s6.9-2 7.6-13.9c0 0 1.7 13.9 6.4 13.3 0 0-5.6 4.8-6.2 14.7 0 0 .1-14.7-7.8-14.1zM1638.7 2945.7s-3.7-.8-4-5.3c0 0-1 5.3-3.5 5 0 0 3 1.9 3.3 5.6 0 0 0-5.5 4.2-5.3z"/></g><path d="M1641.3 2934.6l-16.5 24.8 16.5 9z" fill="#2ad2ff"/><path d="M1641.3 2934.7l16.5 25.4-16.5 8.9z" fill="#b8f2ff"/><path d="M1624.8 2959.2l16.2 8.6v18z" fill="#0085ac"/><path d="M1657.9 2960.2l-16.8 7.6-.1 18.1z" fill="#00bff3"/><path d="M1641 2986l-7-21.9 7.3 3.7z" fill="#00a5d3"/><path d="M1641.2 2934.6l11.6 27.9-11.5 5.3z" fill="#6ee0ff"/></g><g fill="red" fill-rule="evenodd"><g fill="#fffeff"><path d="M910.4 3029l-38.7 58.2 38.7 21zM910.4 3029l38.8 59.8-38.8 20.9z"/><path d="M871.7 3086.8l38 20 1.8 41.5z"/><path d="M949 3088.8l-39 18.7 1 41z"/><path d="M911 3147.7l-17.5-49.1 16.9 8.1z"/><path d="M910.4 3029l27 65.8-28 12z"/><path d="M895.9 3102.4s12.8-3.6 14.1-26c0 0 3.3 26 12 25 0 0-10.5 8.8-11.6 27.4 0 0 .3-27.5-14.5-26.4zM906.9 3061.3s-7-1.3-7.7-9.8c0 0-1.7 9.8-6.4 9.4 0 0 5.6 3.4 6.2 10.5 0 0-.1-10.5 7.9-10z"/></g><path d="M911.7 3040.5l-31 46.6 31 16.7z" fill="#2ad2ff"/><path d="M911.6 3040.7l31.1 47.6-31 16.7z" fill="#b8f2ff"/><path d="M880.8 3086.8l30.4 16v33.8z" fill="#0085ac"/><path d="M942.8 3088.5l-31.4 14.3-.3 34z" fill="#00bff3"/><path d="M911.2 3136.8l-13-40.9 13.5 6.8z" fill="#00a5d3"/><path d="M911.5 3040.6l21.8 52.3-21.6 9.8z" fill="#6ee0ff"/></g><rect width="1385" height="840.6" x="-2629.5" y="410.8" ry="0" fill="#faa" transform="matrix(.71377 0 0 .71377 1682.6 2489.7)"/><g transform="rotate(12.9 -10922.8 7891.7) scale(.53323)" fill="red"><ellipse cx="-1671.3" cy="1589.7" rx="223.8" ry="91.2" transform="matrix(.99781 .06609 -.47847 .8781 0 0)" fill="none" stroke="#fff" stroke-width="9.6"/><g transform="matrix(.8556 .24411 -.24411 .8556 -860 -388.7)"><circle r="113.5" cy="2250.4" cx="-1194.4" fill="#ffd5d5"/><circle r="65.5" cy="2250.4" cx="-1194.4" fill="#fff"/></g><rect ry="8.5" transform="rotate(-12.9)" y="689.1" x="-2542.5" height="17" width="555.1" fill="#a7d3df"/></g><g transform="rotate(40.8 -3684.4 2115.7) scale(.59258)" fill="red"><circle r="105.1" cy="657.9" cx="-602.3" fill="#83e4f5" fill-opacity=".7"/><g transform="translate(-1138.3 384.8) scale(.41711)"><circle cx="1272.6" cy="559.8" r="61.4" fill="#d35f5f"/><circle cx="1243.1" cy="546.5" r="17.4" fill="#fff"/><circle cx="1243.1" cy="546.5" r="11.4" fill="#000"/><circle cx="1303" cy="545.3" r="17.4" fill="#fff"/><circle cx="1303" cy="545.3" r="11.4" fill="#000"/><path d="M1252.5 582.5a19.6 20 0 0 0 19.5 17.9 19.6 20 0 0 0 19.6-17.9z" fill="#fff"/></g><g transform="translate(-994.1 340.3) scale(.41711)"><rect width="152.1" height="188.1" x="850.8" y="731.6" ry="50.7" fill="#d35f5f"/><path d="M998.3 762.7a73 97 0 0 1 1.9 21 73 97 0 0 1-73.1 97 73 97 0 0 1-73-97 73 97 0 0 1 1.7-20.9c-3 6.5-4.7 13.8-4.7 21.5v86.8c0 28 22.6 50.7 50.6 50.7h50.8c28 0 50.7-22.6 50.7-50.7v-86.8c0-7.7-1.8-15-4.9-21.6z" fill="#8f2626"/></g><g transform="translate(-994.1 340.3) scale(.41711)"><rect ry="23" y="-1036.5" x="449.7" height="126.7" width="43.3" transform="scale(1 -1) rotate(24)" fill="#d35f5f"/><path d="M790.4 649c-3 5.9-3.4 13.3-.3 20.1l32.8 73.8a22.8 22.8 0 0 0 22.8 13.8z" fill="#8f2626"/></g><g transform="matrix(-.41711 0 0 .41711 -220.2 338.9)"><rect transform="scale(1 -1) rotate(24)" width="43.3" height="126.7" x="449.7" y="-1036.5" ry="23" fill="#d35f5f"/><path d="M790.4 649c-3 5.9-3.4 13.3-.3 20.1l32.8 73.8a22.8 22.8 0 0 0 22.8 13.8z" fill="#8f2626"/></g><circle r="58" cy="621.6" cx="-570.4" fill="#fff" fill-opacity=".6"/></g><g transform="matrix(.71553 0 0 .71553 2256 2085.6)" fill="red"><ellipse transform="matrix(.99781 .06609 -.47847 .8781 0 0)" ry="91.2" rx="223.8" cy="1589.7" cx="-1671.3" fill="none" stroke="#fff" stroke-width="9.6"/><g transform="matrix(.8556 .24411 -.24411 .8556 -860 -388.7)"><circle cx="-1194.4" cy="2250.4" r="113.5" fill="#ffd5d5"/><circle cx="-1194.4" cy="2250.4" r="65.5" fill="#fff"/></g></g><path stroke="#f3f3f3" stroke-width="10.0245" d="M650.5 2870.2l2.9 2.8-56.4 56.7-2.8-2.8zM372.2 2867.6l-2.8 2.8 56.4 56.8 2.8-2.8zM305.7 2934.4l-.9 4 78.1 17.2 1-4zM711 2925.3l.9 4-78.2 17.2-.8-4zM314.8 3039.7l-.9-4 78.2-17.2.8 3.9zM630.8 3014.4l-1 4 78.2 17.2.9-4zM402.3 3113.2l-2.8-2.9 56.3-56.7 2.9 2.8zM638.3 3113.5l2.9-2.8-56.4-56.8-2.8 2.8zM515.1 3148.8l4-.1-1.6-80h-4zM490 2896.1l3.6-1.7-33.8-72.5-3.6 1.7zM567 2813.7l3.6 1.7-33.8 72.5-3.6-1.7z" fill="#fff"/><rect width="1385" height="840.6" x="-2629.5" y="454.8" ry="0" transform="matrix(.71377 0 0 .71377 2671.2 1860.2)" fill="#ff4e4e"/><g transform="rotate(-5.5 20913.4 -11442.5) scale(.59258)" fill="red"><circle r="105.1" cy="657.9" cx="-602.3" fill="#83e4f5" fill-opacity=".7"/><g transform="translate(-1138.3 384.8) scale(.41711)"><circle cx="1272.6" cy="559.8" r="61.4" fill="#d35f5f"/><circle cx="1243.1" cy="546.5" r="17.4" fill="#fff"/><circle cx="1243.1" cy="546.5" r="11.4" fill="#000"/><circle cx="1303" cy="545.3" r="17.4" fill="#fff"/><circle cx="1303" cy="545.3" r="11.4" fill="#000"/><path d="M1252.5 582.5a19.6 20 0 0 0 19.5 17.9 19.6 20 0 0 0 19.6-17.9z" fill="#fff"/></g><g transform="translate(-994.1 340.3) scale(.41711)"><rect width="152.1" height="188.1" x="850.8" y="731.6" ry="50.7" fill="#d35f5f"/><path d="M998.3 762.7a73 97 0 0 1 1.9 21 73 97 0 0 1-73.1 97 73 97 0 0 1-73-97 73 97 0 0 1 1.7-20.9c-3 6.5-4.7 13.8-4.7 21.5v86.8c0 28 22.6 50.7 50.6 50.7h50.8c28 0 50.7-22.6 50.7-50.7v-86.8c0-7.7-1.8-15-4.9-21.6z" fill="#8f2626"/></g><g transform="translate(-994.1 340.3) scale(.41711)"><rect ry="23" y="-1036.5" x="449.7" height="126.7" width="43.3" transform="scale(1 -1) rotate(24)" fill="#d35f5f"/><path d="M790.4 649c-3 5.9-3.4 13.3-.3 20.1l32.8 73.8a22.8 22.8 0 0 0 22.8 13.8z" fill="#8f2626"/></g><g transform="matrix(-.41711 0 0 .41711 -220.2 338.9)"><rect transform="scale(1 -1) rotate(24)" width="43.3" height="126.7" x="449.7" y="-1036.5" ry="23" fill="#d35f5f"/><path d="M790.4 649c-3 5.9-3.4 13.3-.3 20.1l32.8 73.8a22.8 22.8 0 0 0 22.8 13.8z" fill="#8f2626"/></g><circle r="58" cy="621.6" cx="-570.4" fill="#fff" fill-opacity=".6"/></g><g transform="translate(2290 1781) scale(.44951)" fill="red"><ellipse cx="-1671.3" cy="1589.7" rx="223.8" ry="91.2" transform="matrix(.99781 .06609 -.47847 .8781 0 0)" fill="none" stroke="#d3fcff" stroke-width="9.6"/><g transform="matrix(.8556 .24411 -.24411 .8556 -860 -388.7)"><circle r="113.5" cy="2250.4" cx="-1194.4" fill="#ffd5d5"/><circle r="65.5" cy="2250.4" cx="-1194.4" fill="#fff"/></g></g><g transform="matrix(.71377 0 0 .71377 3256.1 1584.3)" fill="red"><ellipse cx="-1671.3" cy="1589.7" rx="223.8" ry="91.2" transform="matrix(.99781 .06609 -.47847 .8781 0 0)" fill="none" stroke="#d3fcff" stroke-width="9.6"/><g transform="matrix(.8556 .24411 -.24411 .8556 -860 -388.7)"><circle r="113.5" cy="2250.4" cx="-1194.4" fill="#ffd5d5"/><circle r="65.5" cy="2250.4" cx="-1194.4" fill="#fff"/></g></g><path d="M927.1 2432l80 97.1 188.6-168.5L1533 2492l237.1-10" fill="none" stroke="#fff" stroke-width="7" stroke-dasharray="7 7"/><g transform="matrix(.71377 0 0 .71377 2727.5 1617.2)" fill="red"><ellipse cx="-1671.3" cy="1589.7" rx="223.8" ry="91.2" transform="matrix(.99781 .06609 -.47847 .8781 0 0)" fill="none" stroke="#d3fcff" stroke-width="9.6"/><g transform="matrix(.8556 .24411 -.24411 .8556 -860 -388.7)"><circle r="113.5" cy="2250.4" cx="-1194.4" fill="#ffd5d5"/><circle r="65.5" cy="2250.4" cx="-1194.4" fill="#fff"/></g></g><g fill="red"><g fill-rule="evenodd"><g fill="#fffeff"><path d="M1145.7 2339.7l-22.6 34 22.6 12.2zM1145.7 2339.8l22.6 34.8-22.6 12.2z"/><path d="M1123.1 2373.5l22.2 11.7 1 24.1z"/><path d="M1168.2 2374.7l-22.7 10.9.6 23.8z"/><path d="M1146 2409l-10.2-28.7 9.9 4.8z"/><path d="M1145.7 2339.7l15.8 38.4-16.4 7z"/><path d="M1137.2 2382.6s7.5-2.1 8.3-15.2c0 0 1.9 15.2 7 14.5 0 0-6.1 5.2-6.8 16 0 0 .2-16-8.5-15.3zM1143.7 2358.6s-4-.8-4.5-5.7c0 0-1 5.7-3.8 5.5 0 0 3.3 2 3.7 6 0 0-.1-6 4.6-5.8z"/></g><path d="M1146.5 2346.5l-18 27.2 18 9.7z" fill="#2ad2ff"/><path d="M1146.4 2346.6l18.2 27.8-18.1 9.7z" fill="#b8f2ff"/><path d="M1128.4 2373.5l17.8 9.3v19.7z" fill="#0085ac"/><path d="M1164.6 2374.5l-18.3 8.3-.2 19.8z" fill="#00bff3"/><path d="M1146.2 2402.6l-7.6-23.8 7.9 4z" fill="#00a5d3"/><path d="M1146.4 2346.5l12.7 30.5-12.7 5.8z" fill="#6ee0ff"/></g></g><g fill="red"><g fill-rule="evenodd"><g fill="#fffeff"><path d="M1351.2 2353.9l-34 51.3 34 18.4zM1351.2 2354l34.2 52.5-34.2 18.4z"/><path d="M1317.1 2404.8l33.6 17.7 1.5 36.5z"/><path d="M1385.2 2406.6l-34.3 16.4.9 36.1z"/><path d="M1351.7 2458.4l-15.4-43.2 15 7.2z"/><path d="M1351.2 2353.8l23.8 58-24.7 10.6z"/><path d="M1338.4 2418.5s11.3-3 12.5-22.8c0 0 2.8 22.8 10.5 22 0 0-9.2 7.7-10.1 24 0 0 .1-24-12.9-23.2zM1348.1 2382.4s-6-1.2-6.7-8.7c0 0-1.6 8.7-5.7 8.3 0 0 5 3 5.5 9.2 0 0-.1-9.2 7-8.8z"/></g><path d="M1352.4 2364l-27.3 41 27.3 14.8z" fill="#2ad2ff"/><path d="M1352.3 2364.2l27.4 42-27.3 14.7z" fill="#b8f2ff"/><path d="M1325.1 2404.8l26.8 14v29.9z" fill="#0085ac"/><path d="M1379.8 2406.3L1352 2419l-.3 29.9z" fill="#00bff3"/><path d="M1352 2448.9l-11.5-36 11.9 6z" fill="#00a5d3"/><path d="M1352.2 2364.1l19.2 46-19 8.7z" fill="#6ee0ff"/></g></g><g fill="red"><g fill-rule="evenodd"><g fill="#fffeff"><path d="M1276.3 2338.1l-20 30 20 10.8zM1276.3 2338.1l20 30.8-20 10.8z"/><path d="M1256.3 2368l19.7 10.3.9 21.4z"/><path d="M1296.2 2369l-20.1 9.6.5 21.1z"/><path d="M1276.6 2399.3l-9-25.3 8.7 4.2z"/><path d="M1276.3 2338l14 34-14.5 6.2z"/><path d="M1268.8 2376s6.6-1.9 7.3-13.4c0 0 1.7 13.4 6.2 12.8 0 0-5.4 4.6-6 14.2 0 0 .1-14.2-7.5-13.6zM1274.5 2354.8s-3.6-.7-4-5.1c0 0-.9 5.1-3.3 4.9 0 0 3 1.7 3.2 5.4 0 0 0-5.4 4.1-5.2z"/></g><path d="M1277 2344l-16 24.1 16 8.6z" fill="#2ad2ff"/><path d="M1277 2344.2l16 24.5-16 8.6z" fill="#b8f2ff"/><path d="M1261 2368l15.7 8.2v17.4z" fill="#0085ac"/><path d="M1293 2368.8l-16.2 7.4-.1 17.5z" fill="#00bff3"/><path d="M1276.7 2393.7l-6.7-21 7 3.4z" fill="#00a5d3"/><path d="M1276.9 2344l11.2 27-11.1 5.1z" fill="#6ee0ff"/></g></g><g fill="red"><g fill-rule="evenodd"><g fill="#fffeff"><path d="M1477.8 2481.6l-40.7 61.3 40.8 22zM1477.9 2481.7l40.8 62.8-40.8 22z"/><path d="M1437.1 2542.5c1 .4 40.1 21 40.1 21l1.8 43.7z"/><path d="M1518.4 2544.6l-41 19.6 1.1 43.1z"/><path d="M1478.4 2606.5l-18.3-51.7 17.7 8.6z"/><path d="M1477.8 2481.6l28.5 69.2-29.5 12.7z"/><path d="M1462.5 2558.9s13.6-3.8 15-27.4c0 0 3.4 27.4 12.5 26.3 0 0-11 9.3-12.1 28.8 0 0 .2-28.8-15.4-27.7zM1474.2 2515.7s-7.3-1.4-8-10.4c0 0-2 10.4-6.9 10 0 0 6 3.5 6.6 11 0 0-.2-11 8.3-10.6z"/></g><path d="M1479.2 2493.8l-32.5 49 32.6 17.6z" fill="#2ad2ff"/><path d="M1479.2 2494l32.6 50-32.5 17.7z" fill="#b8f2ff"/><path d="M1446.7 2542.4l32 16.9v35.6z" fill="#0085ac"/><path d="M1512 2544.3l-33.1 15-.3 35.7z" fill="#00bff3"/><path d="M1478.7 2595l-13.7-43 14.2 7.2z" fill="#00a5d3"/><path d="M1479 2493.9l23 55-22.8 10.3z" fill="#6ee0ff"/></g></g><g fill="red"><g fill-rule="evenodd"><g fill="#fffeff"><path d="M1018.6 2499.5l-54.2 81.6 54.3 29.3zM1018.7 2499.6l54.3 83.7-54.3 29.3z"/><path d="M964.4 2580.5l53.4 28.1 2.4 58.1z"/><path d="M1072.7 2583.4l-54.7 26.1 1.5 57.4z"/><path d="M1019.4 2665.8l-24.5-68.8 23.7 11.5z"/><path d="M1018.6 2499.4l37.9 92.3-39.3 16.8z"/><path d="M998.2 2602.4s18-5 19.9-36.4c0 0 4.5 36.4 16.7 34.9 0 0-14.6 12.5-16.1 38.4 0 0 .3-38.4-20.5-37zM1013.7 2544.9s-9.7-2-10.7-13.9c0 0-2.5 13.9-9 13.3 0 0 7.8 4.7 8.7 14.6 0 0-.2-14.6 11-14z"/></g><path d="M1020.4 2515.7l-43.3 65.3 43.4 23.4z" fill="#2ad2ff"/><path d="M1020.4 2516l43.5 66.7-43.4 23.4z" fill="#b8f2ff"/><path d="M977.1 2580.5l42.7 22.4v47.4z" fill="#0085ac"/><path d="M1064 2583l-44 19.9-.4 47.6z" fill="#00bff3"/><path d="M1019.7 2650.6l-18.2-57.3 19 9.5z" fill="#00a5d3"/><path d="M1020.2 2515.8l30.5 73.2-30.3 13.8z" fill="#6ee0ff"/></g></g><g fill="red"><g fill-rule="evenodd"><g fill="#fffeff"><path d="M1139.7 2455.5l-46.9 70.5 47 25.3z"/><path d="M1139.7 2455.6l47 72.2-47 25.3zM1092.8 2525.4l46.1 24.3 2.1 50.1z"/><path d="M1186.4 2528l-47.2 22.5 1.2 49.5z"/><path d="M1140.3 2599.1l-21-59.4 20.4 9.9z"/><path d="M1139.7 2455.4l32.7 79.7-34 14.5z"/><path d="M1122 2544.3s15.6-4.3 17.2-31.4c0 0 4 31.4 14.5 30.1 0 0-12.7 10.8-14 33.2 0 0 .3-33.2-17.6-31.9zM1135.4 2494.6s-8.4-1.6-9.2-12c0 0-2.2 12-7.8 11.6 0 0 6.8 4 7.5 12.6 0 0-.1-12.6 9.5-12.2z"/></g><path d="M1141.2 2469.5l-37.4 56.3 37.5 20.2z" fill="#2ad2ff"/><path d="M1141.2 2469.7l37.6 57.6-37.5 20.2z" fill="#b8f2ff"/><path d="M1103.8 2525.4l36.9 19.4v40.9z" fill="#0085ac"/><path d="M1179 2527.5l-38.1 17.2-.4 41.1z" fill="#00bff3"/><path d="M1140.6 2586l-15.7-49.5 16.4 8.2z" fill="#00a5d3"/><path d="M1141 2469.5l26.4 63.3-26.2 12z" fill="#6ee0ff"/></g></g><g fill="red"><g fill-rule="evenodd"><g fill="#fffeff"><path d="M861.4 2465.5l-46.9 70.5 47 25.3z"/><path d="M861.4 2465.6l47 72.2-47 25.3zM814.5 2535.4l46.1 24.3 2.1 50.1z"/><path d="M908 2538l-47.1 22.5 1.2 49.5z"/><path d="M862 2609.1l-21-59.4 20.4 9.9z"/><path d="M861.4 2465.4l32.7 79.7-34 14.5z"/><path d="M843.8 2554.3s15.5-4.3 17.1-31.4c0 0 4 31.4 14.5 30.1 0 0-12.7 10.8-14 33.2 0 0 .3-33.2-17.6-31.9zM857.1 2504.6s-8.4-1.6-9.2-12c0 0-2.2 12-7.9 11.6 0 0 6.9 4 7.6 12.6 0 0-.1-12.6 9.5-12.2z"/></g><path d="M863 2479.5l-37.5 56.3L863 2556z" fill="#2ad2ff"/><path d="M862.9 2479.7l37.6 57.6-37.5 20.2z" fill="#b8f2ff"/><path d="M825.5 2535.4l36.9 19.4v40.9z" fill="#0085ac"/><path d="M900.6 2537.5c-.8.5-38 17.2-38 17.2l-.4 41.1z" fill="#00bff3"/><path d="M862.3 2596l-15.7-49.5 16.4 8.2z" fill="#00a5d3"/><path d="M862.7 2479.5l26.4 63.3-26.2 12z" fill="#6ee0ff"/></g></g><g fill-rule="evenodd"><g fill="#fffeff"><path d="M1563.6 2197.5l-39.4 59.3 39.4 21.2zM1563.6 2197.6l39.5 60.7-39.5 21.3z"/><path d="M1524.2 2256.3l38.8 20.4 1.7 42.2z"/><path d="M1602.8 2258.4l-39.6 19 1 41.6z"/><path d="M1564.2 2318.3l-17.8-50 17.2 8.3z"/><path d="M1563.6 2197.4l27.5 67-28.5 12.2z"/><path d="M1548.8 2272.2s13-3.6 14.4-26.4c0 0 3.3 26.4 12.2 25.3 0 0-10.7 9-11.8 27.9 0 0 .3-27.9-14.8-26.8zM1560 2230.4s-7-1.3-7.7-10c0 0-1.8 10-6.6 9.6 0 0 5.7 3.5 6.3 10.6 0 0-.1-10.6 8-10.2z"/></g><path d="M1565 2209.3l-31.5 47.4 31.5 17z" fill="#2ad2ff"/><path d="M1564.9 2209.4l31.6 48.5-31.5 17z" fill="#b8f2ff"/><path d="M1533.5 2256.3l31 16.3v34.4z" fill="#0085ac"/><path d="M1596.6 2258l-32 14.5-.3 34.6z" fill="#00bff3"/><path d="M1564.4 2307.2l-13.2-41.6 13.7 6.9z" fill="#00a5d3"/><path d="M1564.7 2209.3l22.2 53.2-22 10z" fill="#6ee0ff"/><path d="M1585.5 2243.3s-5.7-1-6.2-8c0 0-1.5 8-5.3 7.7 0 0 4.6 2.7 5 8.5 0 0 0-8.5 6.5-8.2zM1557.1 2241.3s-5.6-1.1-6.2-8c0 0-1.4 8-5.3 7.6 0 0 4.6 2.8 5.1 8.5 0 0 0-8.5 6.4-8.1z" fill="#fffeff"/></g><g transform="matrix(1.56429 0 0 1.56429 4509.6 1532.1)"><rect width="400" height="383.6" x="-1743.1" y="800.8" ry="0" fill="#ffa699"/><g transform="translate(-893.2 254.3) scale(1.07909)" fill="red"><circle r="105.1" cy="657.9" cx="-602.3" fill="#83e4f5" fill-opacity=".7"/><g transform="translate(-1138.3 384.8) scale(.41711)"><circle cx="1272.6" cy="559.8" r="61.4" fill="#d35f5f"/><circle cx="1243.1" cy="546.5" r="17.4" fill="#fff"/><circle cx="1243.1" cy="546.5" r="11.4" fill="#000"/><circle cx="1303" cy="545.3" r="17.4" fill="#fff"/><circle cx="1303" cy="545.3" r="11.4" fill="#000"/><path d="M1252.5 582.5a19.6 20 0 0 0 19.5 17.9 19.6 20 0 0 0 19.6-17.9z" fill="#fff"/></g><g transform="translate(-994.1 340.3) scale(.41711)"><rect width="152.1" height="188.1" x="850.8" y="731.6" ry="50.7" fill="#d35f5f"/><path d="M998.3 762.7a73 97 0 0 1 1.9 21 73 97 0 0 1-73.1 97 73 97 0 0 1-73-97 73 97 0 0 1 1.7-20.9c-3 6.5-4.7 13.8-4.7 21.5v86.8c0 28 22.6 50.7 50.6 50.7h50.8c28 0 50.7-22.6 50.7-50.7v-86.8c0-7.7-1.8-15-4.9-21.6z" fill="#8f2626"/></g><g transform="translate(-994.1 340.3) scale(.41711)"><rect ry="23" y="-1036.5" x="449.7" height="126.7" width="43.3" transform="scale(1 -1) rotate(24)" fill="#d35f5f"/><path d="M790.4 649c-3 5.9-3.4 13.3-.3 20.1l32.8 73.8a22.8 22.8 0 0 0 22.8 13.8z" fill="#8f2626"/></g><g transform="matrix(-.41711 0 0 .41711 -220.2 338.9)"><rect transform="scale(1 -1) rotate(24)" width="43.3" height="126.7" x="449.7" y="-1036.5" ry="23" fill="#d35f5f"/><path d="M790.4 649c-3 5.9-3.4 13.3-.3 20.1l32.8 73.8a22.8 22.8 0 0 0 22.8 13.8z" fill="#8f2626"/></g><circle r="58" cy="621.6" cx="-570.4" fill="#fff" fill-opacity=".6"/></g></g><rect width="625.7" height="602.6" x="1782.9" y="2183.9" ry="0" fill="#ff826b"/><g fill="red"><g fill-rule="evenodd"><g fill="#fffeff"><path d="M2095.6 2223.3l-139.4 209.8 139.5 75.2zM2095.7 2223.5l139.6 215-139.6 75.3z"/><path d="M1956.2 2431.5l137.2 72.1 6.1 149.3z"/><path d="M2234.5 2438.8c-3.1 1.6-140.4 67.2-140.4 67.2l3.7 147.5z"/><path d="M2097.6 2650.7l-62.9-176.8 60.8 29.4z"/><path d="M2095.6 2223l97.3 237.2-101 43.2z"/><path d="M2043.2 2487.7s46.2-12.9 51-93.6c0 0 11.7 93.6 43 89.7 0 0-37.6 32-41.5 98.7 0 0 .8-98.7-52.5-94.8zM2083 2339.8s-25-4.8-27.6-35.5c0 0-6.4 35.5-23.3 34a51 51 0 0 0 22.5 37.6s-.5-37.5 28.4-36z"/></g><path d="M2100.2 2265L1989 2432.6l111.5 60.1z" fill="#2ad2ff"/><path d="M2100 2265.6l112 171.4-111.6 60.2z" fill="#b8f2ff"/><path d="M1989 2431.4l109.6 57.6-.1 121.8z" fill="#0085ac"/><path d="M2212.3 2437.8l-113.2 51.1-1 122.3z" fill="#00bff3"/><path d="M2098.4 2611.6l-46.7-147.2 48.6 24.3z" fill="#00a5d3"/><path d="M2099.6 2265.1l78.5 188.2-78 35.5z" fill="#6ee0ff"/><path d="M2173 2385.5s-20-3.9-22-28.4c0 0-5.1 28.4-18.7 27.2 0 0 16.3 9.8 18 30 0 0-.3-30 22.7-28.8zM2069.3 2383.8s-20-3.8-22-28.4c0 0-5 28.4-18.6 27.3 0 0 16.3 9.7 18 30 0 0-.4-30 22.6-28.9z" fill="#fffeff"/></g></g></g></svg>