<svg xmlns="http://www.w3.org/2000/svg" xmlns:xlink="http://www.w3.org/1999/xlink" viewBox="0 0 1979 1606"><style><![CDATA[.B{fill:#fff}.C{fill:#ff2a2a}.D{fill:#a00}.E{word-spacing:0px}.F{font-family:Helvetica}.G{fill-rule:evenodd}.H{fill:#ad0606}.I{font-family:Roboto Slab}.J{fill:#ffdd82}.K{fill:#2d8555}.L{fill:#5dc88d}.M{fill:#2aa6ff}.N{fill:#006ebb}.O{fill:#ffcf4a}.P{fill:#a2cce5}.Q{fill:#c3deee}.R{fill:#7bb6da}.S{fill:#35a4be}.T{fill:#00a4d8}.U{fill:#349c63}.V{fill:#95dbb4}.W{fill:#cc4e4e}.X{fill:#f81f6c}.Y{fill:#ccc}.Z{fill:#297e92}.a{fill:#f7b7b7}.b{fill:#ffc732}.c{fill:#dfd8c6}.d{font-size:71px}.e{fill:#a13232}.f{fill:#538292}.g{font-weight:700}.h{fill:#6daed6}.i{font-size:189px}.j{fill:#ff7a7a}.k{fill:#94e5ff}.l{fill:#ff5f5f}.m{fill:#ff9797}.n{color-interpolation-filters:sRGB}]]></style><defs><linearGradient xlink:href="#B" id="A" x1="-372" y1="2240" x2="300" y2="2238"/><linearGradient id="B" gradientUnits="userSpaceOnUse"><stop offset="0" stop-color="#6dc3d6"/><stop offset="1" stop-color="#206271"/></linearGradient><linearGradient xlink:href="#B" id="C" x1="-392" y1="2177.869" x2="-394" y2="1616.896"/><filter id="D" x="0" width="1" y="0" height="1" class="n"><feGaussianBlur stdDeviation="3"/></filter><path id="E" d="M181 284l-1 8v78c0 29 24 52 53 52h38c29 0 52-23 52-52v-83a73 104 0 0 1-71 82 73 104 0 0 1-71-85z"/><path id="F" d="M790 713l-8 127c9 0 17-8 17-17v-96c0-6-4-11-9-14z"/><path id="G" d="M598 790a16 16 0 0 0 16 15 16 16 0 0 0 16-15z"/><path id="H" d="M148 2185l-6-103c7 0 13 6 13 13v78c0 5-3 10-7 12z"/><path id="I" d="M164 2114l-1 6v64c0 23 19 42 43 42h31c24 0 43-19 43-42v-68a59 85 0 0 1-58 67 59 85 0 0 1-58-69z"/><path id="J" d="M232 195a20 20 0 0 0 19 18 20 20 0 0 0 20-18z"/><path id="K" d="M105-21a114 114 0 1 0 0 228 114 114 0 1 0 0-228zm0 14a100 100 0 1 1 0 200 100 100 0 1 1 0-200z"/><path id="L" d="M790 1474l-73 316 55 58 582 1 31-71-41-102-104-10-95-47-90-69-59-77-101 86-63-26-14-49z"/><path id="M" d="M996 1474l-56 46c4 7-43 33-43 33l-60-20-18-47-31-9-15 73 92 46 63-9 44-30 18 45 116 83 146 56 139 31-40-98-103-10-96-47-90-68z"/><path id="N" d="M1343 1671v191c30-2 54-36 54-79v-33c0-42-24-77-54-79z"/><path id="O" d="M1073 1557l-69 56 49 34 55-43 12-11-46-36zm70 52l-59 59 40 39 59-59 10-11-44-22z"/><path id="P" d="M788 1480l26 16 5 38 72 33 18-2 97-81-3-9-14-5-95 76-55-19-13-41-2-8-40-13-2 13z"/><path id="Q" d="M1343 1672v88h54v-10c0-42-24-76-54-78z"/><path id="R" d="M56 1600a44 29 0 0 0-44 29 44 29 0 0 0 16 23v50c0 9 7 15 15 15h27c8 0 15-6 15-15v-47l-1-3a44 29 0 0 0 17-23 44 29 0 0 0-45-29z"/><path id="S" d="M172 1398a96 106 0 0 1-74 103 96 106 0 0 1-107-56 96 106 0 0 1 24-128"/><path id="T" d="M64 1601c13 9 29 23 21 35l-10 15 1 53-12 14h6c9 0 15-7 15-16v-50a44 29 0 0 0 17-23 44 29 0 0 0-38-28z"/><path id="U" d="M59 1354c-13 0-25 8-29 20l13-2h346c-2-10-11-18-26-18z"/><path id="V" d="M307 1234c-13 0-24 11-24 25v132h-26c-12 0-22 10-22 22v10c0 12 10 22 22 22h47l9-1h65l7 17 3 4 2 4 185 220c6 7 16 8 23 2l16-13v-222l-86-102c-2-3-5-5-8-6v-89c0-14-11-25-25-25z"/><path id="W" d="M420 1373l-137 1v18h-26c-12 0-22 10-22 22v10c0 12 10 22 22 22h47l9-1h65l7 17 3 4 2 5 185 219c6 7 39 25 39 25v-148z"/><path id="X" d="M396 1335s-81-16-90-116c0 0-20 116-75 111 0 0 66 40 73 122 0 0-2-122 92-117z"/></defs><g transform="translate(1798 -40)"><path d="M-1798 40H181v1606h-1979z" class="B"/><rect ry="28" y="1100" x="-1776" height="511" width="1150" fill="#f49929"/><path d="M-1746 1286c-4 0-6 3-6 6v239c0 3 2 6 6 6h176c3 0 6-3 6-6v-239c0-3-3-6-6-6zm6 6h164c3 0 6 2 6 5v229c0 3-3 5-6 5h-164c-4 0-6-2-6-5v-229c0-3 2-5 6-5z" fill="#fbdfbd"/><g transform="matrix(.7399 0 0 .7399 -1425 780)"><rect width="106" height="99" x="-380" y="735" ry="31" class="L"/><g transform="matrix(.81461 0 0 .81461 -532 643)"><circle r="17" cy="159" cx="222" class="B"/><circle r="11" cy="159" cx="222" class="K"/></g><circle r="14" cy="771" cx="-302" class="B"/><g class="K"><circle r="9" cy="771" cx="-302"/><path d="M-343 802a16 16 0 0 0 16 14 16 16 0 0 0 15-14z"/></g><g transform="matrix(.81461 0 0 .81461 -532 643)"><rect ry="52" y="239" x="180" height="183" width="143" class="L"/><use xlink:href="#E" class="K"/></g><path fill="#34629c" d="M-318.287 809.702l4.24-2.65 32.325 51.73-4.24 2.65z"/><g transform="matrix(.29193 -.760504 .760504 .29193 -1087.282487 1215.994164)"><rect ry="17" y="711" x="761" height="129" width="37" class="U"/><use xlink:href="#F" class="V"/></g><path d="M-328.463 806.628l5.936-3.71 8.48 13.57-5.936 3.71z" class="B"/><g fill="#34629c"><rect width="9" height="19" x="-686" y="528" ry="5" transform="rotate(330)"/><rect width="41" height="59" x="-336" y="868" ry="12"/></g><ellipse cx="-315" cy="873" rx="14" ry="2" class="B"/><g transform="matrix(.534432 -.614794 -.614794 -.534432 -314.523875 1771.591766)"><rect ry="17" y="711" x="761" height="129" width="37" class="U"/><use xlink:href="#F" class="V"/></g><g fill="#a4bfe1"><rect width="3" height="40" x="-301" y="879" ry="1"/><rect width="6" height="16" x="-309" y="880" ry="3"/></g></g><g transform="matrix(.7399 0 0 .7399 -1465 787)"><rect ry="31" y="725" x="6" height="99" width="106" class="L"/><g transform="matrix(.81461 0 0 .81461 -146 634)"><circle cx="222" cy="159" r="17" class="B"/><circle cx="227" cy="159" r="11" class="K"/></g><circle cx="84" cy="762" r="14" class="B"/><circle cx="80" cy="762" r="9" class="K"/><path d="M43 793a16 16 0 0 0 16 14 16 16 0 0 0 16-14z" class="B"/><g transform="matrix(.81461 0 0 .81461 765 1448)"><rect width="37" height="129" x="761" y="711" ry="17" class="L"/><use xlink:href="#F" class="K"/></g><g transform="matrix(.81461 0 0 .81461 -146 634)"><rect width="143" height="183" x="180" y="239" ry="52" class="L"/><use xlink:href="#E" class="K"/></g><g transform="matrix(.81461 0 0 -.81461 -650 1448)"><rect width="37" height="129" x="761" y="711" ry="17" class="L"/><use xlink:href="#F" class="K"/></g></g><path d="M-1423 1301a46 40 0 0 0-46 40 46 40 0 0 0 0 2l4-1h2a40 35 0 0 1 0-1 40 35 0 0 1 40-34 40 35 0 0 1 40 34 40 35 0 0 1 0 1h6a46 40 0 0 0 0-1 46 40 0 0 0-46-40z" class="e"/><g transform="matrix(.7399 0 0 .7399 -1413 788)"><rect ry="5" y="747" x="-78" height="48" width="15" fill="#ee6161"/><path d="M-76 755h1v32h-1z" class="a"/><path d="M-70 755h6v32h-6z" class="e"/><path d="M-70 755h1v19h-1z" class="a"/></g><g transform="matrix(.7399 0 0 .7399 -1327 788)"><rect ry="5" y="747" x="-78" height="48" width="15" fill="#ee6161"/><path d="M-76 755h1v32h-1z" class="a"/><path d="M-70 755h6v32h-6z" class="e"/><path d="M-70 755h1v19h-1z" class="a"/></g><g transform="matrix(.7399 0 0 .7399 -1414 788)"><rect ry="31" y="723" x="247" height="99" width="106" class="L"/><g transform="matrix(.81461 0 0 .81461 97 632)"><circle cx="222" cy="159" r="17" class="B"/><circle cx="225" cy="161" r="11" class="K"/></g><circle cx="325" cy="760" r="14" class="B"/><circle cx="323" cy="762" r="9" class="K"/><path d="M284 786c.788 10.81 7.726 19.05 16 19 8.274.05 15.212-8.19 16-19z" class="B"/><g transform="matrix(.81461 0 0 .81461 95 632)"><rect width="143" height="183" x="180" y="239" ry="52" class="L"/><use xlink:href="#E" class="K"/></g><g transform="matrix(.419555 .698257 .698257 -.419555 -620.543177 629.58907)"><rect width="37" height="129" x="761" y="711" ry="17" class="V"/><use xlink:href="#F" class="U"/></g><g transform="matrix(-.344269 .738287 -.738287 -.344269 1199.903405 533.111158)"><rect width="37" height="129" x="761" y="711" ry="17" class="V"/><use xlink:href="#F" class="U"/></g><g fill="#cf8424"><rect width="55" height="19" x="275" y="794" ry="10"/><rect width="55" height="19" x="275" y="816" ry="10"/></g><rect width="45" height="7" x="279" y="810" ry="4" fill="#cf2424"/><path fill="#36bd42" d="M276 807h51v6h-51z"/><rect width="51" height="7" x="276" y="816" ry="2" fill="#592400"/><g fill="#f5a139"><ellipse cx="284" cy="797" rx="3" ry="2"/><ellipse cx="292" cy="797" rx="3" ry="2"/><ellipse cx="289" cy="802" rx="3" ry="2"/><ellipse cx="305" cy="801" rx="3" ry="2"/><ellipse cx="311" cy="797" rx="3" ry="2"/><ellipse cx="317" cy="801" rx="3" ry="2"/><ellipse cx="283" cy="828" rx="3" ry="2"/><ellipse cx="289" cy="832" rx="3" ry="2"/><ellipse cx="295" cy="827" rx="3" ry="2"/><ellipse cx="306" cy="832" rx="3" ry="2"/><ellipse cx="311" cy="827" rx="3" ry="2"/><ellipse cx="316" cy="832" rx="3" ry="2"/><ellipse cx="323" cy="828" rx="3" ry="2"/></g><rect width="106" height="99" x="562" y="723" ry="31" class="L"/><g transform="matrix(.81461 0 0 .81461 410 632)"><circle r="17" cy="159" cx="222" class="B"/><circle r="11" cy="156" cx="225" class="K"/></g><circle r="14" cy="760" cx="639" class="B"/><circle r="9" cy="758" cx="641" class="K"/><use xlink:href="#G" class="B"/><g transform="matrix(.81461 0 0 .81461 1330 1515)"><rect ry="17" y="711" x="761" height="129" width="37" class="L"/><use xlink:href="#F" class="K"/></g><g transform="matrix(.81461 0 0 .81461 410 632)"><rect ry="52" y="239" x="180" height="183" width="143" class="L"/><use xlink:href="#E" class="K"/></g><rect width="31" height="63" x="547" y="751" ry="15" fill="#143c26"/><g transform="matrix(.81461 0 0 .81461 1189 1444)"><rect width="37" height="129" x="761" y="711" ry="17" class="V"/><use xlink:href="#F" class="U"/></g><rect width="3" height="37" x="550" y="722" ry="2" fill="#143c26"/></g><g transform="matrix(.7399 0 0 .7399 -1425 788)"><rect width="106" height="99" x="875" y="723" ry="31" class="L"/><g transform="matrix(.81461 0 0 .81461 724 632)"><circle r="17" cy="159" cx="222" class="B"/><circle r="11" cy="164" cx="222" class="K"/></g><circle r="14" cy="760" cx="953" class="B"/><circle r="9" cy="764" cx="953" class="K"/><use xlink:href="#G" x="314" class="B"/><g transform="matrix(.81461 0 0 .81461 724 632)"><rect ry="52" y="239" x="180" height="183" width="143" class="L"/><use xlink:href="#E" class="K"/></g><g transform="matrix(-.7151 .39015 .27041 .49536 1230 175)"><rect ry="17" y="711" x="761" height="129" width="37" rx="0" class="V"/><use xlink:href="#F" class="U"/></g><g transform="matrix(.7151 .39015 -.27041 .49536 631 175)"><rect ry="17" y="711" x="761" height="129" width="37" rx="0" class="V"/><use xlink:href="#F" class="U"/></g><rect width="95" height="39" x="881" y="878" ry="19" fill="#3d616c"/><rect width="44" height="29" x="907" y="884" ry="7" class="f"/><g class="L"><rect width="17" height="36" x="876" y="877" ry="8"/><rect width="17" height="36" x="962" y="879" ry="8"/></g><rect width="66" height="3" x="894" y="879" ry="1" class="f"/><g transform="matrix(.02832 .03051 -.03084 .02802 951 891)"><g class="B"><circle transform="rotate(270)" r="300" cy="-209" cx="-502"/><path d="M-209 202A300 300 0 0 1 51 352a300 300 0 0 1-1 300 300 300 0 0 1-260 150"/><path d="M91 502A300 300 0 0 1-59 762a300 300 0 0 1-301-1 300 300 0 0 1-149-260"/><path d="M-209 802a300 300 0 0 1-213-88 300 300 0 0 1-87-213l300 1z"/></g><circle r="275" cy="502" cx="-209" class="f"/></g><g fill="#3d616c" class="G"><path d="M928 889h-4l-2 3h3l4-1z"/><path d="M925 892l1 2 2 1 1-3v-1z"/><path d="M922 892h4l1 2-5-2"/><path d="M922 892v3h-1l4 1 2-2z"/><path d="M925 896l2-2 1 1z"/><path d="M925 896l-1 1v1l4 1 1-1-1-4z"/><path d="M921 895l3 3 1-2z"/><path d="M922 894l3 2h-4v-1z"/><path d="M921 895l-1 3v1l2 1 3-2z"/><path d="M920 899v2l2 2v-3zm2 1h3l3-2h-3zm3 0v4l1-1h2z"/><path d="M925 900l3-1 1-1v2l-1 4zm-3 3l3-1-3-2z"/><path d="M924 898l-2 2 3 2v-2zm-1-3l4-1-2 2zm-1-1l1 1-1-3-1 2zm3 10l2-2 2 3h-4zm-3-1l-1 2 3-1 1 1v-3z"/><path d="M920 901v2l1 2 1-2zm1 4l3-1 1 1-1 3-2-1-1-2z"/><path d="M924 907v1l2 1v-2l-1-2-1 2zm1-2l3-1 1 1-2 3-1-2z"/><path d="M926 906v3l2-2zm-4-14l2-3 2 3zm-2 7h4l-2 1zm5-3l3 2h-4l1-1zm3 2l-1 4 2 3-1-4zm-6 9l2 1 1-3z"/><path d="M924 904v2l1-1-1-1zm4-14l-4-1h4zm-2 2v2l2 1 1-2zm-4 0l1 2v1-3zm5 8v2h2l-1-4z"/><path d="M925 900l2 2 1-4zm6-11l3 1 2 2h-3l-3-1z"/><path d="M933 892l-1 2-2 1v-4z"/><path d="M936 892h-3l-1 2 4-2m0 0l1 2v2h-3l-2-2z"/><path d="M934 896l-2-2-2 1z"/><path d="M934 896v2l-3 1-1-1v-3zm4 0l-4 2v-2zm-1-2l-3 2h4l-1-1zm1 2v3l-1 2-3-3z"/><path d="M938 899v2l-1 2-1-3zm-2 1h-3l-3-1 4-1zm-2 0v4l-2-1h-2z"/><path d="M933 900l-2-1-1-1-1 2 1 4zm4 3l-3-1 3-2z"/><path d="M934 898l3 2-3 2v-2zm1-3l-3-1 2 2zm1-1l-1 1 1-3 1 2zm-2 10l-2-2-3 3h4z"/><path d="M937 903v2l-3-1v1h-1l1-3zm1-2v4h-1v-2z"/><path d="M937 905l-3-1-1 1 2 3 1-1 1-2z"/><path d="M935 907l-1 1-2 1 1-2v-2l2 3z"/><path d="M933 905l-2-1-2 1 2 3 2-2z"/><path d="M933 906l-1 3v-1h-1l-1-1zm3-14l-2-2-1 2zm2 7h-3l2 2zm-4-2l-3 2 3-1zm-3 2l1 3-3 3 1-4zm5 8l-1 1-2-3z"/><path d="M934 904v2l-1-1 1-1zm-4-14h4l-3-1zm3 2l-1 2-2 1v-2zm3 0v2l-1 1v-2zm-5 9l1 1h-2l1-3z"/><path d="M934 900l-2 2-1-3zm-4-9zm0 0h-2l1 1-1 3v3l1 2 1-2v-7zm-2 0zm1 9l-1 2 1 3 1-3z"/></g></g><path d="M-1040 1286c-4 0-6 3-6 6v239c0 3 2 6 6 6h176c3 0 6-3 6-6v-239c0-3-3-6-6-6zm6 6h164c3 0 6 2 6 5v229c0 3-3 5-6 5h-164c-3 0-6-2-6-5v-229c0-3 3-5 6-5z" fill="#fbdfbd"/><text y="1185" x="-1735" font-size="44" letter-spacing="0" class="B E F"><tspan y="1185" x="-1735" class="I">At least 40% of your everyday activites are habitual</tspan></text><text y="1272" x="-1677" font-size="49" letter-spacing="0" class="B E F"><tspan y="1272" x="-1677" class="I g">H</tspan></text><text y="1272" x="-971" font-size="49" letter-spacing="0" class="B E F"><tspan y="1272" x="-971" class="I g">H</tspan></text><g transform="matrix(.42415 0 0 .42415 -308 -588)"><rect ry="38" y="2732" x="-1167" height="1179" width="2262" fill="#181818"/><rect width="352" height="355" x="-984" y="3110" ry="25" class="h"/><rect width="310" height="239" x="-963" y="3188" ry="23" class="B"/><g transform="matrix(.57382 0 0 .57382 -467 1840)"><rect width="81" height="184" x="-865" y="-2325" ry="40" transform="scale(1 -1)" class="P"/><rect width="11" height="125" x="-860" y="2170" ry="6" class="Q"/><rect ry="23" y="2166" x="-840" height="134" width="46" class="R"/></g><g transform="matrix(.57382 0 0 .57382 -337 1840)"><rect width="81" height="184" x="-865" y="-2325" ry="40" transform="scale(1 -1)" class="P"/><rect width="11" height="125" x="-860" y="2170" ry="6" class="Q"/><rect ry="23" y="2166" x="-840" height="134" width="46" class="R"/></g><g transform="matrix(.57382 0 0 .57382 -207 1840)"><rect width="81" height="184" x="-865" y="-2325" ry="40" transform="scale(1 -1)" class="P"/><rect width="11" height="125" x="-860" y="2170" ry="6" class="Q"/><rect ry="23" y="2166" x="-840" height="134" width="46" class="R"/></g><g transform="matrix(.57382 0 0 .57382 -298 1635)" class="X"><rect ry="23" y="3224" x="-1182" height="101" width="75"/><rect ry="23" y="3224" x="-1097" height="101" width="75"/><rect ry="23" y="3224" x="-1012" height="101" width="75"/><rect ry="23" y="3224" x="-841" height="101" width="75"/><rect ry="23" y="3224" x="-756" height="101" width="75"/><rect ry="23" y="3224" x="-671" height="101" width="75"/><rect ry="23" y="3224" x="-926" height="101" width="75"/><rect ry="23" y="3340" x="-1182" height="101" width="75"/><rect ry="23" y="3340" x="-1097" height="101" width="75"/><rect ry="23" y="3340" x="-1012" height="101" width="75"/><rect ry="23" y="3340" x="-841" height="101" width="75"/><rect ry="23" y="3340" x="-756" height="101" width="75"/><rect ry="23" y="3340" x="-671" height="101" width="75"/><rect ry="23" y="3340" x="-926" height="101" width="75"/><rect ry="23" y="3457" x="-1182" height="101" width="75"/><rect ry="23" y="3457" x="-1097" height="101" width="75"/><rect ry="23" y="3457" x="-1012" height="101" width="75"/><rect ry="23" y="3457" x="-841" height="101" width="75"/><rect ry="23" y="3457" x="-756" height="101" width="75"/><rect ry="23" y="3457" x="-671" height="101" width="75"/><rect ry="23" y="3457" x="-926" height="101" width="75"/><rect ry="23" y="3574" x="-1182" height="101" width="75"/><rect ry="23" y="3574" x="-1097" height="101" width="75"/><rect ry="23" y="3574" x="-1012" height="101" width="75"/><rect ry="23" y="3574" x="-841" height="101" width="75"/><rect ry="23" y="3574" x="-756" height="101" width="75"/><rect ry="23" y="3574" x="-671" height="101" width="75"/><rect ry="23" y="3574" x="-926" height="101" width="75"/><rect ry="23" y="3689" x="-1182" height="101" width="75"/><rect ry="23" y="3689" x="-1097" height="101" width="75"/><rect ry="23" y="3689" x="-1012" height="101" width="75"/></g><rect width="352" height="355" x="-612" y="3110" ry="25" class="h"/><rect width="310" height="239" x="-590" y="3188" ry="23" class="B"/><g transform="matrix(.57382 0 0 .57382 -94 1840)"><rect width="81" height="184" x="-865" y="-2325" ry="40" transform="scale(1 -1)" class="P"/><rect width="11" height="125" x="-860" y="2170" ry="6" class="Q"/><rect ry="23" y="2166" x="-840" height="134" width="46" class="R"/></g><g transform="matrix(.57382 0 0 .57382 35 1840)"><rect width="81" height="184" x="-865" y="-2325" ry="40" transform="scale(1 -1)" class="P"/><rect width="11" height="125" x="-860" y="2170" ry="6" class="Q"/><rect ry="23" y="2166" x="-840" height="134" width="46" class="R"/></g><g transform="matrix(.57382 0 0 .57382 165 1840)"><rect width="81" height="184" x="-865" y="-2325" ry="40" transform="scale(1 -1)" class="P"/><rect width="11" height="125" x="-860" y="2170" ry="6" class="Q"/><rect ry="23" y="2166" x="-840" height="134" width="46" class="R"/></g><g transform="matrix(.57382 0 0 .57382 -298 1635)" class="X"><rect ry="23" y="3224" x="-533" height="101" width="75"/><rect ry="23" y="3224" x="-448" height="101" width="75"/><rect ry="23" y="3224" x="-363" height="101" width="75"/><rect ry="23" y="3224" x="-192" height="101" width="75"/><rect ry="23" y="3224" x="-107" height="101" width="75"/><rect ry="23" y="3224" x="-22" height="101" width="75"/><rect ry="23" y="3224" x="-278" height="101" width="75"/><rect ry="23" y="3341" x="-533" height="101" width="75"/><rect ry="23" y="3341" x="-448" height="101" width="75"/><rect ry="23" y="3341" x="-363" height="101" width="75"/><rect ry="23" y="3341" x="-192" height="101" width="75"/><rect ry="23" y="3341" x="-107" height="101" width="75"/><rect ry="23" y="3341" x="-22" height="101" width="75"/><rect ry="23" y="3341" x="-278" height="101" width="75"/><rect ry="23" y="3458" x="-533" height="101" width="75"/><rect ry="23" y="3458" x="-448" height="101" width="75"/><rect ry="23" y="3458" x="-363" height="101" width="75"/><rect ry="23" y="3458" x="-192" height="101" width="75"/><rect ry="23" y="3458" x="-107" height="101" width="75"/><rect ry="23" y="3458" x="-22" height="101" width="75"/><rect ry="23" y="3458" x="-278" height="101" width="75"/><rect ry="23" y="3574" x="-533" height="101" width="75"/><rect ry="23" y="3574" x="-448" height="101" width="75"/><rect ry="23" y="3574" x="-363" height="101" width="75"/><rect ry="23" y="3574" x="-192" height="101" width="75"/><rect ry="23" y="3574" x="-107" height="101" width="75"/><rect ry="23" y="3574" x="-22" height="101" width="75"/><rect ry="23" y="3574" x="-278" height="101" width="75"/><rect ry="23" y="3685" x="-537" height="101" width="75"/><rect ry="23" y="3685" x="-451" height="101" width="75"/></g><rect ry="25" y="3112" x="-240" height="355" width="352" class="h"/><rect ry="23" y="3189" x="-218" height="239" width="310" class="B"/><g transform="matrix(.57382 0 0 .57382 278 1841)"><rect transform="scale(1 -1)" ry="40" y="-2325" x="-865" height="184" width="81" class="P"/><rect ry="6" y="2170" x="-860" height="125" width="11" class="Q"/><rect width="46" height="134" x="-840" y="2166" ry="23" class="R"/></g><g transform="matrix(.57382 0 0 .57382 407 1841)"><rect transform="scale(1 -1)" ry="40" y="-2325" x="-865" height="184" width="81" class="P"/><rect ry="6" y="2170" x="-860" height="125" width="11" class="Q"/><rect width="46" height="134" x="-840" y="2166" ry="23" class="R"/></g><g transform="matrix(.57382 0 0 .57382 537 1841)"><rect transform="scale(1 -1)" ry="40" y="-2325" x="-865" height="184" width="81" class="P"/><rect ry="6" y="2170" x="-860" height="125" width="11" class="Q"/><rect width="46" height="134" x="-840" y="2166" ry="23" class="R"/></g><g transform="matrix(.57382 0 0 .57382 -298 1635)"><g class="X"><rect ry="23" y="3224" x="117" height="101" width="75"/><rect ry="23" y="3224" x="202" height="101" width="75"/><rect ry="23" y="3224" x="287" height="101" width="75"/><rect ry="23" y="3224" x="458" height="101" width="75"/><rect ry="23" y="3224" x="372" height="101" width="75"/></g><g fill="#fdc8db"><rect ry="23" y="3224" x="543" height="101" width="75"/><rect ry="23" y="3224" x="628" height="101" width="75"/><rect ry="23" y="3341" x="117" height="101" width="75"/><rect ry="23" y="3341" x="202" height="101" width="75"/><rect ry="23" y="3341" x="287" height="101" width="75"/><rect ry="23" y="3341" x="458" height="101" width="75"/><rect ry="23" y="3341" x="543" height="101" width="75"/><rect ry="23" y="3341" x="628" height="101" width="75"/><rect ry="23" y="3341" x="372" height="101" width="75"/><rect ry="23" y="3458" x="117" height="101" width="75"/><rect ry="23" y="3458" x="202" height="101" width="75"/><rect ry="23" y="3458" x="287" height="101" width="75"/><rect ry="23" y="3458" x="458" height="101" width="75"/><rect ry="23" y="3458" x="543" height="101" width="75"/><rect ry="23" y="3458" x="628" height="101" width="75"/><rect ry="23" y="3458" x="372" height="101" width="75"/><rect ry="23" y="3574" x="117" height="101" width="75"/><rect ry="23" y="3574" x="202" height="101" width="75"/><rect ry="23" y="3574" x="287" height="101" width="75"/><rect ry="23" y="3574" x="458" height="101" width="75"/><rect ry="23" y="3574" x="543" height="101" width="75"/><rect ry="23" y="3574" x="628" height="101" width="75"/><rect ry="23" y="3574" x="372" height="101" width="75"/><rect width="75" height="101" x="113" y="3685" ry="23"/><rect width="75" height="101" x="198" y="3685" ry="23"/><rect ry="23" y="3685" x="283" height="101" width="75"/></g></g><text x="-911" y="3361" font-size="88" letter-spacing="0" class="E F X"><tspan x="-911" y="3361" class="I i">31</tspan></text><text x="-524" y="3358" font-size="88" letter-spacing="0" class="E F X"><tspan x="-524" y="3358" class="i">30</tspan></text><text x="-113" y="3362" font-size="88" letter-spacing="0" class="E F X"><tspan x="-113" y="3362" class="I i">5</tspan></text></g><rect width="934" height="491" x="-1780" y="587" ry="15" fill="#6dc3d6"/><rect ry="12" y="677" x="-1576" height="250" width="305" class="B"/><path d="M-1325 715l-16 3 4 5-176 154v4h3l176-155 4 4z" fill="#ffce3c"/><path d="M-1321 744l2 5-211 101a2 2 0 1 0 2 4l211-100 3 5 9-14z" fill="#00b6ff"/><path d="M-1541 795a2 2 0 1 0 0 5l232 8v5l15-7-14-9v6z" fill="#e00e0e"/><g transform="matrix(.4851 0 0 .4851 -1619 203)"><rect width="91" height="91" x="744" y="1386" ry="8" class="B"/><rect width="76" height="76" x="752" y="1393" ry="7" fill="#e00e0e"/></g><text x="-1190" y="720" font-size="38" letter-spacing="0" fill="#ffe8a4" class="E F"><tspan x="-1190" y="720">Weak Habit</tspan></text><text x="-1192" y="816" font-size="38" letter-spacing="0" fill="#daf4ff" class="E F"><tspan x="-1192" y="816">Moderate Habit</tspan></text><text x="-1192" y="907" font-size="38" letter-spacing="0" fill="#fddada" class="E F"><tspan x="-1192" y="907">Strong Habit</tspan></text><g transform="matrix(.4851 0 0 .4851 -1619 108)"><rect ry="8" y="1386" x="744" height="91" width="91" class="B"/><rect ry="7" y="1393" x="752" height="76" width="76" fill="#00b6ff"/></g><g transform="matrix(.4851 0 0 .4851 -1619 13)"><rect ry="8" y="1386" x="744" height="91" width="91" class="B"/><rect ry="7" y="1393" x="752" height="76" width="76" fill="#ffce3c"/></g><path d="M256 2206v21h-559c-8 0-15 5-15 12s7 12 15 12h559v21l57-33-57-33z" fill="url(#A)" transform="matrix(.4851 0 0 .4851 -1415 -99)"/><text x="-243" y="2196" font-size="77" letter-spacing="0" transform="matrix(.4851 0 0 .4851 -1415 -99)" class="B E F"><tspan x="-243" y="2196">Frequency</tspan></text><text x="-2052" y="-438" transform="matrix(0 -.48511 .48511 0 -1415 -99)" font-size="77" letter-spacing="0" class="B E F"><tspan x="-2052" y="-438">Intention</tspan></text><path d="M-426 1654h20v466c0 7 6 13 13 13 6 0 12-6 12-13v-466h20l-32-48-33 48z" fill="url(#C)" transform="matrix(.4851 0 0 .4851 -1415 -99)"/><text y="839" x="-262" font-size="91" letter-spacing="0" fill="#f95d95" class="E F"><tspan y="839" x="-262" class="I">= 66 days</tspan></text><text y="648" x="-777" font-size="55" letter-spacing="0" fill="#f95d95" class="E F"><tspan y="648" x="-777" class="I">The average time to form a habit is</tspan></text><path d="M-570 1105c-18 0-33 12-33 28v450c0 15 15 28 33 28h339v-506h-316z" fill="#ff6d6d"/><path d="M-231 1105v506h355c20 0 35-13 35-28v-450c0-16-15-28-35-28H-44z" fill="#6dc3d6"/><g transform="matrix(.52675 0 0 .52675 -347 164)"><rect width="36" height="125" x="137" y="2091" ry="18" fill="#cb0000"/><rect width="36" height="125" x="289" y="2091" ry="18" class="S"/><rect width="46" height="60" x="184" y="2026" ry="30" class="j"/><rect width="89" height="85" x="191" y="2164" ry="27" class="S"/><path d="M197 2206c-7 0-14 6-14 14v14c0 8 7 14 14 14h24v-28c0-8-7-14-14-14z" fill="#cb0000"/><rect width="73" height="85" x="213" y="2007" ry="42" class="S"/><path d="M210 2056h12v21h-12z" class="j"/><circle r="50" cy="2023" cx="222" class="B"/><circle r="14" cy="2012" cx="198" class="Y"/><circle r="9" cy="2012" cx="198" class="B"/><circle cx="246" cy="2011" r="14" class="Y"/><circle cx="246" cy="2011" r="9" class="B"/><use xlink:href="#G" x="-393" y="1251" class="Y"/><rect transform="scale(1 -1)" ry="14" y="-2187" x="125" height="105" width="30" class="B"/><use xlink:href="#H" class="Y"/><rect transform="scale(-1)" ry="14" y="-2187" x="-316" height="105" width="30" class="B"/><path d="M293 2185l6-103c-7 0-13 6-13 14v77c0 6 3 10 7 12z" class="Y"/><rect ry="43" y="2077" x="163" height="149" width="116" class="B"/><use xlink:href="#I" class="Y"/></g><g transform="matrix(.59167 0 0 .59167 -517 143)"><circle r="50" cy="2023" cx="222" fill="#faa"/><circle r="14" cy="2012" cx="198" class="B"/><circle r="9" cy="2008" cx="196" class="W"/><circle cx="246" cy="2011" r="14" class="B"/><circle cx="242" cy="2009" r="9" class="W"/><path d="M239 2047a16 16 60 0 0-21-5 16 16 60 0 0-7 21z" class="B"/><rect transform="scale(1 -1)" ry="14" y="-2187" x="125" height="105" width="30" fill="#faa"/><use xlink:href="#H" class="W"/><rect ry="43" y="2077" x="163" height="149" width="116" fill="#faa"/><use xlink:href="#I" class="W"/><rect transform="scale(-1)" ry="14" y="-2151" x="-264" height="105" width="30" fill="#ff7c7c"/><path d="M240 2149l7-103c-8 0-14 6-14 13v78c0 5 3 10 7 12z" class="W"/><text x="133" y="1975" font-size="76" letter-spacing="0" class="B E F"><tspan x="133" y="1975">?</tspan></text><text x="194" y="1911" font-size="76" letter-spacing="0" class="B E F"><tspan x="194" y="1911">?</tspan></text><text x="281" y="1975" font-size="76" letter-spacing="0" class="B E F"><tspan x="281" y="1975">?</tspan></text></g><g transform="matrix(.62582 0 0 .62582 -199 74)"><circle r="50" cy="2023" cx="222" class="S"/><circle r="14" cy="2012" cx="198" class="B"/><circle r="9" cy="2012" cx="198" class="Z"/><circle cx="246" cy="2011" r="14" class="B"/><circle cx="246" cy="2011" r="9" class="Z"/><path d="M206 2044a16 16 6 0 1 17-13 16 16 6 0 1 15 16z" class="B"/><rect width="30" height="105" x="-316" y="-2187" ry="14" transform="matrix(-1 0 0 -1 -20 -88)" class="S"/><path d="M273 2097l6-103c-7 0-13 6-13 14v77c0 6 3 10 7 12z" class="Z"/><rect ry="43" y="2077" x="163" height="149" width="116" class="S"/><use xlink:href="#I" class="Z"/><rect width="30" height="105" x="125" y="-2187" ry="14" transform="matrix(1 0 0 -1 26 -86)" class="S"/><use xlink:href="#H" x="26" y="-86" class="Z"/></g><path d="M-22 1287h-6v9c0 3-3 6-6 6h-60c-3 0-6-3-6-6v-41c0-4 3-6 6-6h60c3 0 6 2 6 6v9h6zm-12 4v-32c0-2-1-4-4-4h-6c-2 0-4 2-4 4v32c0 3 2 5 4 5h6c3 0 4-2 4-5zm-23 0v-32c0-2-2-4-4-4h-6c-3 0-4 2-4 4v32c0 3 1 5 4 5h6c2 0 4-2 4-5zm-23 0v-32c0-2-2-4-4-4h-6c-3 0-5 2-5 4v32c0 3 2 5 5 5h6c2 0 4-2 4-5z" class="B"/><path d="M-33 1296v-42h-56v42z"/><path d="M-89 1296v-42h-6v42z" class="j"/><path d="M-64 1257l-6 24 9-4-2 17 11-21h-10z" class="B G"/><rect ry="16" y="1528" x="-539" height="66" width="296" class="W"/><rect ry="16" y="1528" x="-163" height="66" width="303" class="S"/><g class="B"><circle cy="1560" cx="-560" r="29"/><ellipse ry="27" rx="28" cy="1561" cx="-186"/></g><g transform="matrix(.35698 0 0 .35698 -1693 167)"><path d="M-234 194h850v850h-850z" class="k"/><circle cx="190" cy="638" r="245" class="B"/><g fill="red"><g transform="matrix(.97572 0 0 .97572 -55 378)"><circle r="61" cy="172" cx="252" class="C"/><circle cx="222" cy="159" r="17" class="B"/><circle cx="222" cy="159" r="11" class="H"/><circle cx="282" cy="158" r="17" class="B"/><circle cx="282" cy="158" r="11" class="H"/><use xlink:href="#J" class="B"/></g><g transform="matrix(.97572 0 0 -.97572 -668 1436)"><rect width="37" height="129" x="761" y="711" ry="17" class="C"/><use xlink:href="#F" class="H"/></g><g transform="matrix(-.97572 0 0 -.97572 1048 1437)"><rect width="37" height="129" x="761" y="711" ry="17" class="C"/><use xlink:href="#F" class="H"/></g><g transform="matrix(.97572 0 0 .97572 -55 378)"><rect width="143" height="183" x="180" y="239" ry="52" class="C"/><use xlink:href="#E" class="H"/></g></g><g transform="matrix(.593935 -.170308 .170308 .593935 -466.700085 571.256343)" class="C"><circle cx="1394" cy="422" r="77"/><circle cx="1101" cy="826" r="77"/><circle cx="627" cy="672" r="77"/><circle cx="627" cy="173" r="77"/><circle cx="1101" cy="19" r="77"/></g><circle cx="327" cy="861" r="88" class="B"/><g transform="matrix(-1.38946 0 0 -1.38946 1409 1946)"><rect width="37" height="129" x="761" y="711" ry="17" class="C"/><use xlink:href="#F" class="H"/></g><path d="M327 761a100 100 0 1 0 0 200 100 100 0 1 0 0-200zm0 12a88 88 0 0 1 88 88 88 88 0 0 1-88 87 88 88 0 0 1-88-87 88 88 0 0 1 88-88z" class="T"/><rect width="26" height="60" x="799" y="395" ry="15" transform="rotate(40)" class="C"/><g transform="matrix(.8761 0 0 .8761 133 71)"><circle r="100" cy="350" cx="74" class="B"/><g transform="matrix(1.1382 0 0 1.1382 -251 144)" fill="red"><ellipse ry="80" rx="95" cx="285" cy="190" class="C"/><g transform="matrix(1.71039 0 0 1.71039 -150 -86)"><circle r="17" cy="159" cx="222" class="B"/><circle r="11" cy="159" cx="222" class="H"/></g><g transform="matrix(1.71039 0 0 1.71039 -38 -85)"><circle r="17" cy="159" cx="222" class="B"/><circle r="11" cy="159" cx="222" class="H"/></g></g><path d="M74 235A114 114 0 0 0-40 350a114 114 0 1 0 228 0A114 114 0 0 0 74 235zm0 15a100 100 0 1 1 0 200 100 100 0 1 1 0-200z" class="T"/></g><g transform="matrix(.8761 0 0 .8761 -61 767)"><circle r="100" cy="93" cx="105" class="B"/><g transform="matrix(1.63466 0 0 1.63466 -306 -168)"><ellipse ry="52" rx="61" cx="252" cy="147" class="C"/><path d="M219 166a31 31 0 0 0 31 28 31 31 0 0 0 31-28z" class="B"/></g><path d="M103 128H62c9 14 25 23 41 23 17-1 32-10 41-23z" class="H"/><use xlink:href="#K" class="T"/></g><g transform="matrix(.8761 0 0 .8761 605 214)"><circle r="100" cy="415" cx="-189" class="B"/><use xlink:href="#K" x="-294" y="322" class="T"/><g transform="matrix(1.41266 0 0 1.41266 -545 175)" fill="red"><circle cx="252" cy="172" r="61" class="C"/><g transform="matrix(.91762 0 0 .91762 17 12)"><circle r="17" cy="159" cx="222" class="B"/><circle r="11" cy="159" cx="222" class="H"/></g><g transform="matrix(.89703 0 0 .89703 31 14)"><circle r="17" cy="158" cx="282" class="B"/><circle r="11" cy="158" cx="282" class="H"/></g><use xlink:href="#J" y="1" class="B"/></g><path d="M-175 422l-14 24-14-24z" class="B"/><path d="M-175 422h-28l14-24z" class="H"/></g><g transform="matrix(.8761 0 0 .8761 -32 38)"><circle r="100" cy="594" cx="-30" class="B"/><ellipse ry="95" rx="74" cy="604" cx="-33" class="C"/><use xlink:href="#K" x="-135" y="501" class="T"/><g transform="matrix(1.44053 0 0 1.94675 -397 255)"><ellipse ry="13" rx="6" cy="175" cx="211" class="B"/><ellipse ry="8" rx="4" cy="175" cx="211" class="H"/></g><rect ry="11" y="578" x="-31" height="54" width="21" class="H"/><ellipse ry="32" rx="9" cy="603" cx="-33" class="B"/></g><path d="M198 257a120 120 0 1 0 0 240 120 120 0 1 0 0-240zm0 14a105 105 0 0 1 105 106 105 105 0 1 1-210 0 105 105 0 0 1 105-106z" class="O"/></g><path d="M-1456 237h303v303h-303z" class="k"/><g transform="matrix(.55845 0 0 .57427 -1446 285)"><circle r="61" cy="172" cx="252" class="C"/><circle cx="222" cy="159" r="17" class="B"/><circle cx="222" cy="159" r="11" class="D"/><circle cx="282" cy="158" r="17" class="B"/><circle cx="282" cy="158" r="11" class="D"/><use xlink:href="#J" class="B"/></g><g transform="matrix(-.51078 .23215 .22575 .52525 -1123 -172)"><rect width="37" height="129" x="761" y="711" ry="17" class="C"/><use xlink:href="#F" class="D"/></g><g transform="matrix(.55461 .14091 -.12779 .54577 -1597 -116)"><rect width="37" height="129" x="761" y="711" ry="17" class="C"/><use xlink:href="#F" class="D"/></g><g transform="matrix(.55845 0 0 .57427 -1444 285)"><rect width="143" height="183" x="180" y="239" ry="52" class="C"/><use xlink:href="#E" class="H"/></g><g class="O"><path d="M-1306 365l-14-25h28z"/><circle cx="685" cy="728" r="88" transform="matrix(.5737 0 0 .44312 -1700 -20)"/></g><path d="M-1305 350l-15-25h29z" class="B"/><g transform="matrix(.40245 0 0 .41385 -1785 148)"><ellipse ry="77" rx="104" cx="1190" cy="373" class="B"/><g fill="red"><g transform="matrix(.40184 -.01422 .01463 .39077 1082 277)"><circle cx="252" cy="172" r="61" class="C"/><circle r="17" cy="159" cx="222" class="B"/><circle r="11" cy="159" cx="222" class="D"/><circle r="17" cy="158" cx="282" class="B"/><circle r="11" cy="158" cx="282" class="D"/><use xlink:href="#J" class="B"/></g><g transform="matrix(.40184 -.01422 -.01463 -.39077 845 710)"><rect ry="17" y="711" x="761" height="129" width="37" class="C"/><use xlink:href="#F" class="D"/></g><g transform="matrix(-.40184 .01422 -.01463 -.39077 1553 664)"><rect ry="17" y="711" x="761" height="129" width="37" class="C"/><use xlink:href="#F" class="D"/></g><g transform="matrix(.40184 -.01422 .01463 .39077 1082 277)"><rect ry="52" y="239" x="180" height="183" width="143" class="C"/><use xlink:href="#E" class="H"/></g></g></g><g fill="red"><g transform="matrix(.139837 -.139837 .139837 .139837 -1483.989645 365.332073)"><circle cx="252" cy="172" r="61" class="C"/><circle r="17" cy="159" cx="222" class="B"/><circle r="11" cy="159" cx="222" class="D"/><circle r="17" cy="158" cx="282" class="B"/><circle r="11" cy="158" cx="282" class="D"/><use xlink:href="#J" class="B"/></g><g transform="matrix(.139837 -.139837 -.139837 -.139837 -1420.274043 606.645703)"><rect ry="17" y="711" x="761" height="129" width="37" class="C"/><use xlink:href="#F" class="D"/></g><g transform="matrix(-.139837 .139837 -.139837 -.139837 -1171.359523 349.193001)"><rect ry="17" y="711" x="761" height="129" width="37" class="C"/><use xlink:href="#F" class="D"/></g><g transform="matrix(.139837 -.139837 .139837 .139837 -1483.989645 365.332073)"><rect ry="52" y="239" x="180" height="183" width="143" class="C"/><use xlink:href="#E" class="H"/></g><g transform="matrix(-.139837 -.139837 -.139837 .139837 -1148.389445 360.180892)"><circle cx="252" cy="172" r="61" class="C"/><circle r="17" cy="159" cx="222" class="B"/><circle r="11" cy="159" cx="222" class="D"/><circle r="17" cy="158" cx="282" class="B"/><circle r="11" cy="158" cx="282" class="D"/><use xlink:href="#J" class="B"/></g><g transform="matrix(-.139837 -.139837 .139837 -.139837 -1197.54181 587.961941)"><rect ry="17" y="711" x="761" height="129" width="37" class="C"/><use xlink:href="#F" class="D"/></g><g transform="matrix(.017236 .197007 .197007 -.017236 -1395.016435 215.990735)"><rect ry="17" y="711" x="761" height="129" width="37" class="C"/><use xlink:href="#F" class="D"/></g><g transform="matrix(-.139837 -.139837 -.139837 .139837 -1148.389445 360.180892)"><rect ry="52" y="239" x="180" height="183" width="143" class="C"/><use xlink:href="#E" class="H"/></g><g transform="matrix(-.11343 -.161996 .161996 -.11343 -1414.319022 507.752118)"><circle cx="252" cy="172" r="61" class="C"/><circle r="17" cy="159" cx="222" class="B"/><circle r="11" cy="159" cx="222" class="D"/><circle r="17" cy="158" cx="282" class="B"/><circle r="11" cy="158" cx="282" class="D"/><use xlink:href="#J" class="B"/></g><g transform="matrix(.177746 .086692 -.086692 .177746 -1462.427302 246.468578)"><rect ry="17" y="711" x="761" height="129" width="37" class="C"/><use xlink:href="#F" class="D"/></g><g transform="matrix(-.092843 -.174612 -.174612 .092843 -1201.259422 494.27781)"><rect ry="17" y="711" x="761" height="129" width="37" class="C"/><use xlink:href="#F" class="D"/></g><g transform="matrix(-.11343 -.161996 .161996 -.11343 -1414.319022 507.752118)"><rect ry="52" y="239" x="180" height="183" width="143" class="C"/><use xlink:href="#E" class="H"/></g><g transform="matrix(.11343 -.161996 -.161996 -.11343 -1198.215947 507.627142)"><circle cx="252" cy="172" r="61" class="C"/><circle r="17" cy="159" cx="222" class="B"/><circle r="11" cy="159" cx="222" class="D"/><circle r="17" cy="158" cx="282" class="B"/><circle r="11" cy="158" cx="282" class="D"/><use xlink:href="#J" class="B"/></g><g transform="matrix(.11343 -.161996 .161996 .11343 -1444.774993 486.613061)"><rect ry="17" y="711" x="761" height="129" width="37" class="C"/><use xlink:href="#F" class="D"/></g><g transform="matrix(-.11343 .161996 .161996 .11343 -1246.009592 201.840083)"><rect ry="17" y="711" x="761" height="129" width="37" class="C"/><use xlink:href="#F" class="D"/></g><g transform="matrix(.11343 -.161996 -.161996 -.11343 -1198.215947 507.627142)"><rect ry="52" y="239" x="180" height="183" width="143" class="C"/><use xlink:href="#E" class="H"/></g></g><g transform="matrix(.35698 0 0 .35698 -1693 167)"><path d="M1561 194h850v850h-850z" class="k"/><g fill="red"><g transform="matrix(1.20646 0 0 1.20646 1687 484)"><circle cx="252" cy="172" r="61" class="C"/><circle r="17" cy="159" cx="222" class="B"/><circle r="11" cy="156" cx="222" class="D"/><circle r="17" cy="158" cx="282" class="B"/><circle r="11" cy="154" cx="282" class="D"/><use xlink:href="#J" y="-5" class="B"/></g><g transform="matrix(1.20646 0 0 -1.20646 929 1793)"><rect ry="17" y="711" x="761" height="129" width="37" class="C"/><use xlink:href="#F" class="D"/></g><g transform="matrix(-1.20646 0 0 -1.20646 3050 1793)"><rect ry="17" y="711" x="761" height="129" width="37" class="C"/><use xlink:href="#F" class="D"/></g><g transform="matrix(1.20646 0 0 1.20646 1687 484)"><rect ry="52" y="239" x="180" height="183" width="143" class="C"/><use xlink:href="#E" class="H"/></g></g><rect ry="166" y="255" x="1576" height="333" width="828" class="O"/><rect ry="137" y="284" x="1611" height="275" width="757" class="B"/><path d="M1990 638l-36-61 71-1z" class="O"/><path d="M1990 602l-36-61 71-1z" class="B"/><g class="O"><circle cx="1760" cy="418" r="113"/><circle cx="2220" cy="425" r="113"/></g><circle r="88" cy="418" cx="1760" class="B"/><ellipse cy="428" cx="1758" rx="94" ry="79" class="C"/><circle r="30" cy="424" cx="1704" class="B"/><circle r="19" cy="424" cx="1704" class="D"/><circle r="30" cy="425" cx="1815" class="B"/><circle r="19" cy="425" cx="1815" class="D"/><path d="M1760 318a100 100 0 1 0 0 200 100 100 0 1 0 0-200zm0 12a88 88 0 0 1 87 88 88 88 0 0 1-87 88 88 88 0 1 1 0-176zm237 48v32h-103v37h103v33l88-51-88-51z" class="T"/><circle cx="2220" cy="425" r="88" class="B"/><path d="M2220 325a100 100 0 1 0 0 200 100 100 0 1 0 0-200zm0 13a88 88 0 0 1 87 87 88 88 0 0 1-87 88 88 88 0 0 1-88-88 88 88 0 0 1 88-87z" class="T"/><circle r="29" cy="382" cx="2217" class="C"/><g transform="matrix(.46844 0 0 .46844 2104 302)"><circle cx="222" cy="159" r="17" class="B"/><circle cx="222" cy="159" r="11" class="D"/><circle cx="282" cy="158" r="17" class="B"/><circle cx="282" cy="158" r="11" class="D"/></g><path d="M2214 392a9 9 0 1 0 18 0z" class="B"/><rect width="17" height="60" x="-2186" y="-431" ry="8" transform="scale(-1)" class="C"/><path d="M2172 430l4-59c-5 0-8 3-8 7v45c0 3 2 6 4 7z" class="D"/><rect width="17" height="60" x="1074" y="-2065" ry="8" transform="rotate(72)" class="C"/><path d="M2296 413l-58 14c1 4 6 7 10 5l43-13c2-1 4-3 5-6z" class="D"/><rect width="67" height="86" x="2184" y="413" ry="25" class="C"/><path d="M2184 434v40c0 14 11 25 24 25h18c14 0 25-11 25-25v-38a34 49 0 0 1-33 38 34 49 0 0 1-34-40z" class="H"/><path d="M1831 405s-30-5-33-42c0 0-8 42-28 41 0 0 24 14 27 45 0 0-1-45 34-44zm433 0s16-4 18-24c0 0 4 24 15 23 0 0-13 8-15 24 0 0 1-24-18-23z" class="G O"/></g><path d="M-172 232h-307v308h307z" class="l"/><g transform="matrix(.36224 0 0 .36224 -713 -249)" filter="url(#D)"><use xlink:href="#L" class="G M"/><rect ry="34" y="1790" x="727" height="73" width="647" class="J"/><use xlink:href="#M" class="G N"/><g class="J"><use xlink:href="#N"/><rect transform="rotate(341)" ry="21" y="1910" x="89" height="77" width="51"/></g><g class="B"><circle r="54" cy="1694" cx="827"/><rect transform="rotate(49)" rx="29" y="248" x="1878" height="136" width="58"/><rect transform="rotate(48)" rx="27" y="255" x="1967" height="129" width="55"/></g><use xlink:href="#O" class="J"/><circle r="41" cy="1694" cx="827" class="M"/><circle r="37" cy="1694" cx="827" class="B"/><use xlink:href="#P" class="G J"/><g class="B"><path d="M767 1790h369v19H767z"/><path d="M1184 1790h103v26h-103z"/></g><path d="M1354 1745l-48 62h50z" class="G J"/><use xlink:href="#Q" class="b"/></g><g transform="matrix(.36224 0 0 .36224 -680 -209)"><use xlink:href="#L" class="G M"/><rect ry="34" y="1790" x="727" height="73" width="647" class="J"/><use xlink:href="#M" class="G N"/><g class="J"><use xlink:href="#N"/><rect transform="rotate(341)" ry="21" y="1910" x="89" height="77" width="51"/></g><g class="B"><circle r="54" cy="1694" cx="827"/><rect transform="rotate(49)" rx="29" y="248" x="1878" height="136" width="58"/><rect transform="rotate(48)" rx="27" y="255" x="1967" height="129" width="55"/></g><use xlink:href="#O" class="J"/><circle r="41" cy="1694" cx="827" class="M"/><circle r="37" cy="1694" cx="827" class="B"/><use xlink:href="#P" class="G J"/><path d="M767 1790h369v19H767zm417 0h103v26h-103z" class="B"/><path d="M1354 1745l-48 62h50z" class="G J"/><use xlink:href="#Q" class="b"/></g><path d="M-476 335s30-6 33-42c0 0 7 42 27 40 0 0-24 15-26 45 0 0 0-45-34-43zm107-25s47-9 51-66c0 0 12 66 44 63 0 0-38 23-42 70 0 0 1-70-53-67z" class="B G"/><g transform="matrix(.36224 0 0 .36224 -719 -167)"><path d="M614 1102h-850v850h850z" class="l"/><rect ry="31" y="1142" x="-56" height="759" width="225" fill="#cabfa0"/><rect ry="15" y="1142" x="-56" height="759" width="32" class="c"/><use xlink:href="#R"/><use xlink:href="#S" fill="#b1a174"/><circle cx="59" cy="1370" r="100" fill="#ffbc03" stroke="#fff" stroke-width="7"/><circle cx="59" cy="1370" r="84" class="O"/><path d="M-24 1369a84 84 0 1 1 168-1" fill="#ffe7a6"/><use xlink:href="#T" fill="#6e6e6e"/><g class="c"><rect width="25" height="121" x="96" y="1150" ry="13"/><rect width="25" height="55" x="133" y="1221" ry="13"/></g><g class="B"><ellipse cx="59" cy="1302" rx="31" ry="11"/><ellipse cx="104" cy="1320" rx="14" ry="8"/><rect width="267" height="62" x="129" y="1348" ry="31"/></g><rect width="366" height="46" x="24" y="1355" ry="23" fill="#eaac00"/><use xlink:href="#U" class="O"/><circle r="39" cy="1370" cx="58" fill="#be8b00"/><use xlink:href="#V" class="M"/><use xlink:href="#W" class="N"/><use xlink:href="#X" class="B G"/></g><g transform="matrix(.36224 0 0 .36224 -719 -163)"><path d="M2408 1090h-850v850h850z" class="l"/><g transform="matrix(1.3372 0 0 1.3372 1661 1325)" fill="red"><circle cx="252" cy="172" r="61" class="M"/><circle r="17" cy="159" cx="222" class="B"/><circle r="11" cy="154" cx="222" class="N"/><circle r="17" cy="158" cx="282" class="B"/><circle r="11" cy="153" cx="282" class="N"/><use xlink:href="#J" class="B"/><g transform="matrix(1 0 0 -1 -628 1084)"><rect ry="17" y="711" x="761" height="129" width="37" class="M"/><use xlink:href="#F" class="N"/></g><g transform="rotate(180 565 542)"><rect ry="17" y="711" x="761" height="129" width="37" class="M"/><use xlink:href="#F" class="N"/></g><rect ry="52" y="239" x="180" height="183" width="143" class="M"/><use xlink:href="#E" class="N"/></g><g class="B"><path d="M1993 1219v33h-54v37h54v33l47-52-47-51z" stroke="#ffa6a6"/><circle r="101" cy="1588" cx="2263"/></g><circle cx="2263" cy="1588" r="89" class="m"/><g transform="scale(-1 1)"><rect y="1104" x="-1933" height="334" width="334" ry="79" class="B"/><rect ry="73" width="310" height="310" x="-1921" y="1116" class="m"/></g><g transform="matrix(.3646 0 0 .3646 1697 723)"><rect ry="31" y="1142" x="-56" height="759" width="225" fill="#cabfa0"/><rect ry="15" y="1142" x="-56" height="759" width="32" class="c"/><use xlink:href="#R"/><use xlink:href="#S" fill="#b1a174"/><circle cx="59" cy="1370" r="100" fill="#ffbc03" stroke="#fff" stroke-width="7"/><circle cx="59" cy="1370" r="84" class="O"/><path d="M-24 1369a84 84 0 1 1 168-1" fill="#ffe7a6"/><use xlink:href="#T" fill="#6e6e6e"/><g class="c"><rect width="25" height="121" x="96" y="1150" ry="13"/><rect width="25" height="55" x="133" y="1221" ry="13"/></g><g class="B"><ellipse cx="59" cy="1302" rx="31" ry="11"/><ellipse cx="104" cy="1320" rx="14" ry="8"/><rect width="267" height="62" x="129" y="1348" ry="31"/></g><rect width="366" height="46" x="24" y="1355" ry="23" fill="#eaac00"/><use xlink:href="#U" class="O"/><circle r="39" cy="1370" cx="58" fill="#be8b00"/><use xlink:href="#V" class="M"/><use xlink:href="#W" class="N"/><use xlink:href="#X" class="B G"/></g><rect y="1104" x="-2377" height="334" width="334" transform="scale(-1 1)" ry="79" class="B"/><g transform="matrix(.3647 0 0 .3647 1815 719)"><rect y="1088" x="-1508" height="850" width="850" transform="scale(-1 1)" ry="200" class="m"/><g transform="translate(26 -202)" filter="url(#D)"><use xlink:href="#L" class="G M"/><rect ry="34" y="1790" x="727" height="73" width="647" class="J"/><use xlink:href="#M" class="G N"/><g class="J"><use xlink:href="#N"/><rect transform="rotate(341)" ry="21" y="1910" x="89" height="77" width="51"/></g><g class="B"><circle r="54" cy="1694" cx="827"/><rect transform="rotate(49)" rx="29" y="248" x="1878" height="136" width="58"/><rect transform="rotate(48)" rx="27" y="255" x="1967" height="129" width="55"/></g><use xlink:href="#O" class="J"/><circle r="41" cy="1694" cx="827" class="M"/><circle r="37" cy="1694" cx="827" class="B"/><use xlink:href="#P" class="G J"/><g class="B"><path d="M767 1790h369v19H767z"/><path d="M1184 1790h103v26h-103z"/></g><path d="M1354 1745l-48 62h50z" class="G J"/><use xlink:href="#Q" class="b"/></g><use xlink:href="#L" x="65" y="-47" class="G M"/><rect ry="34" y="1743" x="792" height="73" width="647" class="J"/><use xlink:href="#M" x="65" y="-47" class="G N"/><g class="J"><use xlink:href="#N" x="65" y="-47"/><rect transform="matrix(.945519 -.325568 .325568 .945519 65 -47)" ry="21" y="1910" x="89" height="77" width="51"/></g><g class="B"><circle r="54" cy="1647" cx="892"/><rect transform="matrix(.656059 .75471 -.75471 .656059 65 -47)" rx="29" y="248" x="1878" height="136" width="58"/><rect transform="matrix(.669131 .743145 -.743145 .669131 65 -47)" rx="27" y="255" x="1967" height="129" width="55"/></g><use xlink:href="#O" x="65" y="-47" class="J"/><circle r="41" cy="1647" cx="892" class="M"/><circle r="37" cy="1647" cx="892" class="B"/><use xlink:href="#P" x="65" y="-47" class="G J"/><path d="M832 1743h369v19H832zm417 0h103v26h-103z" class="B"/><path d="M1419 1698l-48 62h50z" class="G J"/><use xlink:href="#Q" x="65" y="-47" class="b"/><path d="M672 1408s81-16 89-116c0 0 21 116 76 111 0 0-66 40-73 123 0 0 2-123-92-118zm454-110s129-25 142-182c0 0 32 182 119 175 0 0-104 62-115 192 0 0 2-192-146-185z" class="B G"/></g></g><text x="-1748" y="196" letter-spacing="0" class="E F T d"><tspan x="-1748" y="196" class="I">The Standard Habit Model</tspan></text><text x="-799" y="191" letter-spacing="0" fill="#ef0000" class="E F d"><tspan x="-799" y="191" class="I">Trigger Action Plans (TAPs)</tspan></text><text x="76" y="423" font-size="32" letter-spacing="0" class="B E F"><tspan x="76" y="423" class="I g">10x</tspan></text><text y="1578" x="-571" font-size="51" letter-spacing="0" class="E F W"><tspan y="1578" x="-571" class="I">1</tspan></text><text x="-282" y="1440" letter-spacing="0" fill-opacity="0" class="E F d"><tspan x="-282" y="1440" class="I">OR</tspan></text><text x="-282" y="1436" letter-spacing="0" class="B E F d"><tspan x="-282" y="1436" class="I">OR</tspan></text><text x="-200" y="1580" font-size="51" letter-spacing="0" class="E F Z"><tspan x="-200" y="1580" class="I">2</tspan></text><text x="-506" y="1176" font-size="47" letter-spacing="0" fill-opacity="0" class="E I"><tspan x="-506" y="1176">Can't get a habit to stick?</tspan></text><text x="-505" y="1173" font-size="47" letter-spacing="0" class="B E I"><tspan x="-505" y="1173">Can't get a habit to stick?</tspan></text><text x="-1704" y="645" font-size="46" letter-spacing="0" class="B E F"><tspan x="-1704" y="645" class="I">As habits get stronger and stronger...</tspan></text><text x="-1649" y="1064" font-size="46" letter-spacing="0" class="B E F"><tspan x="-1649" y="1064" class="I">intentions matter less and less</tspan></text><text x="-522" y="1570" font-size="32" letter-spacing="0" class="B E F"><tspan x="-522" y="1570" class="I">Forgot what to do</tspan></text><text x="-149" y="1573" font-size="32" letter-spacing="0" class="B E F"><tspan x="-149" y="1573" class="I">Don't want to do it</tspan></text></g></svg>