<svg xmlns="http://www.w3.org/2000/svg" viewBox="0 0 132.29 132.29"><style><![CDATA[.B{fill:#b30e0e}.C{fill:#7d0000}.D{fill:#ff3636}.E{fill:#e31212}.F{fill:#500101}.G{fill:#e41212}.H{fill:#ff797f}.I{fill:#f42929}.J{fill:#f36868}.K{fill:#fbd0d0}.L{fill-rule:evenodd}]]></style><g transform="matrix(.15857 .15316 -.15315 .15858 176.17 18.58)"><circle cx="-501.84" cy="-209.12" r="300" fill="#ff9c9c" opacity="1" transform="rotate(270)"/><path d="M-209.12 201.84A300 300 0 0 1 50.42 652.32a300 300 0 0 1-260.36 149.52" opacity="1" class="E"/><path d="M90.93 501.9a300 300 0 0 1-450.48 259.52 300 300 0 0 1-149.52-260.35" opacity="1" class="F"/><path d="M-209.12 802a300 300 0 0 1-299.99-301.11l300 1.1z" opacity="1" class="G"/><circle cx="-209.12" cy="501.84" r="275" fill="#fff" opacity="1"/></g><g class="L"><path d="M57.45 11l-18 4.93-10 13 14.93.94 18.28-4.93z" class="H"/><path d="M43.96 29.43l6.38 12.47 11.32.8L63.83 29l-1.16-4.06z" class="D"/><path d="M29.45 28.92l17.27-.22 5.22 11.9L29.9 29.57" class="I"/><path d="M29.45 28.92l-4.06 9.65.56 5.84-3.6 3.77 19.94 1.34 9.65-8.92z" class="J"/><path d="M43.52 48.87l8.42-8.27 9.72 2.1z" class="B"/><path d="M43.52 48.87l-4.64 7.9 1.6 4.94 18.57 3.2 3.62-5.8-1-16.4z" class="C"/><path d="M22.34 48.18l18.72 14.47 2.46-13.78z" class="D"/><path d="M22.34 48.18L18.2 60.9l.27 3.72 9 9.63 13.8-12.34z" class="C"/><path d="M18.48 64.63l-.15 14.5 9.3 7.12.43-12.48z" class="B"/><path d="M28.66 74.02L43.15 71l17.1-6.9-18.68-2.7zM43.15 71L43 93.24l7.48-6.53 10.07 1.9z" class="C"/><path d="M44.1 71.9l14.5-7.16 4.07-5.64 3.48 13.53-6.52 17.86z" class="B"/><path d="M27.2 85.8l15.94-1.08-15.1-10.95z" class="D"/><path d="M41.02 61.92L28.05 73.77l15.1 10.95.14-13.2z" class="B"/><path d="M34.02 43.52l17.92-2.92-8.42 8.27z" class="D"/><path d="M34.02 43.52l-4.57-14.6-4.06 9.65z" class="H"/><g class="B"><path d="M41.96 93.85l11.52-10.4 12.54 16.75-7.1-.25-13.5.58z"/><path d="M27.2 85.8l-2.78 13.53 14.08-4.8 4.93 5.8 1.18-2-1.47-13.62z"/></g><path d="M18.43 78.03l-.87 10.3 4.64 9.14 2.22 1.86L27.2 85.8zm6 21.3l14.8-6.46 5.4 5.47-6.6 13.94-8-5.3z" class="C"/><path fill="#680000" d="M37.55 111l2.03 5.5 9.58 4.8-.58-12.34-3.97-10.62L38 112z"/><path d="M44.6 98.34l12.87-3.1 8.54 4.95-10.28 12.32-9.3-7.98z" class="C"/><path d="M46.45 104.54l2.7 16.75 3.4-5.24 4.22.03 3.35-8.9z" class="F"/><path d="M29.45 28.92l10-13 7.26 12.77z" class="K"/><path d="M18.48 64.63l22.54-2.7-12.97 11.84z" class="E"/><path d="M43.52 48.87l15.6 15.1-18.1-2.04.76-3.26z" class="G"/><path d="M59.12 63.96l-5.64 19.5 12.54 16.75-5.3-22.83z" class="C"/><path d="M30.02 106.97l8.14 5.73 6.45-14.36z" class="F"/><path d="M38.4 101.98l6.2-3.64-5.4-5.47z" class="B"/><path fill="#ff9d9d" d="M60.56 19.4l-21.1-3.46 18-4.93z"/><path d="M46.72 28.7l5.22 11.9 9.72 2.1 1.2-7.63z" class="E"/><path d="M55.88 74.7c-1.5 3.24-2.4 8.74-2.4 8.74l8.68.1-3.04-19.6z" class="G"/><path d="M43.15 71l10.33 12.45 5.64-19.5z" class="D"/></g><path fill="#f33f3f" d="M25.4 38.57l.56 5.84-3.6 3.77 21.17.7z"/><path d="M43.14 84.72l-3.93 8.15 5.4 5.47-1.47-13.62" class="E"/><g class="L"><path d="M74.84 11l18 4.93 10 13-14.93.94-18.28-4.93z" class="J"/><path d="M88.33 29.43L81.95 41.9l-11.32.8L68.46 29l1.16-4.06z" class="D"/><path d="M102.84 28.92l-17.26-.22-5.23 11.9 22.05-11.03" class="I"/><path d="M102.84 28.92l4.06 9.65-.56 5.84 3.6 3.77L90 49.52l-9.65-8.92z" class="J"/><path d="M88.77 48.87l-8.42-8.27-9.72 2.1z" class="B"/><path d="M88.77 48.87l4.64 7.9-1.6 4.94-18.57 3.2-3.62-5.8 1-16.4z" class="C"/><path d="M109.95 48.18L91.23 62.65l-2.46-13.78z" class="D"/><path d="M109.95 48.18l4.13 12.73-.27 3.72-9 9.63-13.78-12.34z" class="C"/><path d="M113.8 64.63l.15 14.5-9.3 7.12-.43-12.48z" class="B"/><path d="M103.63 74.02L89.15 71l-17.1-6.9 18.67-2.7zM89.15 71l.14 22.23-7.48-6.53-3-3.25z" class="C"/><path d="M88.2 71.9l-14.5-7.16-4.07-5.64-3.47 13.53 6.5 17.86z" class="B"/><path d="M105.1 85.8l-15.94-1.08 15.1-10.95z" class="D"/><path d="M91.27 61.92l12.97 11.85-15.1 10.95-.14-13.2z" class="B"/><path d="M98.27 43.52L80.35 40.6l8.42 8.27z" class="D"/><path d="M98.27 43.52l4.57-14.6 4.06 9.65z" class="H"/><g class="B"><path d="M90.33 93.85L78.8 83.45 66.27 100.2l7.1-.25 13.5.58z"/><path d="M105.1 85.8l2.78 13.53-14.08-4.8-4.93 5.8-1.18-2 1.47-13.62z"/></g><path d="M113.87 78.03l.87 10.3-4.65 9.14-2.22 1.86-2.78-13.54z" class="C"/><g fill="#680000"><path d="M107.87 99.33l-14.8-6.46-5.4 5.47 6.6 13.94 8-5.3z"/><path d="M94.74 111l-2.03 5.5-9.58 4.8.58-12.34 3.97-10.62L94.3 112z"/></g><path d="M87.68 98.34l-12.88-3.1-8.54 4.95 10.28 12.32 9.3-7.98z" class="C"/><path d="M85.84 104.54l-2.7 16.75-3.4-5.24-4.23.03-3.35-8.9z" class="F"/><path d="M102.84 28.92l-10-13-7.25 12.77z" class="K"/><path d="M113.8 64.63l-22.54-2.7 12.97 11.84z" class="E"/><path d="M88.77 48.87l-15.6 15.1 18.1-2.04-.76-3.26z" class="G"/><path d="M73.17 63.96l5.64 19.5-12.54 16.75 5.3-22.83z" class="C"/><path d="M102.27 106.97l-8.14 5.73-6.45-14.36z" class="F"/><path d="M93.9 101.98l-6.2-3.64 5.4-5.47z" class="B"/><path fill="#ff9d9d" d="M71.73 19.4l21.1-3.46-18-4.93z"/><path d="M85.58 28.7l-5.23 11.9-9.72 2.1-1.2-7.63z" class="E"/><path d="M76.4 74.7c1.5 3.24 2.4 8.74 2.4 8.74l-8.68.1 3.04-19.6z" class="G"/><path d="M89.15 71L78.8 83.46l-5.64-19.5z" class="D"/></g><path fill="#f33f3f" d="M106.9 38.57l-.56 5.84 3.6 3.77-21.17.7z"/><path d="M89.15 84.72l3.93 8.15-5.4 5.47 1.47-13.62" class="E"/><path d="M60.56 19.4l5.54 2.76 5.63-2.76 3.1-8.4-8.54 5.7-8.85-5.7z" class="K"/><path d="M60.56 19.4l2.3 15.68 3.48 3.1 3.07-3.1 2.3-15.68-5.42-2.68z" class="I"/><path d="M66.15 72.63l-4 10.93L66 100.2h.25l3.86-16.64-3.98-10.93m.2-34.47l-3.48-3.1-1.2 7.64.72 16.64 3.77 13.3 3.7-13.23.8-16.7-1.22-7.64z" class="D"/><path fill="#e00d0d" d="M61.66 42.7l-18.14 6.17-21.18-.7L18.2 60.9l.27 3.72L27.2 85.8l15.94-1.07 22.88 15.48h.25l22.88-15.48 15.94 1.07 8.72-21.16.27-3.72-4.13-12.73-21.18.7-18.14-6.17z" opacity=".7"/><path d="M35.9 49.97l6 24.62h.14l6.08-24.62h8.55V83.5h-6.52v-9.74l.55-13.04-.14-.02-6.4 22.8H39.8l-6.34-22.62-.13.03.57 12.85v9.74h-6.5V49.97zm32.26 28.3H80.4v5.23H61.6V49.97h6.56zm36.74-28.3V72.8q0 5.37-3.16 8.3Q98.6 84 93.52 84q-5.1 0-8.25-2.93-3.13-2.93-3.13-8.27V49.97h6.54V72.8q0 3.06 1.27 4.5 1.27 1.46 3.57 1.46 2.37 0 3.62-1.4 1.24-1.38 1.24-4.58V49.97z" fill="#fff" letter-spacing="0" word-spacing="0"/></svg>