<svg xmlns="http://www.w3.org/2000/svg" viewBox="0 0 132.3 132.3"><style>.B{fill:#b30e0e}.C{fill:#7d0000}.D{fill:#ff3636}.E{fill:#e31212}.F{fill:#500101}.G{fill:#e41212}.H{fill:#ff797f}.I{fill:#f42929}.J{fill:#f36868}.K{fill:#fbd0d0}.L{fill-rule:evenodd}</style><g transform="matrix(.15857 .15316 -.15315 .15858 176.2 18.6)"><circle cx="-501.8" cy="-209.1" r="300" fill="#ff9c9c" transform="rotate(270)"/><path d="M-209.1 201.8A300 300 0 0150.4 652.3a300 300 0 01-260.3 149.5" class="E"/><path d="M91 501.9a300 300 0 01-450.6 259.5A300 300 0 01-509 501.1" class="F"/><path d="M-209.1 802a300 300 0 01-300-301.1l300 1z" class="G"/><circle cx="-209.1" cy="501.8" r="275" fill="#fff"/></g><g class="L"><path d="M57.5 11l-18 5-10 13 14.9.9 18.3-5z" class="H"/><path d="M44 29.4L50.3 42l11.4.8L63.8 29l-1.1-4z" class="D"/><path d="M29.4 29l17.3-.3L52 40.6l-22-11" class="I"/><path d="M29.4 29l-4 9.6.6 5.8-3.7 3.8 20 1.3 9.6-8.9z" class="J"/><path d="M43.5 48.9l8.4-8.3 9.8 2.1z" class="B"/><path d="M43.5 48.9L39 56.8l1.6 5 18.4 3 3.6-5.8-1-16.4z" class="C"/><path d="M22.3 48.2l18.8 14.4L43.5 49z" class="D"/><path d="M22.3 48.2l-4.1 12.7.3 3.7 9 9.7 13.8-12.4z" class="C"/><path d="M18.5 64.6l-.2 14.5 9.3 7.2.5-12.5z" class="B"/><path d="M28.7 74L43 71l17.1-6.9-18.6-2.7zM43 71v22.2l7.5-6.5 10 2z" class="C"/><path d="M44.1 71.9l14.5-7.2 4-5.6 3.6 13.5-6.6 17.9z" class="B"/><path d="M27.2 85.8l16-1-15.2-11z" class="D"/><path d="M41 62L28 73.7l15.2 11V71.4z" class="B"/><path d="M34 43.5l18-2.9-8.5 8.3z" class="D"/><path d="M34 43.5L29.5 29l-4.1 9.7z" class="H"/><g class="B"><path d="M42 93.8l11.5-10.4L66 100.2l-7-.3-13.6.6z"/><path d="M27.2 85.8l-2.8 13.5 14.1-4.8 5 5.8 1.1-2-1.5-13.6z"/></g><path d="M18.4 78l-.8 10.3 4.6 9.2 2.2 1.8 2.8-13.5zm6 21.3L39.2 93l5.4 5.4-6.6 14-8-5.3z" class="C"/><path fill="#680000" d="M37.5 111l2 5.5 9.7 4.8-.6-12.3-4-10.7L38 112z"/><path d="M44.6 98.3l12.9-3 8.5 4.9-10.3 12.3-9.3-8z" class="C"/><path d="M46.5 104.5l2.7 16.8 3.4-5.2h4.2l3.3-9z" class="F"/><path d="M29.4 29l10-13 7.3 12.7z" class="K"/><path d="M18.5 64.6L41 62 28 73.8z" class="E"/><path d="M43.5 48.9l15.6 15-18-2 .7-3.2z" class="G"/><path d="M59.1 64l-5.6 19.5L66 100.2l-5.3-22.8z" class="C"/><path d="M30 107l8.2 5.7 6.4-14.4z" class="F"/><path d="M38.4 102l6.2-3.7-5.4-5.4z" class="B"/><path fill="#ff9d9d" d="M60.6 19.4l-21.1-3.5 18-4.9z"/><path d="M46.7 28.7L52 40.6l9.8 2.1 1.2-7.6z" class="E"/><path d="M55.9 74.7c-1.5 3.2-2.4 8.7-2.4 8.7l8.7.1-3-19.6z" class="G"/><path d="M43.1 71l10.4 12.4L59 64z" class="D"/></g><path fill="#f33f3f" d="M25.4 38.6l.6 5.8-3.6 3.8 21.1.7z"/><path d="M43.1 84.7L39.2 93l5.4 5.4-1.5-13.6" class="E"/><g class="L"><path d="M74.8 11l18 5 10 13-14.9.9-18.3-5z" class="J"/><path d="M88.3 29.4L82 42l-11.4.8L68.5 29l1.1-4z" class="D"/><path d="M102.8 29l-17.2-.3-5.2 11.9 22-11" class="I"/><path d="M102.8 29l4.1 9.6-.6 5.8 3.6 3.8L90 49.5l-9.7-8.9z" class="J"/><path d="M88.8 48.9l-8.5-8.3-9.7 2.1z" class="B"/><path d="M88.8 48.9l4.6 7.9-1.6 5-18.6 3.1-3.6-5.8 1-16.4z" class="C"/><path d="M110 48.2L91.2 62.6 88.8 49z" class="D"/><path d="M110 48.2l4 12.7-.2 3.7-9 9.7L91 61.9z" class="C"/><path d="M113.8 64.6l.1 14.5-9.3 7.2-.4-12.5z" class="B"/><path d="M103.6 74l-14.4-3L72 64.1l18.6-2.7zm-14.4-3v22.2l-7.4-6.5-3-3.3z" class="C"/><path d="M88.2 71.9l-14.5-7.2-4-5.6-3.5 13.5 6.5 17.9z" class="B"/><path d="M105.1 85.8l-16-1 15.2-11z" class="D"/><path d="M91.3 62l13 11.8-15.2 11-.1-13.3z" class="B"/><path d="M98.3 43.5l-18-2.9 8.5 8.3z" class="D"/><path d="M98.3 43.5l4.5-14.6 4.1 9.7z" class="H"/><g class="B"><path d="M90.3 93.8L78.8 83.5l-12.5 16.7 7-.3 13.6.6z"/><path d="M105.1 85.8l2.8 13.5-14.1-4.8-5 5.8-1.1-2 1.5-13.6z"/></g><path d="M113.9 78l.8 10.3-4.6 9.2-2.2 1.8-2.8-13.5z" class="C"/><g fill="#680000"><path d="M107.9 99.3L93 93l-5.4 5.4 6.6 14 8-5.3z"/><path d="M94.7 111l-2 5.5-9.6 4.8.6-12.3 4-10.7 6.6 13.7z"/></g><path d="M87.7 98.3l-12.9-3-8.5 4.9 10.2 12.3 9.3-8z" class="C"/><path d="M85.8 104.5l-2.7 16.8-3.4-5.2h-4.2l-3.3-9z" class="F"/><path d="M102.8 29l-10-13-7.2 12.7z" class="K"/><path d="M113.8 64.6L91.3 62l13 11.9z" class="E"/><path d="M88.8 48.9l-15.6 15 18-2-.7-3.2z" class="G"/><path d="M73.2 64l5.6 19.5-12.5 16.7 5.3-22.8z" class="C"/><path d="M102.3 107l-8.2 5.7-6.4-14.4z" class="F"/><path d="M93.9 102l-6.2-3.7 5.4-5.4z" class="B"/><path fill="#ff9d9d" d="M71.7 19.4l21.1-3.5-18-4.9z"/><path d="M85.6 28.7l-5.2 11.9-9.8 2.1-1.2-7.6z" class="E"/><path d="M76.4 74.7a42 42 0 012.4 8.7l-8.7.1 3-19.6z" class="G"/><path d="M89.2 71L78.8 83.5 73.2 64z" class="D"/></g><path fill="#f33f3f" d="M106.9 38.6l-.6 5.8 3.6 3.8-21.1.7z"/><path d="M89.2 84.7L93 93l-5.4 5.4 1.5-13.6" class="E"/><path d="M60.6 19.4l5.5 2.8 5.6-2.8 3.1-8.4-8.5 5.7-8.9-5.7z" class="K"/><path d="M60.6 19.4l2.3 15.7 3.4 3 3.1-3 2.3-15.7-5.4-2.7z" class="I"/><path d="M66.2 72.6l-4 11 3.8 16.6h.3L70 83.6l-4-11m.2-34.4L63 35l-1.2 7.6.7 16.6L66 72.6l3.7-13.2.8-16.7-1.2-7.6z" class="D"/><path fill="#e00d0d" d="M61.7 42.7l-18.2 6.2-21.2-.7-4.1 12.7.3 3.7 8.7 21.2 16-1L66 100.1h.3L89 84.7l16 1.1 8.7-21.2.3-3.7-4.2-12.7-21.1.7-18.2-6.2z" opacity=".7"/><path d="M35.9 50l6 24.6h.1L48.1 50h8.6v33.5H50v-9.7l.6-13-.1-.1-6.4 22.8h-4.4l-6.3-22.6h-.2l.6 12.9v9.7h-6.5V50zm32.3 28.3h12.2v5.2H61.6V50h6.6zM104.9 50v22.8q0 5.4-3.2 8.3-3.1 2.9-8.2 2.9-5 0-8.2-3-3.2-2.9-3.2-8.2V50h6.6v22.8q0 3 1.3 4.5 1.2 1.5 3.5 1.5 2.4 0 3.6-1.4 1.3-1.4 1.3-4.6V50z" fill="#fff" letter-spacing="0" word-spacing="0"/></svg>