<svg xmlns="http://www.w3.org/2000/svg" viewBox="0 0 132.29 132.29"><g transform="matrix(.15857 .15316 -.15315 .15858 176.17 18.58)"><circle transform="rotate(-90)" r="300" cy="-209.12" cx="-501.84" opacity=".99" fill="#ff9c9c"/><path d="M-209.12 201.84A300 300 0 0 1 50.83 352.08a300 300 0 0 1-.41 300.24 300 300 0 0 1-260.36 149.52" opacity=".99" fill="#e31212"/><path d="M90.93 501.9A300 300 0 0 1-59.31 761.83a300 300 0 0 1-300.24-.41 300 300 0 0 1-149.52-260.35" opacity=".99" fill="#500101"/><path d="M-209.12 802a300 300 0 0 1-212.52-88.26 300 300 0 0 1-87.47-212.85l300 1.1z" opacity=".99" fill="#e41212"/><circle r="275" cy="501.84" cx="-209.12" opacity=".99" fill="#fff"/></g><path d="M57.45 11l-17.99 4.93-10 12.99 14.93.94 18.28-4.93z" fill="#ff797f" fill-rule="evenodd"/><path d="M43.96 29.43l6.38 12.47 11.32.8L63.83 29l-1.16-4.06z" fill="#ff3636" fill-rule="evenodd"/><path d="M29.45 28.92l17.27-.22 5.22 11.9-22.05-11.03" fill="#f42929" fill-rule="evenodd"/><path d="M29.45 28.92l-4.06 9.65.56 5.84-3.6 3.77 19.94 1.34 9.65-8.92z" fill="#f36868" fill-rule="evenodd"/><path d="M43.52 48.87l8.42-8.27 9.72 2.1z" fill="#b30e0e" fill-rule="evenodd"/><path d="M43.52 48.87l-4.64 7.9 1.6 4.94 18.57 3.19 3.62-5.8-1.01-16.4z" fill="#7d0000" fill-rule="evenodd"/><path d="M22.34 48.18l18.72 14.47 2.46-13.78z" fill="#ff3636" fill-rule="evenodd"/><path d="M22.34 48.18L18.21 60.9l.27 3.72 9.01 9.63 13.79-12.34z" fill="#7d0000" fill-rule="evenodd"/><path d="M18.48 64.63l-.15 14.5 9.29 7.12.43-12.48z" fill="#b30e0e" fill-rule="evenodd"/><path d="M28.66 74.02L43.15 71l17.1-6.91-18.68-2.7zM43.15 71L43 93.24l7.48-6.53 10.07 1.91z" fill="#7d0000" fill-rule="evenodd"/><path d="M44.1 71.9l14.5-7.16 4.07-5.64 3.48 13.53-6.52 17.86z" fill="#b30e0e" fill-rule="evenodd"/><path d="M27.2 85.8l15.94-1.08-15.09-10.95z" fill="#ff3636" fill-rule="evenodd"/><path d="M41.02 61.92L28.05 73.77l15.09 10.95.14-13.2z" fill="#b30e0e" fill-rule="evenodd"/><path d="M34.02 43.52l17.92-2.92-8.42 8.27z" fill="#ff3636" fill-rule="evenodd"/><path d="M34.02 43.52l-4.57-14.6-4.06 9.65z" fill="#ff797f" fill-rule="evenodd"/><path d="M41.96 93.85l11.52-10.4 12.54 16.75-7.09-.25-13.5.58z" fill="#b30e0e" fill-rule="evenodd"/><path d="M27.2 85.8l-2.78 13.53 14.08-4.79 4.93 5.8 1.18-2-1.47-13.62z" fill="#b30e0e" fill-rule="evenodd"/><path d="M18.43 78.03l-.87 10.3 4.64 9.14 2.22 1.86 2.78-13.54zM24.42 99.33l14.8-6.46 5.4 5.47-6.6 13.94-8-5.3z" fill="#7d0000" fill-rule="evenodd"/><path d="M37.55 111l2.03 5.5 9.58 4.8-.58-12.34-3.97-10.62L38 112.01z" fill="#680000" fill-rule="evenodd"/><path d="M44.61 98.34l12.87-3.09 8.54 4.95-10.28 12.32-9.29-7.98z" fill="#7d0000" fill-rule="evenodd"/><path d="M46.45 104.54l2.7 16.75 3.4-5.24 4.22.03 3.35-8.9z" fill="#500101" fill-rule="evenodd"/><path d="M29.45 28.92l10.01-12.99 7.26 12.77z" fill="#fbd0d0" fill-rule="evenodd"/><path d="M18.48 64.63l22.54-2.7-12.97 11.84z" fill="#e31212" fill-rule="evenodd"/><path d="M43.52 48.87l15.6 15.09-18.1-2.04.76-3.26z" fill="#e41212" fill-rule="evenodd"/><path d="M59.12 63.96l-5.64 19.49 12.54 16.75-5.3-22.83z" fill="#7d0000" fill-rule="evenodd"/><path d="M30.02 106.97l8.14 5.73 6.45-14.36z" fill="#500101" fill-rule="evenodd"/><path d="M38.4 101.98l6.21-3.64-5.4-5.47z" fill="#b30e0e" fill-rule="evenodd"/><path d="M60.56 19.39l-21.1-3.46 18-4.93z" fill="#ff9d9d" fill-rule="evenodd"/><path d="M46.72 28.7l5.22 11.9 9.72 2.1 1.21-7.63z" fill="#e31212" fill-rule="evenodd"/><path d="M55.88 74.71c-1.5 3.24-2.4 8.74-2.4 8.74l8.68.11-3.04-19.6z" fill="#e41212" fill-rule="evenodd"/><path d="M43.15 71l10.33 12.45 5.64-19.5z" fill="#ff3636" fill-rule="evenodd"/><path d="M25.39 38.57l.56 5.84-3.6 3.77 21.17.69z" fill="#f33f3f"/><path d="M43.14 84.72l-3.93 8.15 5.4 5.47-1.47-13.62" fill="#e31212"/><g><path d="M74.84 11l17.99 4.93 10 12.99-14.93.94-18.28-4.93z" fill="#f36868" fill-rule="evenodd"/><path d="M88.33 29.43L81.95 41.9l-11.32.8L68.46 29l1.16-4.06z" fill="#ff3636" fill-rule="evenodd"/><path d="M102.84 28.92l-17.26-.22-5.23 11.9 22.05-11.03" fill="#f42929" fill-rule="evenodd"/><path d="M102.84 28.92l4.06 9.65-.56 5.84 3.6 3.77L90 49.52l-9.65-8.92z" fill="#f36868" fill-rule="evenodd"/><path d="M88.77 48.87l-8.42-8.27-9.72 2.1z" fill="#b30e0e" fill-rule="evenodd"/><path d="M88.77 48.87l4.64 7.9-1.6 4.94-18.57 3.19-3.62-5.8 1.01-16.4z" fill="#7d0000" fill-rule="evenodd"/><path d="M109.95 48.18L91.23 62.65l-2.46-13.78z" fill="#ff3636" fill-rule="evenodd"/><path d="M109.95 48.18l4.13 12.73-.27 3.72-9.01 9.63-13.78-12.34z" fill="#7d0000" fill-rule="evenodd"/><path d="M113.81 64.63l.15 14.5-9.29 7.12-.43-12.48z" fill="#b30e0e" fill-rule="evenodd"/><path d="M103.63 74.02L89.15 71l-17.1-6.91 18.67-2.7zM89.15 71l.14 22.23-7.48-6.53-3-3.25z" fill="#7d0000" fill-rule="evenodd"/><path d="M88.2 71.9l-14.51-7.16-4.07-5.64-3.47 13.53 6.51 17.86z" fill="#b30e0e" fill-rule="evenodd"/><path d="M105.09 85.8l-15.94-1.08 15.09-10.95z" fill="#ff3636" fill-rule="evenodd"/><path d="M91.27 61.92l12.97 11.85-15.09 10.95-.14-13.2z" fill="#b30e0e" fill-rule="evenodd"/><path d="M98.27 43.52L80.35 40.6l8.42 8.27z" fill="#ff3636" fill-rule="evenodd"/><path d="M98.27 43.52l4.57-14.6 4.06 9.65z" fill="#ff797f" fill-rule="evenodd"/><path d="M90.33 93.85l-11.52-10.4-12.54 16.75 7.09-.25 13.5.58z" fill="#b30e0e" fill-rule="evenodd"/><path d="M105.09 85.8l2.78 13.53-14.08-4.79-4.93 5.8-1.18-2 1.47-13.62z" fill="#b30e0e" fill-rule="evenodd"/><path d="M113.87 78.03l.87 10.3-4.65 9.14-2.22 1.86-2.78-13.54z" fill="#7d0000" fill-rule="evenodd"/><path d="M107.87 99.33l-14.8-6.46-5.4 5.47 6.6 13.94 8-5.3z" fill="#680000" fill-rule="evenodd"/><path d="M94.74 111l-2.03 5.5-9.58 4.8.58-12.34 3.97-10.62 6.62 13.67z" fill="#680000" fill-rule="evenodd"/><path d="M87.68 98.34L74.8 95.25l-8.54 4.95 10.28 12.32 9.29-7.98z" fill="#7d0000" fill-rule="evenodd"/><path d="M85.84 104.54l-2.7 16.75-3.39-5.24-4.23.03-3.35-8.9z" fill="#500101" fill-rule="evenodd"/><path d="M102.84 28.92L92.83 15.93 85.58 28.7z" fill="#fbd0d0" fill-rule="evenodd"/><path d="M113.81 64.63l-22.54-2.7 12.97 11.84z" fill="#e31212" fill-rule="evenodd"/><path d="M88.77 48.87l-15.6 15.09 18.1-2.04-.76-3.26z" fill="#e41212" fill-rule="evenodd"/><path d="M73.17 63.96l5.64 19.49-12.54 16.75 5.3-22.83z" fill="#7d0000" fill-rule="evenodd"/><path d="M102.27 106.97l-8.14 5.73-6.45-14.36z" fill="#500101" fill-rule="evenodd"/><path d="M93.89 101.98l-6.21-3.64 5.4-5.47z" fill="#b30e0e" fill-rule="evenodd"/><path d="M71.73 19.39l21.1-3.46L74.84 11z" fill="#ff9d9d" fill-rule="evenodd"/><path d="M85.58 28.7l-5.23 11.9-9.72 2.1-1.21-7.63z" fill="#e31212" fill-rule="evenodd"/><path d="M76.41 74.71c1.5 3.24 2.4 8.74 2.4 8.74l-8.68.11 3.04-19.6z" fill="#e41212" fill-rule="evenodd"/><path d="M89.15 71L78.8 83.46l-5.64-19.5z" fill="#ff3636" fill-rule="evenodd"/><path d="M106.9 38.57l-.56 5.84 3.6 3.77-21.17.69z" fill="#f33f3f"/><path d="M89.15 84.72l3.93 8.15-5.4 5.47 1.47-13.62" fill="#e31212"/></g><path d="M60.56 19.39l5.54 2.76 5.63-2.76L74.84 11l-8.54 5.71L57.45 11z" fill="#fbd0d0"/><path d="M60.56 19.39l2.31 15.68 3.48 3.1 3.07-3.1 2.3-15.68-5.42-2.68z" fill="#f42929"/><path d="M66.15 72.63l-3.99 10.93 3.86 16.64h.25l3.86-16.64-3.98-10.93" fill="#ff3636"/><path d="M66.35 38.16l-3.48-3.1-1.21 7.64.72 16.64 3.77 13.3 3.69-13.23.8-16.7-1.22-7.64z" fill="#ff3636"/><path d="M61.66 42.7l-18.14 6.17-21.18-.7-4.13 12.74.27 3.72 8.72 21.16 15.94-1.07 22.88 15.48h.25l22.88-15.48 15.94 1.07 8.72-21.16.27-3.72-4.13-12.73-21.18.69-18.14-6.17z" opacity=".7" fill="#e00d0d"/><text style="line-height:1.25;-inkscape-font-specification:Helvetica" x="52.92" y="158.69" transform="matrix(.7499 0 0 .7499 -14.71 -35.5)" font-weight="400" font-size="62.9" font-family="Helvetica" letter-spacing="0" word-spacing="0" fill="#fff" stroke-width="1.57"><tspan x="52.92" y="158.69" style="-inkscape-font-specification:'Roboto Condensed, Bold Condensed'" font-weight="700" font-stretch="condensed" font-family="Roboto Condensed, Arial, Helvetica, sans-serif">MLU</tspan></text></svg>