<svg xmlns="http://www.w3.org/2000/svg" width="1500" height="1000" version="1"><g transform="matrix(.9875 0 0 .9875 561 -50)"><rect width="333" height="506" x="-63" y="51" ry="0" fill="#ffac91"/><g transform="matrix(.71377 0 0 .71377 -76 179)" fill="red"><circle cx="252" cy="172" r="61" fill="#2aa6ff"/><circle r="17" cy="159" cx="222" fill="#fff"/><circle r="11" cy="159" cx="222" fill="#006ebb"/><circle r="17" cy="158" cx="282" fill="#fff"/><circle r="11" cy="158" cx="282" fill="#006ebb"/><path d="M232 195a20 20 0 0 0 19 18 20 20 0 0 0 20-18z" fill="#fff"/><g transform="matrix(1 0 0 -1 -628 1084)"><rect ry="17" y="711" x="761" height="129" width="37" fill="#2aa6ff"/><path d="M790 713l-8 127c9 0 17-8 17-17v-96c0-6-4-11-9-14z" fill="#006ebb"/></g><g transform="rotate(180 565 542)"><rect ry="17" y="711" x="761" height="129" width="37" fill="#2aa6ff"/><path d="M790 713l-8 127c9 0 17-8 17-17v-96c0-6-4-11-9-14z" fill="#006ebb"/></g><g><rect ry="52" y="239" x="180" height="183" width="143" fill="#2aa6ff"/><path d="M181 284l-1 8v78c0 29 24 52 53 52h38c29 0 52-23 52-52v-78-5a73 104 0 0 1-71 82 73 104 0 0 1-71-85z" fill="#006ebb"/></g></g><path d="M104 127L73 258s23 31 60 1z" fill="#fff" fill-rule="evenodd"/></g><g transform="matrix(.9875 0 0 .9875 694 -46)"><rect width="353" height="506" x="464" y="47" ry="0" fill="#012b49"/><g transform="scale(.71377) rotate(62 433 882)" fill="red"><circle r="61" cy="172" cx="252" fill="#2aa6ff"/><circle cx="222" cy="159" r="17" fill="#006ebb"/><circle cx="222" cy="159" r="11" fill="#fff"/><circle cx="282" cy="158" r="17" fill="#006ebb"/><circle cx="282" cy="158" r="11" fill="#fff"/><path d="M267 205a20 20 5 0 0-17-20 20 20 5 0 0-21 16z" fill="#fff"/><g transform="scale(-1 1) rotate(33 1281 -1077)"><rect width="37" height="129" x="761" y="711" ry="17" fill="#2aa6ff"/><path d="M790 713l-8 127c9 0 17-8 17-17v-96c0-6-4-11-9-14z" fill="#006ebb"/></g><rect width="143" height="183" x="180" y="239" ry="52" fill="#2aa6ff"/><path d="M181 284l-1 8v78c0 29 24 52 53 52h38c29 0 52-23 52-52v-78-5a73 104 0 0 1-71 82 73 104 0 0 1-71-85z" fill="#006ebb"/><g transform="rotate(45 1251 3)"><rect ry="17" y="711" x="761" height="129" width="37" fill="#2aa6ff"/><path d="M790 713l-8 127c9 0 17-8 17-17v-96c0-6-4-11-9-14z" fill="#006ebb"/></g><path d="M13 198s-29 35-80 14c0 0 51 40 35 66 0 0 36-23 78-5 0 0-60-31-33-75zM437 443s9-31-24-53c0 0 44 14 52-6 0 0 2 31 29 48 0 0-42-23-57 11zM494 242s-28 14-71-26c0 0 41 54 24 67 0 0 34 0 70 33 0 0-50-52-23-74z" fill="#fffeff" fill-rule="evenodd"/></g></g><g transform="matrix(.9875 0 0 .9875 632 -50)"><rect width="353" height="506" x="191" y="51" ry="0" fill="#91d9ff"/><g fill="#fff"><path d="M367 189a115 115 0 0 0-115 115 115 115 0 0 0 115 115 115 115 0 0 0 115-115 115 115 0 0 0-115-115zm0 10a105 105 0 0 1 105 105 105 105 0 0 1-105 105 105 105 0 0 1-105-105 105 105 0 0 1 105-105z"/><path d="M427 207l9 6-123 189-9-6z"/></g></g><g transform="matrix(.41714 0 0 .41714 114 33)"><rect ry="0" y="-79" x="-273" height="1199" width="1199" fill="#7a0000"/><g transform="matrix(1.06532 0 0 1.06532 -9 -64)"><rect width="258" height="126" x="202" y="733" ry="36" transform="translate(-2 -28)"/><rect width="76" height="144" x="199" y="781" ry="38"/><rect ry="38" y="783" x="380" height="144" width="76"/><path d="M230 361l-307 89 46 187s90 25 84 25l111 3 9 63 88 107 141 1 88-107 10-68 129-10 75-27 45-191-328-72z"/><rect width="184" height="335" x="817" y="151" ry="77" transform="rotate(26)"/><path d="M697 511c-28 0-56 16-69 44l-80 163c-16 32-7 70 20 92l214-259c-7-8-15-14-24-19l-27-13c-11-5-23-8-34-8z" fill="#6f6f6f"/><g transform="matrix(-1 0 0 1 670 -12)"><rect width="184" height="335" x="817" y="151" ry="77" transform="rotate(26)"/><path d="M697 511c-28 0-56 16-69 44l-80 163c-16 32-7 70 20 92l214-259c-7-8-15-14-24-19l-27-13c-11-5-23-8-34-8z" fill="#6f6f6f"/></g><path d="M230 360l-307 89 31 128 378-161 382 165 34-149-327-72z" fill="#6f6f6f"/><path d="M170 128l-95 53-3 71 25 87 54 30c-2 8-3 17-3 25v95c0 65 53 91 118 91h137c65 0 117-26 117-91v-95c0-9-1-18-3-26l50-28 26-87-4-71-94-54 57 80-19 66-72 18c-17-10-37-15-58-15H266c-22 0-42 6-59 16l-76-20-19-65z" fill="#6f6f6f"/><path d="M170 130l-95 53-3 71 25 87 55 30c-2 8-3 17-3 25v95c0 65 52 61 117 61h138c64 0 117 4 117-61v-95c0-9-1-18-3-26l50-29 25-86-3-71-73-42c40 28 63 63 63 99 0 82-111 32-247 32S87 323 87 241c0-42 30-82 82-110z"/><g transform="matrix(1.7821 0 0 1.7821 -392 -203)"><circle r="47" cy="348" cx="354" fill="#fff"/><circle r="43" cy="348" cx="354" fill="#350f0f"/><circle r="38" cy="348" cx="354" fill="#fff"/><circle r="33" cy="348" cx="354"/><circle r="28" cy="348" cx="354" fill="#fff"/></g><g transform="matrix(1.7821 0 0 1.7821 -203 -204)"><circle r="47" cy="348" cx="354" fill="#fff"/><circle r="43" cy="348" cx="354" fill="#350f0f"/><circle r="38" cy="348" cx="354" fill="#fff"/><circle r="33" cy="348" cx="354"/><circle r="28" cy="348" cx="354" fill="#fff"/></g><path d="M186 514s147 67 269-10c-113 167-269 10-269 10z" fill="#fff" fill-rule="evenodd"/><g fill="red"><g transform="rotate(18 -1402 -611) scale(1.41145)"><circle cx="252" cy="172" r="61" fill="#ff5f76"/><circle r="17" cy="159" cx="222" fill="#a60017"/><circle r="11" cy="159" cx="222" fill="#fff"/><circle cx="282" cy="158" r="17" fill="#a60017"/><circle cx="282" cy="158" r="11" fill="#fff"/><path d="M232 206a20 20 0 0 1 19-18 20 20 0 0 1 20 18z" fill="#fff"/></g><path fill="#ff5f76" d="M-25 813l40 3-3 38-39-3z"/></g><g><g fill="red"><g transform="rotate(88 -104 400) scale(1.34168)"><circle cx="252" cy="172" r="61" fill="#2aa6ff"/><circle r="17" cy="159" cx="222" fill="#006ebb"/><circle r="11" cy="159" cx="222" fill="#fff"/></g><g transform="rotate(88 -104 400) scale(1.34168)"><circle r="17" cy="158" cx="282" fill="#006ebb"/><circle r="11" cy="158" cx="282" fill="#fff"/></g><path d="M39 866a26 27 81 0 0 19-30 26 27 81 0 0-28-22z" fill="#fff"/></g><path fill="#2aa6ff" d="M-21 878l36-15-15-35-36 15z"/></g><g><g fill="red"><g transform="scale(-1.34168 1.34168) rotate(88 -325 57)"><circle cx="252" cy="172" r="61" fill="#2aa6ff"/><circle r="17" cy="159" cx="222" fill="#006ebb"/><circle r="11" cy="159" cx="222" fill="#fff"/></g><g transform="scale(-1.34168 1.34168) rotate(88 -325 57)"><circle r="17" cy="158" cx="282" fill="#006ebb"/><circle r="11" cy="158" cx="282" fill="#fff"/></g><path d="M606 884a27 26 9 0 1-19-30 27 26 9 0 1 28-22z" fill="#fff"/></g><path fill="#2aa6ff" d="M665 896l-36-15 15-35 36 15z"/></g><rect ry="22" y="772" x="-59" height="146" width="71"/><g fill="red"><g transform="rotate(37 -332 939) scale(1.41145)"><circle cx="252" cy="172" r="61" fill="#ff5f76"/><circle r="17" cy="159" cx="222" fill="#a60017"/><circle r="11" cy="159" cx="222" fill="#fff"/><circle cx="282" cy="158" r="17" fill="#a60017"/><circle cx="282" cy="158" r="11" fill="#fff"/><path d="M232 206a20 20 0 0 1 19-18 20 20 0 0 1 20 18z" fill="#fff"/></g><path fill="#ff5f76" d="M586 852l36 15-15 35-36-15z"/></g><rect ry="22" y="786" x="637" height="146" width="71"/></g></g><g><g transform="translate(958 489)"><rect width="500" height="500" x="42" y="11" ry="0" fill="#ffcf53"/><g transform="translate(-16)"><g transform="matrix(.2986 0 0 .2986 582 217)"><circle r="581" cy="33" cx="-929" fill="#fff3d5"/><rect ry="36" y="748" x="-1556" height="126" width="258"/><rect ry="38" y="194" x="-1159" height="144" width="76"/><rect width="76" height="144" x="-1290" y="725" ry="38"/><g transform="rotate(39 -162 -1221)"><rect transform="rotate(26)" ry="77" y="151" x="817" height="335" width="184"/><path d="M697 511c-28 0-56 16-69 44l-80 163c-16 32-7 70 20 92l214-259c-7-8-15-14-24-19l-27-13c-11-5-23-8-34-8z" fill="#6f6f6f"/></g><g transform="scale(-1 1) rotate(22 1856 1959)"><rect transform="rotate(26)" ry="77" y="151" x="817" height="335" width="184"/><path d="M697 511c-28 0-56 16-69 44l-80 163c-16 32-7 70 20 92l214-259c-7-8-15-14-24-19l-27-13c-11-5-23-8-34-8z" fill="#6f6f6f"/></g><path d="M-1260 516l-207 243 141 131s89-29 84-26l94-58 43 47 132 41 118-77 15-138-30-62 102-79 49-64-69-184-312 120z"/><path d="M-1261 515l-207 244 97 89 226-343 410-73-53-143-313 120z" fill="#6f6f6f"/><rect width="71" height="146" x="-510" y="712" ry="22"/><rect transform="rotate(-16)" width="71" height="146" x="-1396" y="40" ry="22"/><g fill="red"><g transform="scale(1.61194 -1.61194) rotate(-43 -1030 2373)"><rect width="37" height="129" x="761" y="711" ry="17" fill="#ff5f76"/><path d="M790 713l-8 127c9 0 17-8 17-17v-96c0-6-4-11-9-14z" fill="#a60017"/></g><g transform="translate(-1565 -442) scale(1.61194)"><circle cx="252" cy="172" r="61" fill="#ff5f76"/><circle r="17" cy="159" cx="222" fill="#fff"/><circle r="11" cy="159" cx="222" fill="#a60017"/><circle cx="282" cy="158" r="17" fill="#fff"/><circle cx="282" cy="158" r="11" fill="#a60017"/><path d="M232 195a20 20 0 0 0 19 18 20 20 0 0 0 20-18z" fill="#fff"/></g><g transform="translate(-1565 -442) scale(1.61194)"><rect width="143" height="183" x="180" y="239" ry="52" fill="#ff5f76"/><path d="M181 284l-1 8v78c0 29 24 52 53 52h38c29 0 52-23 52-52v-78-5a73 104 0 0 1-71 82 73 104 0 0 1-71-85z" fill="#a60017"/></g><g transform="scale(1.61194 -1.61194) rotate(-63 -659 1643)"><rect ry="17" y="711" x="761" height="129" width="37" fill="#ff5f76"/><path d="M790 713l-8 127c9 0 17-8 17-17v-96c0-6-4-11-9-14z" fill="#a60017"/></g></g></g><g fill="red"><g transform="translate(222 135) scale(.48132)"><circle cx="252" cy="172" r="61" fill="#2aa6ff"/><circle r="17" cy="159" cx="222" fill="#fff"/><circle r="11" cy="159" cx="222" fill="#006ebb"/><circle r="17" cy="158" cx="282" fill="#fff"/><circle r="11" cy="158" cx="282" fill="#006ebb"/><path d="M232 195a20 20 0 0 0 19 18 20 20 0 0 0 20-18z" fill="#fff"/></g><g transform="scale(.48132 -.48132) rotate(-79 35 89)"><rect width="37" height="129" x="761" y="711" ry="17" fill="#2aa6ff"/><path d="M790 713l-8 127c9 0 17-8 17-17v-96c0-6-4-11-9-14z" fill="#006ebb"/></g><g transform="translate(222 135) scale(.48132)"><rect width="143" height="183" x="180" y="239" ry="52" fill="#2aa6ff"/><path d="M181 284l-1 8v78c0 29 24 52 53 52h38c29 0 52-23 52-52v-78-5a73 104 0 0 1-71 82 73 104 0 0 1-71-85z" fill="#006ebb"/></g><g><g transform="rotate(47 491 210) scale(.48132)"><rect ry="17" y="736" x="735" height="129" width="37" transform="scale(-1 1) rotate(88)" fill="#2aa6ff"/><path d="M717 783l128-4c-1 9-8 16-18 16l-95-3c-6 0-12-3-15-9z" fill="#006ebb"/></g></g></g><path d="M475 312l24 22-4 21-13 23-17 6-1 7-6 28c-5 19-21 23-40 19l-40-9c-19-4-33-15-29-34l6-28 3-7-13-12-1-27 5-20 31-10-22 20 2 20 19 10c6-2 12-2 18 0l40 8c7 2 12 5 16 9l24-1 10-18z" fill="#6f6f6f"/><path d="M475 313l24 21-4 21-13 24-18 5v8l-7 27c-4 19-19 15-38 11l-40-9c-19-5-34-7-30-26l6-27 3-8-13-11-2-27 6-21 24-7c-14 5-23 14-25 25-5 23 30 16 70 25 39 9 68 30 74 7 2-13-4-26-17-38z"/><g transform="scale(-.53213 .53213) rotate(30 -948 -1618)"><circle r="47" cy="348" cx="354" fill="#fff"/><circle r="43" cy="348" cx="354"/></g><g transform="scale(-.53213 .53213) rotate(-63 115 1398)"><circle r="47" cy="348" cx="354" fill="#fff"/><circle r="43" cy="348" cx="354"/></g><path d="M366 421s40-17 61 11c-20-42-61-11-61-11z" fill="#fff" fill-rule="evenodd"/><g><path fill="#fff" d="M439 270l-35-3-6 85 35 3z"/><path fill="#d1d1d1" d="M421 269l-18-1-5 85 18 1z"/><path fill="#c1541a" d="M451 265l-58-3-1 7 58 4z"/><g fill="#662c0e"><path d="M429 229h-11l-2 37h11z"/><path d="M425 210a10 10 0 0 1 9 11 10 10 0 0 1-10 9 10 10 0 0 1-10-10 10 10 0 0 1 11-10zm0 3a8 8 0 0 0-8 7 8 8 0 0 0 7 8 8 8 0 0 0 8-7 8 8 0 0 0-7-8z"/></g></g><path d="M393 350l41-2 4 8-32 13z" fill-rule="evenodd"/><rect ry="6" y="235" x="420" height="19" width="13" fill="#2aa6ff"/><circle r="5" cy="221" cx="424" fill="#2aa6ff"/><g transform="rotate(180 222 207)"><path fill="#fff" d="M274 153l-32 9-32-113 32-9z"/><path fill="#d1d1d1" d="M257 158l-18 5-37-130 19-5z"/><path fill="#c1541a" d="M287 155l-56 16-2-7 56-16z"/><path d="M220 29l22 11-17 6z" fill="#fff" fill-rule="evenodd"/><g fill="#662c0e"><path d="M273 195l-10 3-11-36 11-3z"/><path d="M273 214a10 10 0 0 0 7-12 10 10 0 0 0-12-7 10 10 0 0 0-7 12 10 10 0 0 0 12 7zm0-2a8 8 0 0 1-10-5 8 8 0 0 1 6-10 8 8 0 0 1 9 6 8 8 0 0 1-5 9z"/></g><path d="M198 17l22 12-18 5z" fill="#d1d1d1" fill-rule="evenodd"/><circle cx="271" cy="205" r="5" fill="#ff5f76"/></g></g></g><g transform="translate(594 507) scale(.45692)"><rect width="1094" height="1094" x="-207" y="-15" ry="0"/><g transform="translate(320 180) scale(1.45638)" fill="red"><rect ry="52" y="239" x="180" height="183" width="143" fill="#2aa6ff"/><path d="M181 284l-1 8v78c0 29 24 52 53 52h38c29 0 52-23 52-52v-78-5a73 104 0 0 1-71 82 73 104 0 0 1-71-85z" fill="#006ebb"/></g><g transform="rotate(168 1012 866) scale(1.45638)" fill="red"><rect width="37" height="129" x="761" y="711" ry="17" fill="#2aa6ff"/><path d="M790 713l-8 127c9 0 17-8 17-17v-96c0-6-4-11-9-14z" fill="#006ebb"/></g><path fill="#a60017" d="M137 424h397v17H137z"/><path fill="#2aa6ff" d="M332 399h17v57h-17z"/><path fill="#ff5f76" d="M316 399h17v57h-17z"/><path fill="#006ebb" d="M348 423h193v18H348z"/><path d="M310 351l22 45 21-45z" fill="#fff" fill-rule="evenodd"/><path fill="#00528d" d="M384 112h435v38H384z"/><path fill="#5b000d" d="M296 192h435v38H296z"/><path fill="#00528d" d="M121 32h435v38H121zM378 831h435v38H378z"/><path fill="#5b000d" d="M-54 744h435v38H-54z"/><path fill="#00528d" d="M11 606h435v38H11z"/><path fill="#5b000d" d="M-177 485h435v38h-435z"/><g fill="red"><g transform="translate(-367 180) scale(1.45638)"><circle r="61" cy="172" cx="252" fill="#ff5f76"/><circle cx="222" cy="159" r="17" fill="#fff"/><circle cx="222" cy="159" r="11" fill="#a60017"/><circle r="17" cy="158" cx="282" fill="#fff"/><circle r="11" cy="158" cx="282" fill="#a60017"/><path d="M269 217a20 20 12 0 0-16-22 20 20 12 0 0-23 14z" fill="#fff"/></g><g transform="scale(1.45638 -1.45638) rotate(-12 -5472 4386)"><rect width="37" height="129" x="761" y="711" ry="17" fill="#ff5f76"/><path d="M790 713l-8 127c9 0 17-8 17-17v-96c0-6-4-11-9-14z" fill="#a60017"/></g><g transform="translate(-367 180) scale(1.45638)"><rect ry="52" y="239" x="180" height="183" width="143" fill="#ff5f76"/><path d="M181 284l-1 8v78c0 29 24 52 53 52h38c29 0 52-23 52-52v-78-5a73 104 0 0 1-71 82 73 104 0 0 1-71-85z" fill="#a60017"/></g><g transform="rotate(56 1220 -72) scale(1.45638)"><rect width="37" height="129" x="761" y="711" ry="17" fill="#ff5f76"/><path d="M790 713l-8 127c9 0 17-8 17-17v-96c0-6-4-11-9-14z" fill="#a60017"/></g></g><path fill="#00528d" d="M380 482h435v38H380z"/><g transform="scale(-1.45638 1.45638) rotate(59 583 -415)" fill="red"><rect width="37" height="129" x="761" y="711" ry="17" fill="#2aa6ff"/><path d="M790 713l-8 127c9 0 17-8 17-17v-96c0-6-4-11-9-14z" fill="#006ebb"/></g><circle r="89" cy="431" cx="687" fill="#2aa6ff"/><g transform="translate(320 180) scale(1.45638)" fill="red"><circle cx="222" cy="159" r="17" fill="#fff"/><circle cx="222" cy="159" r="11" fill="#006ebb"/></g><g transform="translate(320 180) scale(1.45638)" fill="red"><circle r="17" cy="158" cx="282" fill="#fff"/><circle r="11" cy="158" cx="282" fill="#006ebb"/></g><path d="M717 479a29 29 70 0 0-35-15 29 29 70 0 0-18 35z" fill="#fff"/></g><g transform="matrix(.93085 0 0 .96419 3 -31)"><path fill="#91d9ff" d="M-3 551h269v519H-3z"/><path fill="#ff8e9e" d="M266 551h269v519H266z"/><g fill="red"><g transform="matrix(.71377 0 0 .71377 213 620)"><circle r="61" cy="172" cx="252" fill="#2aa6ff"/><circle cx="222" cy="159" r="17" fill="#fff"/><circle cx="222" cy="159" r="11" fill="#006ebb"/><circle cx="282" cy="158" r="17" fill="#fff"/><circle cx="282" cy="158" r="11" fill="#006ebb"/><path d="M232 195a20 20 0 0 0 19 18 20 20 0 0 0 20-18z" fill="#fff"/></g><g transform="scale(.71377 -.71377) rotate(-46 -1664 181)"><rect ry="17" y="711" x="761" height="129" width="37" fill="#2aa6ff"/><path d="M790 713l-8 127c9 0 17-8 17-17v-96c0-6-4-11-9-14z" fill="#006ebb"/></g><g transform="scale(.71377) rotate(89 533 888)"><rect ry="17" y="711" x="761" height="129" width="37" fill="#2aa6ff"/><path d="M790 713l-8 127c9 0 17-8 17-17v-96c0-6-4-11-9-14z" fill="#006ebb"/></g><g transform="matrix(.71377 0 0 .71377 213 620)"><rect ry="52" y="239" x="180" height="183" width="143" fill="#2aa6ff"/><path d="M181 284l-1 8v78c0 29 24 52 53 52h38c29 0 52-23 52-52v-78-5a73 104 0 0 1-71 82 73 104 0 0 1-71-85z" fill="#006ebb"/></g></g><g transform="matrix(.71377 0 0 .71377 -57 620)" fill="red"><circle r="61" cy="172" cx="252" fill="#ff5f76"/><circle cx="222" cy="159" r="17" fill="#fff"/><circle cx="222" cy="159" r="11" fill="#a60017"/><circle r="17" cy="158" cx="282" fill="#fff"/><circle r="11" cy="158" cx="282" fill="#a60017"/><path d="M232 195a20 20 0 0 0 19 18 20 20 0 0 0 20-18z" fill="#fff"/></g><g transform="scale(.71377 -.71377) rotate(-12 -8949 3188)" fill="red"><rect width="37" height="129" x="761" y="711" ry="17" fill="#ff5f76"/><path d="M790 713l-8 127c9 0 17-8 17-17v-96c0-6-4-11-9-14z" fill="#a60017"/></g><g transform="scale(.71377 -.71377) rotate(-24 -3822 1056)" fill="red"><rect ry="17" y="711" x="761" height="129" width="37" fill="#ff5f76"/><path d="M790 713l-8 127c9 0 17-8 17-17v-96c0-6-4-11-9-14z" fill="#a60017"/></g><g transform="matrix(.71377 0 0 .71377 -57 620)" fill="red"><rect ry="52" y="239" x="180" height="183" width="143" fill="#ff5f76"/><path d="M181 284l-1 8v78c0 29 24 52 53 52h38c29 0 52-23 52-52v-78-5a73 104 0 0 1-71 82 73 104 0 0 1-71-85z" fill="#a60017"/></g><g fill="red"><g transform="scale(.71377) rotate(37 -1046 1324)"><circle r="61" cy="172" cx="252" fill="#ff5f76"/><circle cx="222" cy="159" r="17" fill="#a60017"/><circle cx="222" cy="159" r="11" fill="#fff"/><circle r="17" cy="158" cx="282" fill="#a60017"/><circle r="11" cy="158" cx="282" fill="#fff"/><path d="M232 206a20 20 0 0 1 19-18 20 20 0 0 1 20 18z" fill="#fff"/></g><path fill="#ff5f76" d="M463 874l18 8-8 18-18-8z"/></g><rect transform="matrix(.71377 0 0 .71377 -57 620)" ry="9" y="278" x="501" height="69" width="26" fill="#a02c2c"/><path d="M81 622c-13 0-23 10-23 22v15c0 12 10 22 23 22h68l8 16 6-16c10-2 18-11 18-22v-15c0-12-10-22-23-22z" fill="#fff"/><rect width="14" height="22" x="300" y="841" ry="4" fill="#2aa6ff"/><rect width="14" height="22" x="803" y="-513" ry="4" transform="rotate(90)" fill="#2aa6ff"/><path d="M321 714c-2 5-22 116-22 116l22-6z" fill="#fff" fill-rule="evenodd"/><flowRoot xml:space="preserve" style="line-height:.01%;-inkscape-font-specification:Symbol" transform="translate(321 1000)" font-style="normal" font-variant="normal" font-weight="400" font-stretch="normal" font-family="Symbol" letter-spacing="0" word-spacing="0" fill="#fff" fill-opacity="1" stroke="none" stroke-width="1" stroke-linecap="butt" stroke-linejoin="miter" stroke-opacity="1"><flowRegion><path style="-inkscape-font-specification:Symbol" d="M-1-15h411v130H-1z"/></flowRegion><flowPara style="line-height:1.25;-inkscape-font-specification:'Roboto Slab'" font-style="normal" font-variant="normal" font-weight="400" font-stretch="normal" font-size="55" font-family="Roboto Slab" fill="#fff" fill-opacity="1">Inside</flowPara></flowRoot></g></g></svg>