<svg xmlns="http://www.w3.org/2000/svg" xmlns:xlink="http://www.w3.org/1999/xlink" width="1500" height="1000"><style><![CDATA[.B{fill:#fff}.C{fill:#006ebb}.D{fill:#2aa6ff}.E{fill:#a60017}.F{fill:#ff5f76}.G{fill-rule:evenodd}.H{fill:#6f6f6f}.I{fill:#00528d}.J{fill:#d1d1d1}.K{fill:#5b000d}]]></style><g transform="matrix(.9875 0 0 .9875 561 -50)"><path fill="#ffac91" d="M-63 51h333v506H-63z"/><g transform="matrix(.71377 0 0 .71377 -76 179)" fill="red"><circle cx="252" cy="172" r="61" class="D"/><circle r="17" cy="159" cx="222" class="B"/><circle r="11" cy="159" cx="222" class="C"/><circle r="17" cy="158" cx="282" class="B"/><circle r="11" cy="158" cx="282" class="C"/><use xlink:href="#B" class="B"/><g transform="matrix(1 0 0 -1 -628 1084)"><rect ry="17" y="711" x="761" height="129" width="37" class="D"/><use xlink:href="#C" class="C"/></g><g transform="rotate(180 565 542)"><rect ry="17" y="711" x="761" height="129" width="37" class="D"/><use xlink:href="#C" class="C"/></g><rect ry="52" y="239" x="180" height="183" width="143" class="D"/><use xlink:href="#D" class="C"/></g><path d="M104 127L73 258s23 31 60 1z" class="B G"/></g><g transform="matrix(.9875 0 0 .9875 694 -46)"><path fill="#012b49" d="M464 47h353v506H464z"/><g transform="matrix(.335095 .630222 -.630222 .335095 719.821763 61.105688)" fill="red"><circle r="61" cy="172" cx="252" class="D"/><circle cx="222" cy="159" r="17" class="C"/><circle cx="222" cy="159" r="11" class="B"/><circle cx="282" cy="158" r="17" class="C"/><g class="B"><circle cx="282" cy="158" r="11"/><path d="M267 205a20 20 5 0 0-17-20 20 20 5 0 0-21 16z"/></g><g transform="matrix(-.838671 .544639 .544639 .838671 379.913238 -871.434402)"><rect width="37" height="129" x="761" y="711" ry="17" class="D"/><use xlink:href="#C" class="C"/></g><rect width="143" height="183" x="180" y="239" ry="52" class="D"/><use xlink:href="#D" class="C"/><g transform="rotate(45 1251 3)"><rect ry="17" y="711" x="761" height="129" width="37" class="D"/><use xlink:href="#C" class="C"/></g><path d="M13 198s-29 35-80 14c0 0 51 40 35 66 0 0 36-23 78-5 0 0-60-31-33-75zm424 245s9-31-24-53c0 0 44 14 52-6 0 0 2 31 29 48 0 0-42-23-57 11zm57-201s-28 14-71-26c0 0 41 54 24 67 0 0 34 0 70 33 0 0-50-52-23-74z" fill="#fffeff" class="G"/></g></g><g transform="matrix(.9875 0 0 .9875 632 -50)"><path fill="#91d9ff" d="M191 51h353v506H191z"/><g class="B"><path d="M367 189a115 115 0 1 0 0 230 115 115 0 1 0 0-230zm0 10a105 105 0 1 1 0 210 105 105 0 1 1 0-210z"/><path d="M427 207l9 6-123 189-9-6z"/></g></g><g transform="matrix(.41714 0 0 .41714 114 33)"><path fill="#7a0000" d="M-273-79H926v1199H-273z"/><g transform="matrix(1.06532 0 0 1.06532 -9 -64)"><rect width="258" height="126" x="200" y="705" ry="36"/><rect width="76" height="144" x="199" y="781" ry="38"/><rect ry="38" y="783" x="380" height="144" width="76"/><path d="M230 361l-307 89 46 187s90 25 84 25l111 3 9 63 88 107 141 1 88-107 10-68 129-10 75-27 45-191-328-72z"/><rect width="184" height="335" x="817" y="151" ry="77" transform="rotate(26)"/><use xlink:href="#E" class="H"/><g transform="matrix(-1 0 0 1 670 -12)"><rect width="184" height="335" x="817" y="151" ry="77" transform="rotate(26)"/><use xlink:href="#E" class="H"/></g><g class="H"><path d="M230 360l-307 89 31 128 378-161 382 165 34-149-327-72z"/><path d="M170 128l-95 53-3 71 25 87 54 30c-2 8-3 17-3 25v95c0 65 53 91 118 91h137c65 0 117-26 117-91v-95c0-9-1-18-3-26l50-28 26-87-4-71-94-54 57 80-19 66-72 18c-17-10-37-15-58-15H266c-22 0-42 6-59 16l-76-20-19-65z"/></g><path d="M170 130l-95 53-3 71 25 87 55 30c-2 8-3 17-3 25v95c0 65 52 61 117 61h138c64 0 117 4 117-61v-95c0-9-1-18-3-26l50-29 25-86-3-71-73-42c40 28 63 63 63 99 0 82-111 32-247 32S87 323 87 241c0-42 30-82 82-110z"/><g transform="matrix(1.7821 0 0 1.7821 -392 -203)"><circle r="47" cy="348" cx="354" class="B"/><circle r="43" cy="348" cx="354" fill="#350f0f"/><circle r="38" cy="348" cx="354" class="B"/><circle r="33" cy="348" cx="354"/><circle r="28" cy="348" cx="354" class="B"/></g><g transform="matrix(1.7821 0 0 1.7821 -203 -204)"><circle r="47" cy="348" cx="354" class="B"/><circle r="43" cy="348" cx="354" fill="#350f0f"/><circle r="38" cy="348" cx="354" class="B"/><circle r="33" cy="348" cx="354"/><circle r="28" cy="348" cx="354" class="B"/></g><path d="M186 514s147 67 269-10c-113 167-269 10-269 10z" class="B G"/><g fill="red"><g transform="matrix(1.342369 .436162 -.436162 1.342369 -257.428148 403.337358)"><circle cx="252" cy="172" r="61" class="F"/><circle r="17" cy="159" cx="222" class="E"/><circle r="11" cy="159" cx="222" class="B"/><circle cx="282" cy="158" r="17" class="E"/><g class="B"><circle cx="282" cy="158" r="11"/><path d="M232 206a20 20 0 0 1 19-18 20 20 0 0 1 20 18z"/></g></g><path d="M-25 813l40 3-3 38-39-3z" class="F"/><g transform="matrix(.046824 1.340863 -1.340863 .046824 299.385878 489.976847)"><circle cx="252" cy="172" r="61" class="D"/><circle r="17" cy="159" cx="222" class="C"/><circle r="11" cy="159" cx="222" class="B"/><circle r="17" cy="158" cx="282" class="C"/><circle r="11" cy="158" cx="282" class="B"/></g><path d="M39 866a26 27 81 0 0 19-30 26 27 81 0 0-28-22z" class="B"/></g><path d="M-21 878l36-15-15-35-36 15z" class="D"/><g fill="red"><g transform="matrix(-.046824 1.340863 1.340863 .046824 344.399041 509.587167)"><circle cx="252" cy="172" r="61" class="D"/><circle r="17" cy="159" cx="222" class="C"/><circle r="11" cy="159" cx="222" class="B"/><circle r="17" cy="158" cx="282" class="C"/><circle r="11" cy="158" cx="282" class="B"/></g><path d="M606 884a27 26 9 0 1-19-30 27 26 9 0 1 28-22z" class="B"/></g><path d="M665 896l-36-15 15-35 36 15z" class="D"/><rect ry="22" y="772" x="-59" height="146" width="71"/><g fill="red"><g transform="matrix(1.127234 .849432 -.849432 1.127234 498.251296 388.883844)"><circle cx="252" cy="172" r="61" class="F"/><circle r="17" cy="159" cx="222" class="E"/><circle r="11" cy="159" cx="222" class="B"/><circle cx="282" cy="158" r="17" class="E"/><g class="B"><circle cx="282" cy="158" r="11"/><path d="M232 206a20 20 0 0 1 19-18 20 20 0 0 1 20 18z"/></g></g><path d="M586 852l36 15-15 35-36-15z" class="F"/></g><rect ry="22" y="786" x="637" height="146" width="71"/></g></g><path fill="#ffcf53" d="M1000 500h500v500h-500z"/><g transform="matrix(.2986 0 0 .2986 1524 706)"><circle r="581" cy="33" cx="-929" fill="#fff3d5"/><rect ry="36" y="748" x="-1556" height="126" width="258"/><rect ry="38" y="194" x="-1159" height="144" width="76"/><rect width="76" height="144" x="-1290" y="725" ry="38"/><g transform="rotate(39 -162 -1221)"><rect transform="rotate(26)" ry="77" y="151" x="817" height="335" width="184"/><use xlink:href="#E" class="H"/></g><g transform="matrix(-.927184 .374607 .374607 .927184 -869.001082 -552.623008)"><rect transform="rotate(26)" ry="77" y="151" x="817" height="335" width="184"/><use xlink:href="#E" class="H"/></g><path d="M-1260 516l-207 243 141 131s89-29 84-26l94-58 43 47 132 41 118-77 15-138-30-62 102-79 49-64-69-184-312 120z"/><path d="M-1261 515l-207 244 97 89 226-343 410-73-53-143-313 120z" class="H"/><rect width="71" height="146" x="-510" y="712" ry="22"/><rect transform="rotate(344)" width="71" height="146" x="-1396" y="40" ry="22"/><g fill="red"><g transform="matrix(1.178898 1.09934 1.09934 -1.178898 -3054.767821 104.712662)"><rect width="37" height="129" x="761" y="711" ry="17" class="F"/><use xlink:href="#C" class="E"/></g><g transform="matrix(1.61194 0 0 1.61194 -1565 -442)"><circle cx="252" cy="172" r="61" class="F"/><circle r="17" cy="159" cx="222" class="B"/><circle r="11" cy="159" cx="222" class="E"/><circle cx="282" cy="158" r="17" class="B"/><circle cx="282" cy="158" r="11" class="E"/><use xlink:href="#B" class="B"/><rect width="143" height="183" x="180" y="239" ry="52" class="F"/><use xlink:href="#D" class="E"/></g><g transform="matrix(.731805 1.436249 1.436249 -.731805 -2939.765871 -499.572944)"><rect ry="17" y="711" x="761" height="129" width="37" class="F"/><use xlink:href="#C" class="E"/></g></g></g><g fill="red"><g transform="matrix(.48132 0 0 .48132 1164 624)"><circle cx="252" cy="172" r="61" class="D"/><circle r="17" cy="159" cx="222" class="B"/><circle r="11" cy="159" cx="222" class="C"/><circle r="17" cy="158" cx="282" class="B"/><circle r="11" cy="158" cx="282" class="C"/><use xlink:href="#B" class="B"/></g><g transform="matrix(.09184 .472477 .472477 -.09184 913.581359 437.799609)"><rect width="37" height="129" x="761" y="711" ry="17" class="D"/><use xlink:href="#C" class="C"/></g><g transform="matrix(.48132 0 0 .48132 1164 624)"><rect width="143" height="183" x="180" y="239" ry="52" class="D"/><use xlink:href="#D" class="C"/></g><g transform="matrix(.328259 .352015 -.352015 .328259 1251.723083 196.685677)"><rect ry="17" y="736" x="735" height="129" width="37" transform="matrix(-.034899 .999391 .999391 .034899 0 0)" class="D"/><path d="M717 783l128-4c-1 9-8 16-18 16l-95-3c-6 0-12-3-15-9z" class="C"/></g></g><path d="M1417 801l24 22-4 21-13 23-17 6-1 7-6 28c-5 19-21 23-40 19l-40-9c-19-4-33-15-29-34l6-28 3-7-13-12-1-27 5-20 31-10-22 20 2 20 19 10c6-2 12-2 18 0l40 8c7 2 12 5 16 9l24-1 10-18z" class="H"/><path d="M1417 802l24 21-4 21-13 24-18 5v8l-7 27c-4 19-19 15-38 11l-40-9c-19-5-34-7-30-26l6-27 3-8-13-11-2-27 6-21 24-7c-14 5-23 14-25 25-5 23 30 16 70 25 39 9 68 30 74 7 2-13-4-26-17-38z"/><g transform="matrix(-.460838 .266065 .266065 .460838 1440.077893 625.879323)"><circle r="47" cy="348" cx="354" class="B"/><circle r="43" cy="348" cx="354"/></g><g transform="matrix(-.241582 -.474131 -.474131 .241582 1571.422536 949.711253)"><circle r="47" cy="348" cx="354" class="B"/><circle r="43" cy="348" cx="354"/></g><g class="B"><path d="M1308 910s40-17 61 11c-20-42-61-11-61-11z" class="G"/><path d="M1381 759l-35-3-6 85 35 3z"/></g><path d="M1363 758l-18-1-5 85 18 1z" class="J"/><path fill="#c1541a" d="M1393 754l-58-3-1 7 58 4z"/><g fill="#662c0e"><path d="M1371 718h-11l-2 37h11z"/><path d="M1367 699a10 10 0 0 1 9 11 10 10 0 0 1-10 9c-5.523 0-10-4.477-10-10a10 10 0 0 1 11-10zm0 3a8 8 0 0 0-8 7 8 8 0 0 0 7 8 8 8 0 0 0 8-7 8 8 0 0 0-7-8z"/></g><path d="M1335 839l41-2 4 8-32 13z" class="G"/><g class="D"><rect ry="6" y="724" x="1362" height="19" width="13"/><circle r="5" cy="710" cx="1366"/></g><g transform="matrix(-1 0 0 -1 1386 903)"><path d="M274 153l-32 9-32-113 32-9z" class="B"/><path d="M257 158l-18 5-37-130 19-5z" class="J"/><path fill="#c1541a" d="M287 155l-56 16-2-7 56-16z"/><path d="M220 29l22 11-17 6z" class="B G"/><g fill="#662c0e"><path d="M273 195l-10 3-11-36 11-3z"/><path d="M273 214a10 10 0 0 0 7-12 10 10 0 0 0-12-7 10 10 0 0 0-7 12 10 10 0 0 0 12 7zm0-2a8 8 0 0 1-10-5 8 8 0 0 1 6-10 8 8 0 0 1 9 6 8 8 0 0 1-5 9z"/></g><path d="M198 17l22 12-18 5z" class="G J"/><circle cx="271" cy="205" r="5" class="F"/></g><g transform="matrix(.45692 0 0 .45692 594 507)"><path d="M-207-15H887v1094H-207z"/><g transform="matrix(1.45638 0 0 1.45638 320 180)"><rect ry="52" y="239" x="180" height="183" width="143" class="D"/><use xlink:href="#D" class="C"/></g><g transform="matrix(-1.424555 .302798 -.302798 -1.424555 2181.936896 1502.669191)"><rect width="37" height="129" x="761" y="711" ry="17" class="D"/><use xlink:href="#C" class="C"/></g><path d="M137 424h397v17H137z" class="E"/><path d="M332 399h17v57h-17z" class="D"/><path d="M316 399h17v57h-17z" class="F"/><path d="M348 423h193v18H348z" class="C"/><path d="M310 351l22 45 21-45z" class="B G"/><path d="M384 112h435v38H384z" class="I"/><path d="M296 192h435v38H296z" class="K"/><path d="M121 32h435v38H121zM378 831h435v38H378z" class="I"/><path d="M-54 744h435v38H-54z" class="K"/><path d="M11 606h435v38H11z" class="I"/><path d="M-177 485h435v38h-435z" class="K"/><g fill="red"><g transform="matrix(1.45638 0 0 1.45638 -367 180)"><circle r="61" cy="172" cx="252" class="F"/><circle cx="222" cy="159" r="17" class="B"/><circle cx="222" cy="159" r="11" class="E"/><circle r="17" cy="158" cx="282" class="B"/><circle r="11" cy="158" cx="282" class="E"/><path d="M269 217a20 20 12 0 0-16-22 20 20 12 0 0-23 14z" class="B"/></g><g transform="matrix(1.424555 .302798 .302798 -1.424555 -1502.22248 1517.326807)"><rect width="37" height="129" x="761" y="711" ry="17" class="F"/><use xlink:href="#C" class="E"/></g><g transform="matrix(1.45638 0 0 1.45638 -367 180)"><rect ry="52" y="239" x="180" height="183" width="143" class="F"/><use xlink:href="#D" class="E"/></g><g transform="matrix(.814397 1.207394 -1.207394 .814397 478.093953 -1043.163949)"><rect width="37" height="129" x="761" y="711" ry="17" class="F"/><use xlink:href="#C" class="E"/></g></g><path d="M380 482h435v38H380z" class="I"/><g transform="matrix(-.750091 1.248361 1.248361 .750091 106.303546 -1020.904518)"><rect width="37" height="129" x="761" y="711" ry="17" class="D"/><use xlink:href="#C" class="C"/></g><circle r="89" cy="431" cx="687" class="D"/><g transform="matrix(1.45638 0 0 1.45638 320 180)"><circle cx="222" cy="159" r="17" class="B"/><circle cx="222" cy="159" r="11" class="C"/><circle r="17" cy="158" cx="282" class="B"/><circle r="11" cy="158" cx="282" class="C"/></g><path d="M717 479a29 29 70 0 0-35-15 29 29 70 0 0-18 35z" class="B"/></g><g transform="matrix(.93085 0 0 .96419 3 -31)"><path fill="#91d9ff" d="M-3 551h269v519H-3z"/><path fill="#ff8e9e" d="M266 551h269v519H266z"/><g fill="red"><g transform="matrix(.71377 0 0 .71377 213 620)"><circle r="61" cy="172" cx="252" class="D"/><circle cx="222" cy="159" r="17" class="B"/><circle cx="222" cy="159" r="11" class="C"/><circle cx="282" cy="158" r="17" class="B"/><circle cx="282" cy="158" r="11" class="C"/><use xlink:href="#B" class="B"/></g><g transform="matrix(.495826 .513443 .513443 -.495826 -455.591522 814.921625)"><rect ry="17" y="711" x="761" height="129" width="37" class="D"/><use xlink:href="#C" class="C"/></g><g transform="matrix(.012457 .713661 -.713661 .012457 1007.531052 242.384473)"><rect ry="17" y="711" x="761" height="129" width="37" class="D"/><use xlink:href="#C" class="C"/></g><g transform="matrix(.71377 0 0 .71377 213 620)"><rect ry="52" y="239" x="180" height="183" width="143" class="D"/><use xlink:href="#D" class="C"/></g></g><g transform="matrix(.71377 0 0 .71377 -57 620)"><circle r="61" cy="172" cx="252" class="F"/><circle cx="222" cy="159" r="17" class="B"/><circle cx="222" cy="159" r="11" class="E"/><circle r="17" cy="158" cx="282" class="B"/><circle r="11" cy="158" cx="282" class="E"/><use xlink:href="#B" class="B"/></g><g transform="matrix(.698172 .148401 .148401 -.698172 -612.685601 1278.316583)"><rect width="37" height="129" x="761" y="711" ry="17" class="F"/><use xlink:href="#C" class="E"/></g><g transform="matrix(.652061 .290316 .290316 -.652061 -542.424626 1044.42499)"><rect ry="17" y="711" x="761" height="129" width="37" class="F"/><use xlink:href="#C" class="E"/></g><g transform="matrix(.71377 0 0 .71377 -57 620)"><rect ry="52" y="239" x="180" height="183" width="143" class="F"/><use xlink:href="#D" class="E"/></g><g fill="red"><g transform="matrix(.570042 .429558 -.429558 .570042 418.394725 639.612936)"><circle r="61" cy="172" cx="252" class="F"/><circle cx="222" cy="159" r="17" class="E"/><circle cx="222" cy="159" r="11" class="B"/><circle r="17" cy="158" cx="282" class="E"/><g class="B"><circle r="11" cy="158" cx="282"/><path d="M232 206a20 20 0 0 1 19-18 20 20 0 0 1 20 18z"/></g></g><path d="M463 874l18 8-8 18-18-8z" class="F"/></g><rect transform="matrix(.71377 0 0 .71377 -57 620)" ry="9" y="278" x="501" height="69" width="26" fill="#a02c2c"/><path d="M81 622c-13 0-23 10-23 22v15c0 12 10 22 23 22h68l8 16 6-16c10-2 18-11 18-22v-15c0-12-10-22-23-22z" class="B"/><g class="D"><rect width="14" height="22" x="300" y="841" ry="4"/><rect width="14" height="22" x="803" y="-513" ry="4" transform="rotate(90)"/></g><path d="M321 714c-2 5-22 116-22 116l22-6z" class="B G"/></g><defs ><path id="B" d="M232 195a20 20 0 0 0 19 18 20 20 0 0 0 20-18z"/><path id="C" d="M790 713l-8 127c9 0 17-8 17-17v-96c0-6-4-11-9-14z"/><path id="D" d="M181 284l-1 8v78c0 29 24 52 53 52h38c29 0 52-23 52-52v-83a73 104 0 0 1-71 82 73 104 0 0 1-71-85z"/><path id="E" d="M697 511c-28 0-56 16-69 44l-80 163c-16 32-7 70 20 92l214-259c-7-8-15-14-24-19l-27-13c-11-5-23-8-34-8z"/></defs></svg>