<svg xmlns="http://www.w3.org/2000/svg" viewBox="0 0 127 132.3"><g transform="translate(17.2 61.5) scale(.47064)"><circle r="127.9" cy="-2.9" cx="98.3" style="isolation:auto;mix-blend-mode:normal" color="#000" overflow="visible" fill="none"/><g transform="matrix(.06526 0 0 .06526 -39.8 -147.1)"><rect width="4134.7" height="4116.2" x="48.4" y="407.4" ry="2058.1" fill="#ff9092"/><path style="isolation:auto;mix-blend-mode:normal" color="#000" overflow="visible" fill="#fff" d="M1571.3 3910.3h1250.3v627.6H1571.3z"/><path d="M3734.4 4554.7l-22-279-107.6-233.2-958.7-408.8-17.3 732.4-29 191.7zM407.8 4552.7l38.5-313.2 183.2-235.8 882.5-432 89.6 722.3 36 261.3z" fill="#456db1" fill-rule="evenodd"/><path d="M2461.2 3374l190.3 255.4 273.9 524.6-362.1 27.8-106.3-439.6 13.5-24.6z" fill="#92aad4" fill-rule="evenodd"/><path d="M1613.6 2946.1a3.3 3.3 0 0 0-3.2 3.3v912.5c0 .4 0 .8.2 1.1a443.3 430 0 0 0 217.4 370.3 443.3 430 0 0 0 445.3 3.4 443.3 430 0 0 0 223.7-373.5h-.6c.2-.4.2-.8.2-1.3v-912.5c0-1.8-1.4-3.3-3.2-3.3h-879.8z" style="isolation:auto;mix-blend-mode:normal" color="#000" overflow="visible" fill="#e6b79c"/><path d="M2546.2 3045a488.5 430 0 0 1-246.5 373.4 488.5 430 0 0 1-490.8-3.4 488.5 430 0 0 1-239.7-377" style="isolation:auto;mix-blend-mode:normal" color="#000" overflow="visible" fill="#906551"/><ellipse ry="925.7" rx="748.4" cy="2466.8" cx="2061.4" style="isolation:auto;mix-blend-mode:normal" color="#000" overflow="visible" fill="#e6b79c"/><rect transform="rotate(9.5)" ry="97.4" y="1679.2" x="3134.7" height="476" width="197" style="isolation:auto;mix-blend-mode:normal" color="#000" overflow="visible" fill="#e6b79c"/><rect transform="scale(-1 1) rotate(9.5)" ry="97.4" y="2360.5" x="-947.6" height="476" width="197" style="isolation:auto;mix-blend-mode:normal" color="#000" overflow="visible" fill="#e6b79c"/><path d="M2079.1 2226l126.9 355.6-126-1.7z" fill="#b48c79" fill-rule="evenodd"/><rect transform="rotate(-8.2)" ry="55.7" y="2436.4" x="866.2" height="285.5" width="111.4" style="isolation:auto;mix-blend-mode:normal" color="#000" overflow="visible" fill="#c99888"/><rect transform="scale(-1 1) rotate(-10)" ry="55.7" y="1727.1" x="-3286.3" height="285.5" width="111.4" style="isolation:auto;mix-blend-mode:normal" color="#000" overflow="visible" fill="#c99888"/><path d="M2307.5 562.2l-731.9 414.3-245.1 291-58.5-302-167.2 657c-13.5 612.1 113 536.2 182 877.1l359.9-657.8 303.1 191.7-29.2-368.4 344.3 373.3 52.6-398.8 479.2 906 75.5-321.7 174 157.6 42.4-676.7-116-273.9-149.6-244.3 393.9-39.4L2576.3 893l-383.6-21.5z" fill="#282828" fill-rule="evenodd"/><path d="M2576.3 893l-399.5-29.9-109.5 310.5-266.1-40.9-222.9 343.5-260 622 399.3-445.6 60.4-162.5 95.1-124.5 188 324.2 76.4-374.8 401-9.1-154.7 153.6 140.5 239.2-228.8-93.6 500.7 937.2 75.5-321.7 174 157.6 42.3-676.7-115.8-273.8-87.8-217.2 332-66.6-322.5-201z" fill="#0a0a0a" fill-rule="evenodd"/><path d="M2526 1857.9l160.8 290.5 41-311.8 234.7 298.7 72.2-415.3-103.4-172.3 9.8 151-32.8 172.3-193.6-295.4-69 275.7z" fill="#1e2f4d" fill-rule="evenodd"/><path style="isolation:auto;mix-blend-mode:normal" d="M1460.3 2040.5c-51 0-92 41-92 91.9v19.7h-49.6v185.7h60.7a91.8 91.8 0 0 0 34.1 35.4v-238.4a30.3 30.3 0 0 1 30.4-30.4h394.8a30.3 30.3 0 0 1 30.5 30.4v244.7a91.6 91.6 0 0 0 58.1-85.5v-33h258.3v44a91.7 91.7 0 0 0 56.8 85c-.3-1.9-.6-3.8-.6-5.8V2134c0-3 .5-6 1.3-8.8a30.2 30.2 0 0 1 29.9-25.6h394.8a30.3 30.3 0 0 1 30.4 30.4v254.8a91.5 91.5 0 0 0 40.3-46.9h74.1v-185.7h-68.1v-8.7c0-50.9-41-91.9-92-91.9h-375c-51 0-92 41-92 92v43.6h-258.2v-54.7c0-51-41-92-92-92z" color="#000" overflow="visible" fill="#61d3da"/><rect ry="23.2" y="2613.6" x="1905.6" height="46.4" width="127.7" style="isolation:auto;mix-blend-mode:normal" color="#000" overflow="visible" fill="#906551"/><rect ry="23.2" y="2615.9" x="2080.9" height="46.4" width="127.7" style="isolation:auto;mix-blend-mode:normal" color="#000" overflow="visible" fill="#906551"/><path d="M1806.7 2909.7l508.5 1s-264 314-508.5-1z" fill="#fff" fill-rule="evenodd"/><rect ry="18.9" y="2052.8" x="1424.3" height="37.9" width="233.8" style="isolation:auto;mix-blend-mode:normal" color="#000" overflow="visible" fill="#c0f8f6"/><rect ry="0" y="2185.8" x="1969.4" height="31.2" width="97.8" style="isolation:auto;mix-blend-mode:normal" color="#000" overflow="visible" fill="#c0f8f6"/><path d="M2633 4175.8l-2.5 141.1 296-163.6z" fill="#1f3251" fill-rule="evenodd"/><path d="M2468.5 4236L2347 4380.6l-49.2 164.1 167.4-147.7 111.6-154.3z" fill="#e9e9e9" fill-rule="evenodd"/><path d="M1945 3084.7s111.5 53.4 209 7c0 0-125.4 118.4-209-7z" fill="#b48c79" fill-rule="evenodd"/><path style="isolation:auto;mix-blend-mode:normal" color="#000" overflow="visible" opacity=".5" fill="#c99888" d="M1460 2391.2h380.7v78.9H1460zM2269.7 2391.7h380.7v78.9h-380.7z"/><path d="M2496.9 3422.5l-9.1 489 20 37.2 50.7-189-30.3-295.4zM1578 4096.1l-383.4 57.9 410.2 168z" fill="#1f3251"/><path d="M1610.7 3422.2l-142.2 207.2-273.9 524.6 362.1 27.8 61.7-278 21-83.8z" fill="#92aad4" fill-rule="evenodd"/><path d="M1610.7 3422.2l-30.6 44.7-12.2 328 47.8 121.3 23.6-96.2z" fill="#1f3251" fill-rule="evenodd"/><rect ry="30.4" y="2104.5" x="1413.5" height="316.1" width="455.6" style="isolation:auto;mix-blend-mode:normal" color="#000" overflow="visible" fill="#e5d39d" fill-opacity=".6"/><g transform="translate(20 51.7)" color="#000"><circle style="isolation:auto;mix-blend-mode:normal" cx="1647.8" cy="2210.3" r="141.6" overflow="visible" fill="#fff"/><circle r="102.2" style="isolation:auto;mix-blend-mode:normal" cx="1647.8" cy="2210.3" overflow="visible" fill="#350c0c"/></g><rect ry="30.4" y="2099.5" x="2242.6" height="316.1" width="455.6" style="isolation:auto;mix-blend-mode:normal" color="#000" overflow="visible" fill="#e5d39d" fill-opacity=".6"/><g transform="translate(-20 51.7)" color="#000"><circle style="isolation:auto;mix-blend-mode:normal" cx="2465" cy="2210.3" r="141.6" overflow="visible" fill="#fff"/><circle style="isolation:auto;mix-blend-mode:normal" cx="2465" cy="2210.3" r="102.2" overflow="visible" fill="#350c0c"/></g><path d="M407.8 4552.7l38.5-313.2 183.2-235.8 882.5-432 98.7-149.5-18.8-201.1s-229-260-263.6-576c0 0-63.8 54.6-132.3-47l-53.8-318.4s.3-58 43-69.6c0 0-96.1-135.9-80.4-587.6l167.2-657 58.5 302 245.1-291 731.9-414.3-114.8 309.3 383.6 21.5L2894 943l323 204.3-332.5 63.3 203.6 491-42.3 676.7-58.5-50-44.6 266.9s-30 100.7-150 45.3c0 0-22.6 366.2-274.1 590.8l3.4 190.3 129.6 208 953.3 413 107.6 233.2 22 279" fill="none" stroke="#fff" stroke-width="60.3" stroke-linejoin="round"/></g><path d="M-1 149.7l-1-12.3L.6 142l2.7 3.5 1.3 4zM182.6 150.1l4.5-4-.5-13.1 5.5 14.2-1 2.8z" fill="#1f3251"/></g></svg>