<svg xmlns="http://www.w3.org/2000/svg" width="1257.196" height="1284.99" viewBox="0 0 332.633 339.987"><style><![CDATA[.B{fill-rule:evenodd}.C{fill:#1f3251}.D{fill-opacity:.588}]]></style><g transform="matrix(.47064 0 0 .47064 25.673509 54.698782)"><g transform="matrix(1.005158 0 0 1.007978 119.569534 228.352716)"><rect rx="388.302" width="703.141" height="685.717" x="-173.227" y="-342.54" ry="378.68" fill="#d06668"/><g transform="matrix(2.605716 0 0 2.552544 -77.828109 -34.837323)"><rect rx="132.322" ry="131.732" y="-105.497" x="-21.494" height="238.541" width="239.61" fill="#efb55b"/><circle cx="98.274" cy="-2.912" r="127.852" fill-opacity="0"/><rect rx="113.349" ry="112.843" y="-88.396" x="-4.315" height="204.337" width="205.253" fill="#f0e70b"/><rect rx="95.393" ry="94.967" y="-72.211" x="11.942" height="171.968" width="172.739" fill="#87d893"/><rect rx="77.617" ry="77.271" y="-56.188" x="28.037" height="139.922" width="140.55" fill="#6397ef"/></g></g><g transform="matrix(2.605714 0 0 2.605714 50.242113 214.46775)"><path d="M62.78 108.063h81.6v40.96h-81.6z" fill="#fff"/><path d="M203.952 150.12l-1.44-18.2-7.02-15.22-62.565-26.676-1.132 47.798-1.9 12.5zm-217.11-.132l2.515-20.442L1.312 114.16l57.6-28.196 5.842 47.146 2.357 17.05z" fill="#456db1" class="B"/><path d="M120.854 73.07l12.422 16.663 17.875 34.235-23.63 1.818-6.938-28.693.878-1.604z" fill="#92aad4" class="B"/><path d="M65.542 45.138c-.12 0-.214.096-.214.214v59.556c0 .026.005.05.013.072-.004 9.922 5.392 19.108 14.193 24.162 8.943 5.132 20.036 5.217 29.06.223s14.597-14.3 14.598-24.378h-.038c.01-.025.016-.052.016-.08V45.353c0-.12-.095-.214-.214-.214H65.542z" fill="#e6b79c"/><path d="M126.403 51.586c0 10.08-6.14 19.385-16.088 24.378s-22.173 4.908-32.028-.223-15.828-14.52-15.647-24.6" fill="#906551"/><g fill="#e6b79c"><ellipse cx="2061.43" cy="2466.8" rx="748.417" ry="925.674" transform="matrix(.065264 0 0 .065264 -39.770521 -147.1353)"/><rect width="196.952" height="475.967" x="3134.709" y="1679.226" transform="matrix(.064373 .010742 -.010742 .064373 -39.770521 -147.1353)" rx="37.389"/><rect width="196.952" height="475.967" x="-947.614" y="2360.451" transform="matrix(-.064373 .010742 .010742 .064373 -39.770521 -147.1353)" rx="37.389"/></g><path d="M95.92-1.862l8.278 23.215-8.218-.114z" fill="#b48c79" class="B"/><g fill="#c99888"><rect width="111.413" height="285.495" x="866.201" y="2436.43" transform="matrix(.064602 -.009271 .009271 .064602 -39.770521 -147.1353)" rx="21.379"/><rect width="111.413" height="285.495" x="-3286.335" y="1727.064" transform="matrix(-.064263 -.011384 -.011384 .064263 -39.770521 -147.1353)" rx="21.379"/></g><g class="B"><path d="M110.824-110.445L63.06-83.403l-15.998 18.99-3.82-19.706-10.907 42.87C31.45-1.297 39.703-6.25 44.208 16l23.5-42.933L87.482-14.42l-1.907-24.04L108.048-14.1l3.428-26.03 31.277 59.127 4.927-20.994 11.354 10.283 2.766-44.16-7.563-17.875-9.77-15.945 25.707-2.57-41.806-16.59-25.033-1.404z" fill="#282828"/><path d="M128.368-88.854l-26.07-1.95-7.146 20.267L77.78-73.21l-14.542 22.42-16.966 40.598L72.327-39.28l3.94-10.604 6.2-8.132 12.27 21.16 4.982-24.457 26.173-.595-10.1 10.025 9.17 15.6-14.928-6.11 32.674 61.166L147.646-2.2 159 8.073l2.766-44.16-7.563-17.875-5.724-14.17 21.66-4.345L149.095-85.6z" fill="#0a0a0a"/><path d="M125.08-25.883l10.497 18.96 2.678-20.352L153.572-7.78l4.713-27.1-6.748-11.247.643 9.855-2.142 11.247-12.64-19.28-4.5 17.995z" fill="#1e2f4d"/></g><path d="M55.533-13.965c-3.323 0-5.998 2.675-5.998 5.998v1.287h-3.24V5.44h3.96c.518.958 1.29 1.754 2.227 2.307V-7.812a1.98 1.98 0 0 1 1.984-1.984h25.768a1.98 1.98 0 0 1 1.985 1.984v15.97a5.98 5.98 0 0 0 3.795-5.578V.432h16.854V3.3c0 2.51 1.53 4.65 3.71 5.547-.02-.123-.037-.248-.037-.378V-7.87c0-.2.035-.39.083-.572.15-.95.96-1.672 1.952-1.672h25.77a1.98 1.98 0 0 1 1.984 1.984V8.496c1.193-.683 2.13-1.756 2.625-3.058h4.84V-6.68h-4.45v-.568c0-3.323-2.675-5.998-5.998-5.998h-24.48c-3.323 0-5.998 2.675-5.998 5.998v2.85H86.012v-3.57c0-3.323-2.675-5.998-5.998-5.998z" fill="#61d3da"/><g transform="matrix(.065264 0 0 .065264 -39.770521 -147.1353)" fill="#906551"><rect width="127.661" height="46.422" x="1905.624" y="2613.56" rx="8.908"/><rect width="127.661" height="46.422" x="2080.867" y="2615.881" rx="8.908"/></g><path d="M78.144 42.76l33.187.07s-17.227 20.497-33.187-.07z" fill="#fff" class="B"/><g fill="#c0f8f6"><rect width="233.783" height="37.88" x="1424.252" y="2052.779" transform="matrix(.065264 0 0 .065264 -39.770521 -147.1353)" rx="7.269"/><path d="M88.763-4.484h6.383v2.035h-6.383z"/></g><g class="B"><path d="M132.074 125.392l-.168 9.2 19.314-10.68z" class="C"/><path d="M121.33 129.327l-7.927 9.426-3.213 10.71 10.926-9.64 7.284-10.07z" fill="#e9e9e9"/><path d="M87.173 54.186s7.27 3.484 13.634.454c0 0-8.18 7.726-13.634-.454z" fill="#b48c79"/></g><path d="M55.513 8.92h24.843v5.15H55.513zm52.847.033h24.843v5.15H108.36z" opacity=".46" fill="#c99888"/><path d="M123.183 76.232l-.592 31.914 1.31 2.422 3.303-12.335-1.975-19.278z" fill="#5b82c0"/><path d="M63.215 120.192l-25.02 3.776 26.767 10.965z" class="C"/><g class="B"><path d="M65.352 76.2l-9.28 13.523-17.875 34.235 23.63 1.818 4.023-18.148.942-5.76z" fill="#92aad4"/><path d="M65.352 76.2l-2.003 2.915-.794 21.404 3.123 7.92 1.114-6.57z" fill="#5b82c0"/></g><rect width="455.648" height="316.071" x="1413.481" y="2104.547" ry="28.783" rx="30.035" transform="matrix(.065264 0 0 .065264 -39.770521 -147.1353)" fill="#e1e59d" class="D"/><g transform="matrix(.065264 0 0 .065264 -38.465249 -143.76223)"><circle r="141.587" cy="2210.267" cx="1647.831" fill="#fff"/><circle cy="2210.267" cx="1647.831" r="102.163" fill="#350c0c"/></g><rect width="455.648" height="316.071" x="2242.642" y="2099.479" ry="26.696" transform="matrix(.065264 0 0 .065264 -39.770521 -147.1353)" rx="29.2" fill="#e1e59d" class="D"/><g transform="matrix(.065264 0 0 .065264 -41.075793 -143.76223)"><circle r="141.587" cy="2210.267" cx="2465.009" fill="#fff"/><circle r="102.163" cy="2210.267" cx="2465.009" fill="#350c0c"/></g><path d="M-13.157 149.988l2.515-20.442L1.312 114.16l57.6-28.196 6.44-9.753-1.23-13.127S49.177 46.12 46.918 25.49c0 0-4.166 3.564-8.633-3.062L34.77 1.65s.025-3.8 2.81-4.543c0 0-6.277-8.87-5.246-38.354l10.907-42.87 3.82 19.706 15.998-18.99 47.765-27.04-7.49 20.186 25.033 1.404 20.727 3.254 21.08 13.337-21.696 4.13 13.287 32.046L159 8.073l-3.813-3.262-2.91 17.417s-1.958 6.575-9.788 2.96c0 0-1.48 23.898-17.895 38.555l.222 12.417 8.46 13.57 62.216 26.958 7.02 15.22 1.44 18.2" fill="none" stroke="#fff" stroke-linejoin="round" stroke-width="3.935"/><path d="M-.946 149.663l-1.04-12.284 2.54 4.662 2.713 3.417 1.36 4.1zm183.54.437l4.52-3.9-.5-13.196 5.512 14.232-.935 2.806z" class="C"/></g></g></svg>