<svg xmlns="http://www.w3.org/2000/svg" viewBox="0 0 79.4 79.4"><g transform="translate(-46 -102.2) scale(.05403)"><circle r="722" cy="2626.6" cx="1585.7" fill="#fff" stroke="#b2b2b2" stroke-width="25"/><path fill="#67c1c5" d="M1103.6 2278.2h448.6v123h-448.6zm0 577.2h448.6v123h-448.6z"/><g fill="#99d5d7"><path d="M1552.1 2278v700.2h-122.9V2278zm-325.7.2V2979h-122.9v-700.7z"/><path d="M1224.9 2278l124.3 123.3-125-.4z" fill-rule="evenodd"/></g><path fill="#b06f6f" d="M1619.3 2274H2068v122.8h-448.6z"/><path fill="#d79999" d="M1619.3 2564.7H2068v123h-448.6z"/><path fill="#b06f6f" d="M1619.3 2855.4H2068v123h-448.6z"/><g fill="#d79999"><path d="M2067.8 2564.7V2979H1945v-414.3zM1742.1 2274v414.2h-122.9V2274z"/><path d="M1946.3 2853.3l-125.4 126 125-.3z" fill-rule="evenodd"/></g></g></svg>