<svg xmlns="http://www.w3.org/2000/svg" width="476.289" height="476.22" viewBox="0 0 126.018 126"><style><![CDATA[.B{fill:#fff}.C{fill-rule:evenodd}.D{fill:#1f3251}.E{stroke-linejoin:round}]]></style><g transform="matrix(.47064 0 0 .47064 14.825509 54.057782)"><circle r="127.852" cy="-2.912" cx="98.274" fill-opacity="0"/><rect width="267.758" height="267.144" x="-31.5" y="-114.878" ry="9.317" rx="9.601" fill="#314d7d"/><path d="M69.758 110.312h81.6v42.097h-81.6z" class="B"/><path d="M210.93 152.37l-1.44-18.2-7.02-15.22-62.565-26.676-1.132 47.798-1.9 12.5zm-215.194.435l.598-21L8.3 116.407 65.9 88.21l5.842 47.146 2.357 17.05z" fill="#456db1" class="C"/><path d="M127.83 75.318l12.422 16.663 17.875 34.235-23.63 1.818-6.938-28.693.878-1.604z" fill="#92aad4" class="C"/><path d="M72.518 47.387c-.12 0-.214.096-.214.214v59.556c0 .025.005.05.013.072a28.93 28.064 0 0 0 14.193 24.162 28.93 28.064 0 0 0 29.061.223 28.93 28.064 0 0 0 14.598-24.378h-.038c.01-.025.016-.052.016-.08V47.6c0-.12-.095-.214-.214-.214H72.518z" fill="#deb197"/><path d="M133.38 53.835a31.884 28.064 0 0 1-16.088 24.378 31.884 28.064 0 0 1-32.028-.223A31.884 28.064 0 0 1 69.616 53.39" fill="#906551"/><g fill="#deb197"><ellipse ry="60.413" rx="48.844" cy="16.106" cx="101.742"/><rect transform="rotate(9.474)" y="-27.92" x="148.388" height="31.063" width="12.854" rx="6.358"/><rect transform="matrix(-.986361 .164596 .164596 .986361 0 0)" y="5.743" x="-53.346" height="31.063" width="12.854" rx="6.358"/></g><path d="M102.897.387l8.278 23.215-8.218-.114z" fill="#b48c79" class="C"/><g fill="#c99888"><rect transform="rotate(351.834)" y="10.934" x="44.651" height="18.632" width="7.271" rx="3.636"/><rect transform="matrix(-.98467 -.174428 -.174428 .98467 0 0)" y="-24.231" x="-156.915" height="18.632" width="7.271" rx="3.636"/></g><g class="C"><path d="M114.79-99.763L64.43-77.11l-10.4 14.945-3.82-19.706L39.312-39C38.427.952 46.68-4 51.184 18.248l23.5-42.933L94.46-12.173l-1.907-24.04 26.288 14.022 6.074-14.366L141.9-18.803l-2.025-5.26 9.252 37.003 5.53-12.688 11.354 10.283 2.766-44.16-7.563-17.875-9.77-15.945 25.707-2.57-41.806-16.59L110.312-88z" fill="#282828"/><path d="M135.345-86.606l-26.07-1.95 5.515-11.207L64.43-77.11l5.786 28.565L53.25-7.946 79.304-37.03l10.15-18.735 12.27 21.16 4.982-24.457 16.073 9.43 9.17 15.6 7.56-7.414 9.62 54.38L154.623.038l11.354 10.283 2.766-44.16-2.452-18.727-10.835-13.32 21.66-4.345-21.045-13.122z" fill="#1a1a1a"/><path d="M139.875-24.062l5.375 23.86-.02-24.824L160.55-5.532l4.713-27.1-6.748-11.247.643 9.855-2.142 11.247-12.64-19.28-4.5 17.995z"/></g><g fill="#906551"><rect y="25.684" x="91.574" height="3.03" width="8.332" rx="1.515"/><rect y="25.835" x="103.011" height="3.03" width="8.332" rx="1.515"/></g><g class="C"><path d="M85.12 46.133l33.187.07S101.08 66.7 85.12 46.133z" class="B"/><path d="M139.05 127.64l-.168 9.2 19.314-10.68z" class="D"/><path d="M128.307 131.575l-7.927 9.426-3.213 10.71 10.926-9.64 7.284-10.07z" fill="#e9e9e9"/><path d="M94.15 57.56s7.27 3.484 13.634.454c0 0-8.18 7.726-13.634-.454z" fill="#b48c79"/></g><path d="M62.5 14.542h24.843v5.15H62.5zm52.845.033h24.843v5.15h-24.843z" fill="#d09c7e"/><path d="M130.16 78.48l-.232 32.174.95 2.162 3.303-12.335-1.975-19.278z" fill="#6583b9"/><path d="M70.192 122.44l-25.02 3.776L71.94 137.18z" class="D"/><g class="C"><path d="M72.33 78.46l-9.28 13.523-17.875 34.235 23.63 1.818 4.023-18.148 1.368-5.467z" fill="#92aad4"/><path d="M72.33 78.46l-2.003 2.915-.794 21.404 3.123 7.92 1.54-6.278z" fill="#6583b9"/></g><g transform="matrix(.065264 0 0 .065264 -31.096395 -141.85344)"><circle cx="1647.831" cy="2210.267" r="141.587" class="B"/><circle r="102.163" cx="1647.831" cy="2210.267" fill="#350c0c"/></g><g transform="matrix(.065264 0 0 .065264 -34.507068 -142.19903)"><circle cx="2465.009" cy="2210.267" r="141.587" class="B"/><circle cx="2465.009" cy="2210.267" r="102.163" fill="#350c0c"/></g><path d="M-4.264 152.805l.598-21L8.29 116.407l57.6-28.196 6.44-9.753-1.23-13.127S56.154 48.37 53.895 27.74c0 0-4.166 3.564-8.633-3.062l-3.514-20.78s.025-3.8 2.81-4.543c0 0-6.277-8.87-5.246-38.354L50.22-81.87l3.82 19.706 10.4-14.945 52.77-25.767L110.312-88l25.033 1.404 20.727 3.254 21.08 13.337-21.696 4.13 10.835 13.32 2.452 18.727-2.766 44.16-3.813-3.262-2.91 17.417s-1.958 6.575-9.788 2.96c0 0-1.48 23.898-17.895 38.555l.222 12.417 8.46 13.57 62.216 26.958 7.02 15.22-.067 18.51" fill="none" stroke="#fff" stroke-width="3.935" class="E"/><path d="M6.03 151.912L5 139.628l2.54 4.662 2.713 3.417 1.36 4.1zm183.542.438l4.52-3.9-.5-13.196 5.512 14.232-.935 2.806z" class="D"/><g stroke="#000" stroke-miterlimit="2.5" class="E"><path d="M59.292-8.692c-.685 0-1.236.552-1.236 1.236v18.8c0 .685.552 2.36 1.236 2.36h35.394c.685 0 1.235-1.676 1.236-2.36l.01-7.698V.283h10.076v3.373l-.09 7.698c-.008.685.552 2.36 1.236 2.36h35.394c.685 0 1.236-1.676 1.236-2.36v-18.8c0-.685-.552-1.236-1.236-1.236h-35.394a1.23 1.23 0 0 0-1.236 1.236l.09 7.347c-.22-.34.436 0 0 0H95.933c-.51 0 .19-.44 0 0l-.01-7.347c-.001-.685-.552-1.236-1.236-1.236z" fill="#61d3da" fill-opacity="0" stroke-width="3.187"/><path d="M50.05-1.664h6.2V2.15h-6.2z" stroke-width="2.836"/><path d="M145.59-2.472h6.785v3.974h-6.785z" stroke-width="3.028"/></g><path d="M107.382-7.436h35.055v9.573h-35.055zm-47.63.318h34.553v9.686H59.752z" fill-opacity=".225" fill="#55311a"/><circle r="3.567" cy="2.397" cx="76.02"/><ellipse ry="1.606" rx="1.556" cy="-.911" cx="78.886" class="B"/><circle r="3.567" cy="2.724" cx="125.941"/><ellipse ry="1.606" rx="1.556" cy="-.584" cx="128.807" class="B"/><path d="M59.752-10.3h13.006v3.173H59.752zm47.825-.015h3.945v3.22h-3.945z" fill="#666"/><path d="M134.263-10.268h7.873v3.145h-7.873z" fill="#323232"/></g></svg>