<svg xmlns="http://www.w3.org/2000/svg" viewBox="0 0 127 126.4"><style><![CDATA[.B{fill-rule:evenodd}.C{fill:#1f3251}]]></style><g transform="matrix(.47064 0 0 .47064 17.2 56.7)"><rect width="269.8" height="268.6" x="-36.6" y="-120.5" fill="#ff373c" rx="134.3"/><rect width="239.6" height="238.5" x="-21.5" y="-105.5" fill="#ffb94b" rx="119.3"/><rect width="205.3" height="204.3" x="-4.3" y="-88.4" fill="#fcff11" rx="102.2"/><rect width="172.7" height="172" x="11.9" y="-72.2" fill="#93ff74" rx="86"/><rect width="140.5" height="139.9" x="28" y="-56.2" fill="#377dff" rx="70"/><path fill="#fff" d="M62.8 108h81.6v41H62.8z"/><g class="B"><path fill="#456db1" d="M204 150.1l-1.5-18.2-7-15.2L132.9 90l-1.1 47.8-1.9 12.5zM-13.2 150l2.6-20.5 12-15.3L58.8 86l5.9 47.1 2.3 17z"/><path fill="#92aad4" d="M120.9 73l12.4 16.7 17.9 34.3-23.7 1.8-7-28.7 1-1.6z"/></g><path fill="#e6b79c" d="M65.5 45.1s-.2.1-.2.3v59.5a29 28 0 0014.2 24.2 29 28 0 0029 .3 29 28 0 0014.7-24.4V45.3c0-.2-.1-.3-.2-.3H65.5z"/><path fill="#906551" d="M126.4 51.6a31.9 28 0 01-16 24.4 31.9 28 0 01-32.1-.3 31.9 28 0 01-15.7-24.6"/><g fill="#e6b79c"><ellipse cx="2061.4" cy="2466.8" rx="748.4" ry="925.7" transform="matrix(.06526 0 0 .06526 -39.8 -147.1)"/><rect width="197" height="476" x="3134.7" y="1679.2" rx="97.4" transform="matrix(.064365 .010771 -.010771 .064365 -39.844521 -147.543475)"/><rect width="197" height="476" x="-947.6" y="2360.5" rx="97.4" transform="matrix(-.064365 .010771 .010771 .064365 -39.911864 -147.524318)"/></g><path fill="#b48c79" d="M96-1.9l8.2 23.3-8.2-.2z" class="B"/><g fill="#c99888"><rect width="111.4" height="285.5" x="866.2" y="2436.4" rx="55.7" transform="matrix(.064593 -.009308 .009308 .064593 -39.975218 -147.719722)"/><rect width="111.4" height="285.5" x="-3286.3" y="1727.1" rx="55.7" transform="matrix(-.064269 -.011332 -.011332 .064269 -39.646401 -146.448448)"/></g><g class="B"><path fill="#282828" d="M110.8-110.4l-47.7 27-16 19-3.9-19.7-10.9 42.9c-.8 39.9 7.4 35 12 57.2l23.4-43 19.8 12.6-2-24L108-14.2l3.5-26L142.8 19l4.9-21L159 8.3l2.8-44.2-7.6-17.8-9.7-16 25.7-2.6-41.8-16.6-25-1.4z"/><path fill="#0a0a0a" d="M128.4-88.9l-26.1-2-7.1 20.4-17.4-2.7-14.6 22.4-17 40.6 26.1-29 4-10.7 6.2-8.1L94.7-37l5-24.4L126-62l-10.1 10 9.2 15.6-15-6 32.7 61 5-21L159 8.2l2.8-44.2-7.6-17.9-5.7-14.1 21.6-4.4-21-13.1z"/><path fill="#1e2f4d" d="M125-25.9l10.6 19 2.7-20.4 15.3 19.5 4.7-27-6.8-11.3.7 9.8L150-25l-12.6-19.3-4.5 18z"/></g><path fill="#61d3da" d="M55.5-14a6 6 0 00-6 6v1.3h-3.2V5.4h4a6 6 0 002.2 2.3V-7.8c0-1.1.9-2 2-2h25.7a2 2 0 012 2v16A6 6 0 0086 2.6V.4H103v2.9a6 6 0 003.7 5.5V-7.9v-.5a2 2 0 012-1.7h25.7a2 2 0 012 2V8.5a6 6 0 002.7-3h4.8V-6.8h-4.5v-.5a6 6 0 00-6-6H109a6 6 0 00-6 6v2.8H86V-8a6 6 0 00-6-6z"/><g transform="matrix(.06526 0 0 .06526 -39.8 -147.1)" fill="#906551"><rect width="127.7" height="46.4" x="1905.6" y="2613.6" rx="23.2"/><rect width="127.7" height="46.4" x="2080.9" y="2615.9" rx="23.2"/></g><path fill="#fff" d="M78.1 42.8h33.2s-17.2 20.5-33.2 0z" class="B"/><g fill="#c0f8f6"><rect width="233.8" height="37.9" x="1424.3" y="2052.8" rx="18.9" transform="matrix(.06526 0 0 .06526 -39.8 -147.1)"/><path d="M88.723-4.455h6.382v2.036h-6.382z"/></g><g class="B"><path d="M132 125.4v9.2l19.2-10.7z" class="C"/><path fill="#e9e9e9" d="M121.3 129.3l-7.9 9.5-3.2 10.7 11-9.7 7.2-10z"/><path fill="#b48c79" d="M87.2 54.2s7.2 3.5 13.6.4c0 0-8.2 7.8-13.6-.4z"/></g><path fill="#c99888" d="M55.5 9h24.9v5H55.5zm52.9 0h24.8v5h-24.8z" opacity=".5"/><path fill="#5b82c0" d="M123.2 76.2l-.6 32 1.3 2.4 3.3-12.4-2-19.2z"/><path d="M63.2 120.2l-25 3.8L65 135z" class="C"/><g class="B"><path fill="#92aad4" d="M65.4 76.2L56 89.7 38.2 124l23.6 1.8 4-18.2 1-5.7z"/><path fill="#5b82c0" d="M65.4 76.2l-2 3-.8 21.3 3 8 1.2-6.6z"/></g><rect width="455.6" height="316.1" x="1413.5" y="2104.5" fill="#e5d39d" fill-opacity=".6" rx="30.4" transform="matrix(.06526 0 0 .06526 -39.8 -147.1)"/><g transform="matrix(.06526 0 0 .06526 -38.5 -143.8)"><circle cx="1647.8" cy="2210.3" r="141.6" fill="#fff"/><circle cx="1647.8" cy="2210.3" r="102.2" fill="#350c0c"/></g><rect width="455.6" height="316.1" x="2242.6" y="2099.5" fill="#e5d39d" fill-opacity=".6" rx="30.4" transform="matrix(.06526 0 0 .06526 -39.8 -147.1)"/><g transform="matrix(.06526 0 0 .06526 -41 -143.8)"><circle cx="2465" cy="2210.3" r="141.6" fill="#fff"/><circle cx="2465" cy="2210.3" r="102.2" fill="#350c0c"/></g><path fill="none" stroke="#fff" stroke-linejoin="round" stroke-width="3.935" d="M-13.2 150l2.6-20.5 12-15.3L58.8 86l6.5-9.8L64 63.1S49.1 46 47 25.5c0 0-4.1 3.6-8.6-3l-3.6-21s0-3.7 2.8-4.5c0 0-6.3-8.9-5.3-38.3l11-43 3.7 20 16-19 47.7-27-7.5 20.1 25 1.4 20.8 3.3 21 13.3-21.6 4.2 13.3 32L159 8.1l-3.8-3.3-3 17.4s-1.9 6.6-9.7 3c0 0-1.5 23.9-18 38.5l.3 12.5 8.5 13.5 62.2 27 7 15.2 1.5 18.2"/><path d="M-1 149.7l-1-12.3L.6 142l2.7 3.5 1.3 4zm183.6.4l4.5-4-.5-13.1 5.5 14.2-1 2.8z" class="C"/></g></svg>