<svg xmlns="http://www.w3.org/2000/svg" width="476.3" height="476.2" viewBox="0 0 126 126"><style>.B{fill:#fff}.C{fill-rule:evenodd}.D{fill:#1f3251}.E{stroke-linejoin:round}</style><g transform="translate(14.8 54) scale(.47064)"><circle r="127.9" cy="-2.9" cx="98.3" fill-opacity="0"/><rect width="267.8" height="267.1" x="-31.5" y="-114.9" ry="9.3" rx="9.6" fill="#314d7d"/><path d="M69.8 110.3h81.6v42.1H69.8z" class="B"/><path d="M211 152.4l-1.5-18.2-7-15.2-62.6-26.7-1.1 47.8-2 12.5zm-215.3.4l.6-21 12-15.4 57.6-28.2 5.8 47.2 2.4 17z" fill="#456db1" class="C"/><path d="M127.8 75.3L140.3 92l17.8 34.2-23.6 1.8-7-28.7 1-1.6z" fill="#92aad4" class="C"/><path d="M72.5 47.4c-.1 0-.2 0-.2.2v59.6a29 28 0 0014.2 24.2 29 28 0 0029 .2 29 28 0 0014.7-24.4V47.6c0-.1-.1-.2-.3-.2H72.5z" fill="#deb197"/><path d="M133.4 53.8a31.9 28 0 01-16.1 24.4 31.9 28 0 01-32-.2 31.9 28 0 01-15.7-24.6" fill="#906551"/><g fill="#deb197"><ellipse ry="60.4" rx="48.8" cy="16.1" cx="101.7"/><rect transform="rotate(9.5)" y="-27.9" x="148.4" height="31.1" width="12.9" rx="6.4"/><rect transform="scale(-1 1) rotate(9.5)" y="5.7" x="-53.3" height="31.1" width="12.9" rx="6.4"/></g><path d="M102.9.4l8.3 23.2-8.2-.1z" fill="#b48c79" class="C"/><g fill="#c99888"><rect transform="rotate(351.8)" y="10.9" x="44.7" height="18.6" width="7.3" rx="3.6"/><rect transform="scale(-1 1) rotate(-10)" y="-24.2" x="-156.9" height="18.6" width="7.3" rx="3.6"/></g><g class="C"><path d="M114.8-99.8L64.4-77 54-62.1 50.2-82 39.3-39c-.9 40 7.4 35 11.9 57.2l23.5-42.9 19.8 12.5-2-24 26.3 14 6.1-14.4 17 17.8-2-5.3 9.2 37L154.7.3 166 10.5l2.8-44.1-7.6-17.9-9.8-16 25.8-2.5-41.9-16.6-25-1.4z" fill="#282828"/><path d="M135.3-86.6l-26-2 5.5-11.2L64.4-77l5.8 28.6L53.2-8l26.1-29 10.2-18.8 12.2 21.2 5-24.5 16 9.5L132-34l7.6-7.4 9.6 54.3L154.6 0 166 10.3l2.7-44.1-2.4-18.8-10.8-13.3 21.6-4.3-21-13.2z" fill="#1a1a1a"/><path d="M139.9-24l5.3 23.8V-25l15.4 19.5 4.7-27.1-6.8-11.3.7 9.9-2.2 11.2L144.4-42l-4.5 18z"/></g><g fill="#906551"><rect y="25.7" x="91.6" height="3" width="8.3" rx="1.5"/><rect y="25.8" x="103" height="3" width="8.3" rx="1.5"/></g><g class="C"><path d="M85.1 46.1l33.2.1s-17.2 20.5-33.2 0z" class="B"/><path d="M139 127.6l-.1 9.2 19.3-10.6z" class="D"/><path d="M128.3 131.6l-8 9.4-3.1 10.7 10.9-9.6 7.3-10.1z" fill="#e9e9e9"/><path d="M94.2 57.6s7.2 3.4 13.6.4c0 0-8.2 7.7-13.6-.4z" fill="#b48c79"/></g><path d="M62.5 14.5h24.8v5.2H62.5zm52.8 0h24.9v5.2h-24.9z" fill="#d09c7e"/><path d="M130.2 78.5l-.3 32.2 1 2.1 3.3-12.3-2-19.3z" fill="#6583b9"/><path d="M70.2 122.4l-25 3.8 26.7 11z" class="D"/><g class="C"><path d="M72.3 78.5L63.1 92l-18 34.2 23.7 1.8 4-18.1 1.4-5.5z" fill="#92aad4"/><path d="M72.3 78.5l-2 2.9-.8 21.4 3.2 7.9 1.5-6.3z" fill="#6583b9"/></g><g transform="translate(-31.1 -141.9) scale(.06526)"><circle cx="1647.8" cy="2210.3" r="141.6" class="B"/><circle r="102.2" cx="1647.8" cy="2210.3" fill="#350c0c"/></g><g transform="translate(-34.5 -142.2) scale(.06526)"><circle cx="2465" cy="2210.3" r="141.6" class="B"/><circle cx="2465" cy="2210.3" r="102.2" fill="#350c0c"/></g><path d="M-4.3 152.8l.6-21 12-15.4 57.6-28.2 6.4-9.7-1.2-13.2s-15-17-17.2-37.6c0 0-4.2 3.6-8.6-3L41.7 3.9s0-3.8 2.9-4.5c0 0-6.3-9-5.3-38.4l11-42.9L54-62.2l10.4-15 52.8-25.7-6.9 14.9 25 1.4 20.8 3.3L177-70l-21.4 4 10.8 13.3 2.4 18.8-2.7 44.1-3.8-3.2-3 17.4s-1.9 6.6-9.7 3c0 0-1.5 23.8-18 38.5l.3 12.4 8.5 13.6 62.2 27 7 15.2v18.5" fill="none" stroke="#fff" stroke-width="3.9" class="E"/><path d="M6 152l-1-12.4 2.5 4.7 2.8 3.4 1.3 4.1zm183.6.4l4.5-4-.5-13.1 5.5 14.2-1 2.8z" class="D"/><g stroke="#000" stroke-miterlimit="2.5" class="E"><path d="M59.3-8.7c-.7 0-1.2.6-1.2 1.2v18.8c0 .7.5 2.4 1.2 2.4h35.4c.7 0 1.2-1.7 1.2-2.4V.3H106v11.1c0 .6.5 2.3 1.2 2.3h35.3c.7 0 1.3-1.7 1.3-2.3V-7.4c0-.7-.6-1.3-1.3-1.3h-35.3a1.2 1.2 0 00-1.3 1.3l.1 7.3c-.2-.3.4 0 0 0H96c-.6 0 .1-.4 0 0v-7.3c0-.7-.6-1.3-1.3-1.3z" fill="#61d3da" fill-opacity="0" stroke-width="3.2"/><path d="M50-1.7h6.2v3.9H50z" stroke-width="2.8"/><path d="M145.6-2.5h6.8v4h-6.8z" stroke-width="3"/></g><path d="M107.4-7.4h35V2h-35zm-47.6.3h34.5v9.7H59.8z" fill-opacity=".2" fill="#55311a"/><circle r="3.6" cy="2.4" cx="76"/><circle cy="-.9" cx="78.9" class="B" r="1.6"/><circle r="3.6" cy="2.7" cx="125.9"/><circle cy="-.6" cx="128.8" class="B" r="1.6"/><path d="M59.8-10.3h13v3.2h-13zm47.8 0h4v3.2h-4z" fill="#666"/><path d="M134.3-10.3h7.8V-7h-7.8z" fill="#323232"/></g></svg>