<svg xmlns="http://www.w3.org/2000/svg" width="572.8" height="573.8"><rect transform="rotate(319)" rx="20.8" y="196.2" x="-181.8" height="417.4" width="417.4" fill="#f3efef"/><g stroke="#fff"><path d="M189 95.6l112.4 454 1 .4 6-5L198.7 98.8 195 90z" fill="#928872"/><g transform="rotate(85)" fill="#c77ca5" stroke-width="7.9"><circle r="40.9" cy="-112.7" cx="322.5"/><circle r="29.9" cy="-152" cx="236.9"/><circle r="19.5" cy="-186.3" cx="453.3"/></g></g><path d="M189.9 97.2l-1.2-2zm5-7.2l113.5 454.7 257.7-223.9c8.2-8 8.9-21.2 2-29.6L319.2 7.5a20 20 0 00-29.4-2zm104.5 468.3c-199 14.3-99.5 7.2 0 0z" fill="#dceaeb"/><g transform="rotate(319)" stroke="#fff" stroke-width="7.9" fill="#5fb2bb"><circle r="29.9" cy="546.7" cx="25.3"/><circle r="48.9" cy="381.2" cx="146.9"/><circle r="29.9" cy="451.3" cx="51.4"/></g><circle transform="rotate(85)" r="19.5" cy="-239.9" cx="127.7" fill="#5fb2bb" stroke="#fff" stroke-width="7.9"/></svg>