<svg xmlns="http://www.w3.org/2000/svg" width="572.793" height="573.813"><rect transform="rotate(319)" rx="20.8" y="196.158" x="-181.813" height="417.4" width="417.4" fill="#f3efef"/><g stroke="#fff"><path d="M188.986 95.583l112.39 454.05 1.08.394 5.993-5.116L198.7 98.896l-3.726-8.857z" fill="#928872"/><g transform="rotate(85)" fill="#c77ca5" stroke-width="7.9"><circle r="40.9" cy="-112.745" cx="322.541"/><circle r="29.9" cy="-152.045" cx="236.941"/><circle r="19.5" cy="-186.345" cx="453.341"/></g></g><path d="M189.854 97.193l-1.204-1.9zm5.12-7.154h0L308.45 544.74l257.658-223.93c8.22-7.964 8.85-21.205 1.94-29.593L319.258 7.483c-8.007-9.285-21.145-9.92-29.364-1.956zm104.408 468.307c-198.945 14.258-99.472 7.13 0 0z" fill="#dceaeb"/><g transform="rotate(319)" stroke="#fff" stroke-width="7.9" fill="#5fb2bb"><circle r="29.9" cy="546.658" cx="25.287"/><circle r="48.9" cy="381.158" cx="146.887"/><circle r="29.9" cy="451.258" cx="51.387"/></g><circle transform="rotate(85)" r="19.5" cy="-239.945" cx="127.741" fill="#5fb2bb" stroke="#fff" stroke-width="7.9"/></svg>