<svg xmlns="http://www.w3.org/2000/svg" width="4000" height="2000" version="1"><g transform="translate(0 948)"><path fill="#50cd4a" d="M2000-948h1000V52H2000z"/><g transform="matrix(1.0569 0 0 1.22163 3361 -702)"><path d="M-796 412h-10l-155-2s-22-198 128-225C-983 158-961-41-961-41l155-1v-1l4 1 6-1v1l155 1s21 199-128 226c149 27 128 225 128 225l-155 2z" fill="#bbe0c0" fill-rule="evenodd"/><path d="M-839 407h-11l-155-2s-21-198 128-225c-149-27-128-226-128-226l155-1v-1h11v1l155 1s21 198-128 226c149 27 128 225 128 225l-155 2z" fill="#bbe0c0" fill-rule="evenodd"/><path d="M-817 403h-11l-155-2s-21-198 128-225c-149-27-128-225-128-225l155-2h11l155 2s21 198-128 225c149 27 128 225 128 225l-155 2z" fill="#628c69" fill-rule="evenodd"/><path d="M-826 164v-1c-165-4-143-188-143-188l141-2h10l141 2s22 184-143 188v1h-6zM-826 188c-165 4-144 183-144 183l142 1h9l142-1s21-179-143-183h-6z" fill="#fff" fill-rule="evenodd"/><circle cx="-824" cy="-79" r="10" transform="scale(1 -1)" fill="#b9e0c0"/><circle cx="-824" cy="-102" r="10" transform="scale(1 -1)" fill="#b9e0c0"/><circle cx="-824" cy="-148" r="10" transform="scale(1 -1)" fill="#b9e0c0"/><circle cx="-794" cy="-214" r="10" transform="scale(1 -1)" fill="#b9e0c0"/><circle cx="-824" cy="-125" r="10" transform="scale(1 -1)" fill="#b9e0c0"/><circle cx="-825" cy="-212" r="10" transform="scale(1 -1)" fill="#b9e0c0"/><circle cx="-822" cy="-237" r="10" transform="scale(1 -1)" fill="#b9e0c0"/><circle cx="-855" cy="-215" r="10" transform="scale(1 -1)" fill="#b9e0c0"/><circle cx="-852" cy="13" r="10" transform="scale(1 -1)" fill="#b9e0c0"/><circle cx="-825" cy="13" r="10" transform="scale(1 -1)" fill="#b9e0c0"/><circle cx="-793" cy="13" r="10" transform="scale(1 -1)" fill="#b9e0c0"/><path d="M-887 205c-74 49-60 159-60 159l54 1a205 196 0 0 1-15-73 205 196 0 0 1 21-87z" fill="#94e090" fill-rule="evenodd"/><path fill="#fff" d="M-960 305h83v27h-83z"/><path fill="#bae0c0" d="M-1062-35h458v-60h-458z"/><path fill="#628b69" d="M-1048-51h430v-28h-430z"/><g><path fill="#bae0c0" d="M-1060 439h458v-60h-458z"/><path fill="#628b69" d="M-1046 423h430v-28h-430z"/></g></g><g transform="matrix(1.16973 0 0 1.22163 1944 -1005)"><ellipse ry="111" rx="114" cy="429" cx="207" fill="#648d6b"/><path d="M235 296l1 15a121 121 0 0 1-19 238v-12a109 109 0 0 0 20-214v9l-41-17zm-41 11v12a109 109 0 0 0-21 213v-7l39 19-41 13 1-12a121 121 0 0 1 22-238z" fill="#bbe0c0"/><ellipse ry="80" rx="84" cy="428" cx="208" fill="#fff"/><g fill="#bae0c0"><path d="M208 468l-63-45 62-48z"/><path d="M244 471l-63-45 61-48z"/></g></g><g transform="matrix(1.16973 0 0 1.22163 2568 -1010)"><ellipse ry="111" rx="114" cy="429" cx="207" fill="#648d6b"/><path d="M235 296l1 15a121 121 0 0 1-19 238v-12a109 109 0 0 0 20-214v10l-41-18zm-41 11v12a109 109 0 0 0-21 213v-7l39 19-41 13 1-12a121 121 0 0 1 22-238z" fill="#bbe0c0"/><ellipse ry="80" rx="84" cy="428" cx="208" fill="#fff"/><g fill="#bae0c0"><path d="M208 468l-63-45 62-48z"/><path d="M244 471l-63-45 61-48z"/></g></g><path d="M2567-530c78-60 64-194 64-194l-57-1a217 239 0 0 1 15 89 217 239 0 0 1-22 106z" fill="#94e090" fill-rule="evenodd"/><path fill="#fff" d="M2644-652h-88v-33h88z"/><rect ry="3" y="-948" x="3000" height="1000" width="1000" fill="#876767"/><path transform="matrix(.9765 0 0 .93333 3008 -991)" d="M947 499c39 16 56 63 40 102a86 86 0 0 1-114 43c-16-7-30-19-40-34" fill="none" stroke="#d00000" stroke-width="10"/><path d="M3926-509l-16-29 34 2z" fill="#d00000"/><path d="M3163-616c-14 0 28 12 28 26 0 13-42 23-28 23h13c-11 17-17 37-18 57 1 45 30 85 75 100h-19c-26 2-48 14-66 28l-80 61c-16 12-22 32-12 43 10 12 31 12 47-1l72-42-33 168c-7 37 32 68 72 68h109c40 0 71-30 71-68l-36-173 42-14c16 12 59 10 69-2s13 29-3 17l-81-62c-19-11-42-23-62-23h-19c44-15 66-55 66-100 0-55-30-101-87-105l-15-1z" fill="#e6bf86"/><path d="M3550-791c-10 0-18 7-18 16 0 10 8 17 18 17h31l-40 26-6 6c-7 5-12 10-17 16h-42c-10 0-18 7-18 17 0 9 8 17 18 17h24c-8 28-2 60 17 87 26 37 68 59 113 47l-16 10c-16 11-28 34-37 53l-87 59c-7 19 0 38 15 42 15 5 32-6 38-25l92-40 70 163c22 32 66 40 99 19l90-58c33-21 48-68 20-95l-125-122 60-35c21 2 34-10 35-24 1-15-12-23-32-24l-76 18c-22-2-48 0-71 11l-16 10c29-35 30-84 4-122-11-16-28-30-47-38l10-6c12-8 15-23 7-34-6-9-16-13-26-11h-5z" fill="#ff8e8e"/><g transform="matrix(.9765 0 0 .93333 3021 -1046)"><circle transform="translate(-237 60)" r="66" cy="536" cx="693" fill="#65d9ff" stroke="#fff" stroke-width="7"/><circle r="56" cy="596" cx="456" fill="#00a5db"/></g><path d="M3551-792c-10 0-22 8-22 17 0 10 12 17 22 17l29 1-39 24-6 7 30 45 37 30 190 402 126-84c11-22 22-61 4-78l-132-125 59-33c21 1 38-9 40-24 1-15-14-28-35-30l-77 22c-22-2-48 0-71 11l-16 10c29-35 30-84 4-122-11-16-28-30-48-38l11-7c12-7 15-22 7-34-6-8-16-12-27-10l-5-1z" fill="#d00000"/><ellipse ry="18" rx="19" transform="scale(-1 1)" cy="-635" cx="-3531" fill="#d00000" stroke="#fff" stroke-width="7"/><path d="M3285-615l-26 163 97 358c23-11 39-34 39-61l-36-173 80-2c16 12 37 13 46 1 10-12 9-40-11-43l-88-17c-19-11-42-23-62-23h-19c45-15 67-55 67-100 0-53-32-97-87-103z" fill="#ffcf8b"/><ellipse ry="18" rx="19" cy="-531" cx="3316" stroke="#fff" stroke-width="7"/><rect ry="11" y="52" x="2000" height="1000" width="2000" fill="#09e6ff"/><g transform="rotate(-59 675 -2030)"><rect width="17" height="67" x="-958" y="810" ry="3" fill="#787878"/><ellipse cx="-913" cy="719" rx="45" ry="48" fill="#b80000"/><rect width="120" height="203" x="-681" y="785" ry="9" transform="rotate(20)" fill="#cecece"/><rect width="99" height="100" x="-971" y="741" ry="26" fill="#cecece"/><path d="M-909 502c-4 0-7 2-8 6l-64 174c-2 5 0 10 5 11l19 7 72-190-21-7-3-1z" fill="#f3f3f3"/><path d="M-850 523l-45 200 21 8c5 2 10 0 11-5l65-174c1-5-1-10-6-12z" fill="#9d9d9d"/><path d="M-950 741c-15 0-26 12-26 26v48c0 15 11 26 26 26h11l-2-100z" fill="#f3f3f3"/><path d="M-896 740c14 0 25 11 25 25v49c0 14-11 25-25 25h-11l1-99z" fill="#9d9d9d"/><rect width="22" height="77" x="-905" y="803" ry="3" fill="#787878"/></g><ellipse transform="scale(-1 1)" ry="48" rx="45" cy="785" cx="-2120" fill="#b80000"/><g transform="rotate(-53 1023 -2647)"><rect width="193" height="230" x="-740" y="465" ry="7" fill="#b80000"/><ellipse ry="48" rx="45" cy="538" cx="-807" fill="#b80000"/><path d="M-805 417c-2 0-73 22-74 25l52 51c-1 5 1 10 4 12l26 17v127c0 5 2 9 5 9h78c3 0 6-4 6-9V487c0-4 1-47-1-49l-94-20-2-1z" fill="#cecece"/><rect ry="5" y="498" x="-768" height="118" width="10" fill="#787878"/><rect ry="5" y="498" x="-752" height="118" width="10" fill="#787878"/><rect ry="9" y="515" x="-702" height="228" width="123" fill="#cecece"/><path d="M-805 416c-2 1-73 22-74 26l20 19 60-21 91 23-1-25-94-21-2-1z" fill="#f3f3f3"/><rect ry="1" y="515" x="-701" height="32" width="122" fill="#f3f3f3"/><rect ry="3" y="576" x="-684" height="70" width="15" fill="#787878"/><rect ry="3" y="576" x="-658" height="70" width="15" fill="#787878"/><rect ry="3" y="576" x="-635" height="70" width="15" fill="#787878"/><rect ry="3" y="576" x="-609" height="70" width="15" fill="#787878"/><circle r="12" cy="530" cx="-683" fill="#ff4a4a"/><circle r="12" cy="530" cx="-598" fill="#ff4a4a"/><circle r="12" cy="530" cx="-639" fill="#ff4a4a"/><ellipse transform="scale(-1 1)" ry="48" rx="45" cy="541" cx="461" fill="#b80000"/><path d="M-464 420c2 1 73 22 74 26l-52 51c1 4 0 9-3 11l-26 17v127c0 5-3 9-6 9h-78c-3 0-5-4-5-9V490c-1-4-2-47 1-48l93-21 2-1z" fill="#cecece"/><rect transform="scale(-1 1)" ry="5" y="502" x="500" height="118" width="10" fill="#787878"/><rect transform="scale(-1 1)" ry="5" y="502" x="517" height="118" width="10" fill="#787878"/><path d="M-464 420c2 0 73 22 74 25l-19 19-60-20-92 22 2-25 93-21h2z" fill="#f3f3f3"/></g><g transform="rotate(-163 929 529)"><ellipse cx="551" cy="744" rx="55" ry="59" transform="scale(-1 1)" fill="#b80000"/><ellipse cx="527" cy="1134" rx="55" ry="34" transform="scale(-1 1)" fill="#b80000"/><ellipse cx="530" cy="955" rx="55" ry="59" transform="scale(-1 1)" fill="#b80000"/><path d="M-478 667l5 2 24 29c3 3 2 7 0 9l-54 46h28c4 0 8 3 8 8v28l1 63v66c0 4-3 8-7 8h-105c-4 0-8-3-8-7l-1-158c0-4 3-7 7-7h4c-1-3 0-6 2-8l91-78 5-1z" fill="#cecece"/><rect width="85" height="145" x="486" y="982" ry="6" transform="scale(-1 1)" fill="#cecece"/><rect width="124" height="37" x="465" y="1140" ry="2" transform="scale(-1 1)" fill="#b0b0b0"/><path d="M-486 672l-62 108 11 147h-46l-7-5 1-161c0-4 3-8 7-8h4c-1-2 0-5 2-7l6-7z" fill="#9d9d9d"/><rect width="25" height="146" x="549" y="983" ry="6" transform="scale(-1 1)" fill="#9d9d9d"/><rect width="17" height="145" x="483" y="982" ry="6" transform="scale(-1 1)" fill="#f3f3f3"/><rect width="20" height="173" x="466" y="753" ry="8" transform="scale(-1 1)" fill="#f3f3f3"/><rect width="10" height="54" x="787" y="145" ry="2" transform="matrix(-.71552 .6986 .61826 .78598 0 0)" fill="#f3f3f3"/></g><g transform="rotate(176 826 823)"><ellipse cx="-741" cy="1131" rx="55" ry="34" fill="#b80000"/><ellipse cx="-738" cy="951" rx="55" ry="59" fill="#b80000"/><ellipse cx="-721" cy="744" rx="55" ry="59" fill="#b80000"/><path d="M-788 663l-4 3-25 29c-2 2-2 7 1 9l54 46h-29c-4 0-7 3-8 7v91l-1 66c0 5 3 8 8 8l104 1c5 0 8-4 8-8l2-157c0-4-4-8-8-8h-4c1-2 1-5-2-7l-91-78-5-2z" fill="#cecece"/><rect width="85" height="145" x="-783" y="979" ry="6" fill="#cecece"/><rect width="124" height="37" x="-804" y="1137" ry="2" fill="#b0b0b0"/><path d="M-781 666l61 111-11 146h46l6-5-1-161c1-4-3-7-7-7h-4c1-3 1-6-2-8l-5-7z" fill="#9d9d9d"/><rect width="25" height="146" x="-719" y="979" ry="6" fill="#9d9d9d"/><rect width="17" height="145" x="-785" y="979" ry="6" fill="#f3f3f3"/><rect width="20" height="173" x="-802" y="750" ry="8" fill="#f3f3f3"/><rect width="10" height="54" x="-214" y="1026" ry="2" transform="matrix(.71552 .6986 -.61826 .78598 0 0)" fill="#f3f3f3"/><rect width="108" height="129" x="-694" y="707" ry="9" fill="#787878"/></g><g transform="rotate(64 625 2861)"><g transform="translate(-1014 191) scale(1.02538)"><path d="M437 172c-2 0-5 1-6 4l-18 45v-43h-99v44l-19-46c-1-3-5-5-8-3h-1c-3 1-5 5-4 8l32 76v20h99v-21l31-75c1-3 0-7-4-8h-1l-2-1z" fill="#cecece"/><path d="M342 150c-4 0-7 3-7 7v51h57v-51c0-4-4-7-7-7zm-7 77v15c0 4 3 7 7 7h43c3 0 7-3 7-7v-15z" fill="#b80000"/><rect ry="4" y="215" x="327" height="8" width="73" fill="#ff4a4a"/><rect ry="0" y="253" x="344" height="38" width="39" fill="#787878"/></g><rect width="5" height="52" x="-382" y="-612" ry="2" transform="scale(1 -1) rotate(-23)" fill="#f3f3f3"/><rect width="5" height="52" x="800" y="-114" ry="2" transform="rotate(157)" fill="#f3f3f3"/></g><g transform="rotate(87 1050 2286)"><rect transform="scale(-1 1)" ry="3" y="813" x="310" height="67" width="17" fill="#787878"/><rect transform="scale(-1 1) rotate(20)" ry="9" y="349" x="511" height="203" width="120" fill="#cecece"/><rect transform="scale(-1 1)" ry="26" y="744" x="297" height="100" width="99" fill="#cecece"/><path d="M-360 506c4 0 7 2 9 5l64 174c1 5-1 10-6 12l-19 7-71-191 20-7h3z" fill="#f3f3f3"/><path d="M-419 527l46 200-21 8c-5 1-10-1-12-6l-64-174c-2-4 0-9 5-11z" fill="#9d9d9d"/><path d="M-318 745c14 0 25 11 25 25v49c0 14-11 25-25 25h-11l1-99z" fill="#f3f3f3"/><path d="M-372 743c-14 0-26 12-26 26v48c0 14 12 26 26 26h11l-1-100z" fill="#9d9d9d"/><rect width="22" height="77" x="364" y="807" ry="3" transform="scale(-1 1)" fill="#787878"/></g><ellipse transform="scale(-1 1)" cx="-2998" cy="539" rx="143" ry="139" fill="#09e6ff"/><path d="M2963 372l-1 18a153 153 0 0 0 24 301v-16a138 138 0 0 1-26-268v10l51-21zm51 14v15a138 138 0 0 1 27 269l-1-10-48 25 51 16-1-16a153 153 0 0 0-28-299z" fill="#fdffff"/><ellipse transform="scale(-1 1)" cx="-2997" cy="539" rx="105" ry="101" fill="#fff"/><g transform="matrix(-1.26027 0 0 1.26027 3276 5)" fill="#09e6ff"><path d="M198 447l-36-25 35-27z"/><rect width="88" height="23" x="-274" y="411" transform="scale(-1 1)" ry="9"/></g><g transform="translate(3243 -571) scale(1.44911)"><ellipse transform="scale(-1 1)" ry="41" rx="38" cy="739" cx="-323" fill="#b80000"/><ellipse ry="23" rx="38" cy="1006" cx="191" fill="#b80000"/><ellipse ry="41" rx="38" cy="882" cx="193" fill="#b80000"/><ellipse ry="41" rx="38" cy="739" cx="205" fill="#b80000"/><rect ry="2" y="785" x="41" height="46" width="11" fill="#787878"/><ellipse ry="33" rx="31" cy="722" cx="73" fill="#b80000"/><ellipse ry="33" rx="31" cy="597" cx="146" fill="#b80000"/><rect ry="5" y="547" x="192" height="159" width="133" fill="#b80000"/><path d="M147 514c-1 0-50 15-51 17l36 35c0 3 0 7 2 8l19 12v87c0 4 1 7 3 7h54c2 0 4-3 4-7V562c0-3 1-33-1-34l-64-14h-2z" fill="#cecece"/><g transform="matrix(.7076 0 0 .7076 3 358)"><path d="M437 172c-2 0-5 1-6 4l-18 45v-43h-99v44l-19-46c-1-3-5-5-8-3h-1c-3 1-5 5-4 8l32 76v20h99v-21l31-75c1-3 0-7-4-8h-1l-2-1z" fill="#cecece"/><path d="M342 150c-4 0-7 3-7 7v51h57v-51c0-4-4-7-7-7zm-7 77v15c0 4 3 7 7 7h43c3 0 7-3 7-7v-15z" fill="#b80000"/><rect width="73" height="8" x="327" y="215" ry="4" fill="#ff4a4a"/><rect width="39" height="38" x="344" y="253" ry="0" fill="#787878"/></g><path d="M159 684l-3 1-17 20c-2 2-2 5 0 7l37 31h-19c-3 0-5 2-5 5l-1 20v89c0 3 2 5 5 5l72 1c3 0 5-3 5-6l1-108c0-3-2-5-5-5h-2c0-2 0-4-2-5l-63-54c-1-1-2-2-3-1z" fill="#cecece"/><rect ry="4" y="901" x="163" height="100" width="59" fill="#cecece"/><rect transform="rotate(20)" ry="6" y="510" x="268" height="140" width="83" fill="#cecece"/><rect ry="1" y="1010" x="148" height="25" width="85" fill="#b0b0b0"/><rect ry="18" y="737" x="32" height="69" width="68" fill="#cecece"/><rect ry="3" y="570" x="172" height="81" width="7" fill="#787878"/><rect ry="3" y="570" x="184" height="81" width="7" fill="#787878"/><rect ry="6" y="581" x="219" height="157" width="85" fill="#cecece"/><path d="M75 572c-2 0-4 2-5 4L25 696c-1 4 1 7 4 8l13 5 50-131-14-5-3-1z" fill="#f3f3f3"/><path d="M116 587L85 725l14 5c4 2 7 0 8-3l45-120c1-4-1-7-4-8z" fill="#9d9d9d"/><path d="M147 513c-1 0-50 15-51 18l14 13 41-14 63 15-1-17-64-14-2-1zM47 737c-10 0-18 8-18 18v34c0 9 8 17 18 17h7v-69z" fill="#f3f3f3"/><path d="M84 736c10 0 18 8 18 18v33c0 10-8 18-18 18h-8l1-69z" fill="#9d9d9d"/><rect ry="2" y="780" x="78" height="53" width="15" fill="#787878"/><rect ry="1" y="581" x="219" height="22" width="84" fill="#f3f3f3"/><path d="M164 686l42 76-8 101h32l4-4V748c0-3-3-5-5-5h-3c1-2 0-4-1-5l-4-5z" fill="#9d9d9d"/><rect ry="2" y="623" x="231" height="48" width="10" fill="#787878"/><rect ry="2" y="623" x="248" height="48" width="10" fill="#787878"/><rect ry="2" y="623" x="264" height="48" width="10" fill="#787878"/><rect ry="2" y="623" x="282" height="48" width="10" fill="#787878"/><circle r="9" cy="591" cx="231" fill="#ff4a4a"/><circle r="9" cy="591" cx="290" fill="#ff4a4a"/><circle r="9" cy="591" cx="262" fill="#ff4a4a"/><rect ry="4" y="902" x="206" height="101" width="18" fill="#9d9d9d"/><rect ry="4" y="901" x="161" height="100" width="12" fill="#f3f3f3"/><rect ry="5" y="743" x="149" height="119" width="14" fill="#f3f3f3"/><rect transform="matrix(.71552 .6986 -.61826 .78598 0 0)" ry="2" y="377" x="548" height="37" width="7" fill="#f3f3f3"/><ellipse transform="scale(-1 1)" ry="23" rx="38" cy="1008" cx="-339" fill="#b80000"/><ellipse transform="scale(-1 1)" ry="41" rx="38" cy="885" cx="-337" fill="#b80000"/><rect transform="scale(-1 1)" ry="2" y="787" x="-488" height="46" width="11" fill="#787878"/><ellipse transform="scale(-1 1)" ry="33" rx="31" cy="724" cx="-457" fill="#b80000"/><ellipse transform="scale(-1 1)" ry="33" rx="31" cy="599" cx="-384" fill="#b80000"/><path d="M383 516c1 0 50 15 51 18l-36 35c0 3-1 6-3 8l-18 11v88c0 3-1 6-3 6h-54c-2 0-4-3-4-6V564c0-3-1-32 1-33l64-15h2zM373 686l3 2 17 20c2 1 1 4 0 6l-38 32 20-1c3 0 5 3 5 6v19l1 43v46c0 3-2 6-5 6h-72c-3 0-6-2-6-5l-1-109c0-3 3-5 6-5h2c-1-2 0-4 1-5l64-54 3-1z" fill="#cecece"/><rect transform="scale(-1 1)" ry="4" y="904" x="-367" height="100" width="59" fill="#cecece"/><rect transform="scale(-1 1) rotate(20)" ry="6" y="696" x="-229" height="140" width="83" fill="#cecece"/><rect transform="scale(-1 1)" ry="1" y="1013" x="-382" height="25" width="85" fill="#b0b0b0"/><rect transform="scale(-1 1)" ry="18" y="739" x="-498" height="69" width="68" fill="#cecece"/><rect transform="scale(-1 1)" ry="3" y="572" x="-357" height="81" width="7" fill="#787878"/><rect transform="scale(-1 1)" ry="3" y="572" x="-346" height="81" width="7" fill="#787878"/><path d="M455 575c2 0 4 1 5 4l44 120c2 3 0 7-3 8l-13 5-50-132 14-5h3z" fill="#f3f3f3"/><path d="M414 589l31 138-15 6c-3 1-6-1-7-4l-45-120c-1-3 1-7 4-8z" fill="#9d9d9d"/><path d="M383 516c1 0 50 15 51 17l-14 13-41-14-63 15 1-17 64-14h2zM483 740c10 0 18 8 18 17v34c0 10-8 18-18 18h-8l1-69z" fill="#f3f3f3"/><path d="M446 739c-10 0-18 7-18 17v34c0 9 8 17 18 17h7v-68z" fill="#9d9d9d"/><rect transform="scale(-1 1)" ry="2" y="783" x="-452" height="53" width="15" fill="#787878"/><path d="M367 689l-43 75 8 101h-32l-4-3V751c0-3 2-6 5-6h3c-1-1 0-3 1-5l4-5z" fill="#9d9d9d"/><rect transform="scale(-1 1)" ry="4" y="904" x="-324" height="101" width="18" fill="#9d9d9d"/><rect transform="scale(-1 1)" ry="4" y="904" x="-369" height="100" width="12" fill="#f3f3f3"/><rect transform="scale(-1 1)" ry="5" y="746" x="-381" height="119" width="14" fill="#f3f3f3"/><rect transform="matrix(-.71552 .6986 .61826 .78598 0 0)" ry="2" y="756" x="128" height="37" width="7" fill="#f3f3f3"/><rect ry="6" y="714" x="224" height="89" width="75" fill="#787878"/><rect width="3" height="36" x="471" y="-358" ry="2" transform="scale(1 -1) rotate(-23)" fill="#f3f3f3"/><rect width="3" height="36" x="-8" y="-560" ry="2" transform="rotate(157)" fill="#f3f3f3"/></g><path d="M3378 374s46-8 50-57c0 0 12 57 43 55 0 0-37 19-41 59 0 0 1-59-52-57zM3636 569s46-11 50-81c0 0 12 81 43 78 0 0-37 27-41 84 0 0 1-84-52-81zM3760 244s29-8 32-53c0 0 7 53 27 50 0 0-24 18-26 56 0 0 0-56-33-53zM3348 168s52 24 41 91c0 0 33-72 69-60 0 0-38-37-29-93 0 0-19 81-81 62z" fill="#ffe41e" fill-rule="evenodd"/><g transform="matrix(.99602 0 0 .98528 -13 54)"><rect width="1004" height="1013" x="1017" y="-2" ry="0" fill="#006ec6"/><g transform="translate(9 841)"><rect ry="16" y="21" x="1194" height="106" width="632" fill="#fff"/><text y="110" x="1200" style="line-height:0%" font-weight="400" font-family="sans-serif" letter-spacing="0" word-spacing="0" fill="#006ec6"><tspan style="line-height:1.25;-inkscape-font-specification:'Roboto Slab'" y="110" x="1200" font-size="98" font-family="Roboto Slab">Outside View</tspan></text></g><path d="M1089 423c-7 0-13 6-13 13v247l1 19c0 5 3 8 8 8h155c5 0 9-3 9-8v-22c0-5-4-9-9-9h-126V436c0-7-6-13-13-13z" fill="#9f9f9f"/><path d="M1124 315c-10-1-19 7-19 17l-2 27c0 8 4 15 11 18-9 4-13 14-9 23l10 26c4 9 15 14 25 10l3-2c7 9 17 17 28 21-42 41-53 132-53 183 0 8 3 16 9 21 4 6 10 10 17 11l125 26v59c0 12 9 22 21 22h29c13 0 22-10 22-22V636c0-10-7-19-17-21l-9-4-48-10v-73l71 21c10 3 20-2 23-12l8-24c3-10-3-20-13-23l-98-30c-12-4-19-5-32-5a71 71 0 0 0-34-137z" fill="#ecd4a4"/><path d="M1437 780c8 0 14-6 14-14V570l-1-6v-13c0-5-4-8-8-8h-155c-5 0-9 3-9 8v22c0 5 4 9 9 9h125v184c0 8 6 14 14 14z" fill="#ccc"/><path d="M1174 316l36 162 158 42 3-8c3-10-3-20-13-23l-98-30c-12-4-20-5-32-5a71 71 0 0 0-34-137z" fill="#a4ecdf"/><circle cx="1240" cy="376" r="15" stroke="#fff" stroke-width="7"/><rect width="28" height="215" x="1440" y="78" ry="9" transform="rotate(9)" fill="#2a2a2a"/><rect width="10" height="126" x="1417" y="405" ry="6" fill="#2a2a2a"/><rect width="102" height="20" x="1348" y="524" ry="4" fill="#2a2a2a"/><rect width="12" height="209" x="1435" y="89" ry="6" transform="rotate(9)" fill="#a4ecdf"/><rect width="54" height="65" x="1098" y="710" ry="0" fill="#535353"/><rect width="183" height="28" x="1065" y="749" ry="6" fill="#747474"/><path d="M1349 543l83 52 19 60v-85l-1-5v-13c0-5-4-9-9-9z" fill="#9f9f9f"/><g transform="translate(1006 -101)"><path d="M620 392l-138 28-15 42 184 88s-63 31-71 19c-8-11-88 8-88 8l44 43 85-3 11 2-1 17-23-8a12 12 0 1 0-8 24l29 9v18l-48-15a12 12 0 1 0-7 24l53 17-5 93 2 1-22 69c-3 7 1 14 8 16l54 17c7 3 14-1 16-8l18-58 20 10-14 43c-2 6 2 13 8 15l55 18c6 2 13-2 15-8l28-87 145 85-75-226-1-2h-1l-77-83-31-91-7-72z" fill="#31c90d" fill-rule="evenodd"/><path d="M530 486l-40 28-5-48zM574 512l-40 27-4-49zM613 530l-32 23-5-40zM539 570l-48 9 17-46zM581 573l-41-1 26-41zM635 564l-38 7 13-37z" fill="#fff"/><path d="M490 471l-27 7 7-27z" fill="#fff"/><path d="M606 396l-134 15-10 49 181 85s-61 34-69 22c-8-11-88 8-88 8l49 50 80-10 11 2-1 16-23-7a12 12 0 1 0-7 24l29 9-1 18-47-15c-7-2-14 1-16 8-2 6 1 25 7 27l54 15-5 84h2l-22 70c-2 7 1 14 8 16l3 1 35-29 31-79 53-16-55-227z" fill="#46f01d" fill-rule="evenodd"/><path d="M762 437l19 270 3 138-83 54 69 22c6 3 13-1 15-8l28-86 145 85-75-226-1-3-1 1-77-84-31-90-7-72z" fill="#25960a" fill-rule="evenodd"/><rect transform="rotate(15)" ry="16" y="448" x="728" height="32" width="52" fill="#25960a"/><path d="M626 622s-5 60-3 60l38-11 9-40z" fill="#46f01d" fill-rule="evenodd"/><path d="M657 433a27 27 0 0 0-3-7l-49 15a27 27 0 0 0 26 25 27 27 0 0 0 27-26 27 27 0 0 0-1-7z" stroke="#fff" stroke-width="12"/><rect transform="rotate(32)" ry="10" y="113" x="634" height="20" width="27" fill="#25960a"/></g></g><rect ry="0" y="52" height="998" width="999" fill="#faa"/><path d="M209 659v1l-1-1L99 824c-2 2-3 4-3 7v3c0 5 4 9 9 9h759c5 0 9-4 9-9v-3l-1-5-110-167-1 2v-2z" fill="#b6b6b6"/><g transform="matrix(.99602 0 0 .98528 -9 -17)"><rect width="591" height="396" x="200" y="281" ry="60" fill="#1a1a1a"/><rect width="557" height="346" x="217" y="305" ry="31" fill="#e6e6e6"/><circle cx="496" cy="293" r="10" fill="#fff"/></g><rect ry="8" y="646" x="212" height="16" width="552" fill="#fff"/><path d="M225 678l-61 92 61 1h426-1 159l-55-93-1 1v-1H225z" fill="#1a1a1a"/><path d="M405 779l-22 34h206l-24-34H405z" fill="#e6e6e6"/><rect transform="matrix(.85058 .52585 -.53412 .84541 0 0)" ry="58" y="411" x="575" height="268" width="135" fill="#eacf9b"/><rect transform="matrix(-.85058 .52585 .53412 .84541 0 0)" ry="58" y="906" x="-81" height="268" width="135" fill="#eacf9b"/><rect transform="matrix(.57655 .81706 -.9472 .32065 0 0)" ry="29" y="137" x="875" height="93" width="46" fill="#eacf9b"/><rect transform="rotate(-93)" ry="21" y="391" x="-916" height="68" width="42" fill="#eacf9b"/><g transform="translate(22 24)"><rect width="576" height="113" x="190" y="75" ry="28" fill="#fff"/><text style="line-height:0%" x="205" y="165" transform="scale(1.00544 .9946)" font-weight="400" font-size="12" font-family="sans-serif" letter-spacing="0" word-spacing="0" fill="#ff5e5e"><tspan x="205" y="165" style="line-height:1.25;-inkscape-font-specification:'Roboto Slab'" font-size="97" font-family="Roboto Slab">Inside View</tspan></text></g><rect ry="21" y="413" x="212" height="208" width="447" fill="#fff"/><rect ry="21" y="377" x="212" height="49" width="445" fill="#a00"/><rect ry="5" y="480" x="232" height="12" width="149" fill="#a00"/><rect ry="8" y="504" x="414" height="20" width="149" fill="#1a1a1a"/><rect ry="8" y="501" x="230" height="20" width="149" fill="#1a1a1a"/><rect ry="5" y="482" x="412" height="12" width="149" fill="#a00"/><g transform="scale(.17078 .16894) rotate(47 205 6179)"><circle transform="rotate(-90)" r="300" cy="-209" cx="-502" fill="#ff9c9c"/><path d="M-209 202A300 300 0 0 1 51 352a300 300 0 0 1-1 300 300 300 0 0 1-260 150" fill="#4f0000"/><path d="M91 502A300 300 0 0 1-59 762a300 300 0 0 1-301-1 300 300 0 0 1-149-260" fill="#9b0c0c"/><path d="M-209 802a300 300 0 0 1-213-88 300 300 0 0 1-87-213l300 1z" fill="#e41212"/><circle r="275" cy="502" cx="-209" fill="#fff"/></g><g fill="#a00" fill-rule="evenodd"><path d="M695 301l-14 4-8 10 12 1 14-4z"/><path d="M684 315l5 10 9 1 2-11-1-3z"/><path d="M673 315h13l4 10-17-10"/><path d="M673 315l-3 7 1 5-2 2 14 2 8-7z"/><path d="M683 330l7-6 8 2z"/><path d="M683 330l-3 6 2 4 14 2 3-4-1-13z"/><path d="M668 330l14 11 2-11zM670 322l13 8h-16l3-4z"/><path d="M667 329l-3 10 1 4 7 7 10-10z"/><path d="M665 342l-1 11 8 6v-10zM672 349l12-1 13-6-15-2z"/><path d="M684 347v17l5-5 8 2z"/><path d="M684 348l12-6 2-4 3 10-4 14zM671 359l13-2-12-8z"/><path d="M682 340l-10 9 12 9v-11zM676 326l14-2-6 7zM672 324l4 2-3-11-3 8zM683 365l9-9 10 14-6-1-11 1z"/><path d="M670 359l-1 10 11-4 4 5 1-4-1-9z"/><path d="M665 352l-1 8 3 7 3 2 1-11z"/><path d="M669 369l12-5 4 4-5 11-6-4-5-6z"/><path d="M679 378l2 4 7 4v-10l-3-8-5 11z"/><path d="M685 368l10-2 6 3-8 10-7-6z"/><path d="M686 373l2 13 3-4h3l3-7zM673 315l8-10 6 10zM664 342l15 1-7 7zM683 334l13 8-14-2 1-2zM696 342l-4 15 9 13-4-18zM673 375l7 4 5-11z"/><path d="M681 364l-1 7 5-3-4-4zM697 308l-16-3 14-4zM686 315l4 9 8 2 1-7zM673 315l2 8 1 3 1-9zM694 350c-2 2-2 7-2 7h6l-2-15z"/><path d="M684 347l8 10 4-15zM708 302l14 3 8 11h-12l-14-4z"/><path d="M719 316l-5 9-10 1-1-11 1-3z"/><path d="M730 315h-14l-4 10 17-9"/><path d="M730 315l2 7v5l2 3-14 1-8-6z"/><path d="M720 331l-8-7-7 2z"/><path d="M720 331l2 6-1 4-14 2-3-4 1-13z"/><path d="M735 330l-14 11-2-10z"/><path d="M733 323l-13 8 15-1-2-3zM735 330l3 10v3l-7 7-10-9z"/><path d="M738 343v11l-7 5v-9zM730 350l-12-1-12-7 14-2z"/><path d="M719 347v18l-6-5-7 1z"/><path d="M718 348l-11-5-3-5-3 11 5 14zM732 359l-13-1 12-8z"/><path d="M721 341l10 9-12 8v-10zM727 327l-15-2 7 6zM731 324l-4 3 3-12 3 8zM720 365l-9-8-10 13h16z"/><path d="M732 359l2 10-11-3-4 4-1-4 1-9z"/><path d="M738 353l1 8-4 7-2 2-2-11z"/><path d="M733 369l-11-5-4 4 5 11 6-4 4-6z"/><path d="M723 378l-1 5-8 3 1-9 3-9 5 11z"/><path d="M718 368l-10-2-7 4 8 9 8-6z"/><path d="M716 373l-2 13-2-4h-3l-3-7zM730 316l-8-10-6 10zM738 343l-14 1 7 6zM720 334l-13 8 14-1-1-3zM707 342l4 15-10 13 5-17zM729 375l-6 5-5-11zM722 364l1 7-5-2 4-5zM706 308l16-2-14-4zM716 315l-3 10-9 1v-6z"/><path d="M730 315l-2 8-2 4v-10zM709 350l2 7h-7l3-14zM719 347l-8 10-4-15zM705 310zm0 0h-7l2 5-2 11v13l4 11v-2 2l3-11v-13l-2-11 2-5zm-7 0z"/><path d="M701 348l-3 9 3 13 4-13z"/></g><path fill="#ff41b2" d="M1000-948h1000V52H1000z"/><g fill="#fffeff" fill-rule="evenodd"><path d="M1514-835l-226 342 225 122z"/><path d="M1511-826l227 342-225 122zM1288-495l221 116 10 241z"/><path d="M1736-483l-226 108 6 238z"/><path d="M1516-142l-102-285 98 47z"/><path d="M1512-831l157 382-163 70z"/><path d="M1428-405s75-20 82-151c0 0 19 151 70 145 0 0-61 52-67 159 0 0 1-159-85-153zM1492-643s-40-8-44-57c0 0-11 57-38 55 0 0 33 19 36 60 0 0 0-60 46-58z"/></g><g fill-rule="evenodd"><path d="M1521-767l-181 274 180 97z" fill="#fe25e0"/><path d="M1519-760l181 274-180 97z" fill="#ffd7fb"/><path d="M1340-495l177 93v196z" fill="#de01c0"/><path d="M1701-485l-183 86-2 194z" fill="#ae0197"/><path d="M1517-205l-75-236 78 38z" fill="#820070"/><path d="M1520-764l125 306-130 55z" fill="#ffadf3"/><path d="M1453-423s59-17 65-121c0 0 15 121 56 116 0 0-49 41-54 127 0 0 1-127-67-122zM1437-498s-32-7-35-46c0 0-9 46-30 44 0 0 26 16 29 48 0 0-1-48 36-46z" fill="#fffeff"/></g><g transform="matrix(.76425 0 0 .76425 1140 -892)"><circle r="263" cy="256" cx="506" fill="#fffeff"/><g transform="translate(8 -40)"><circle r="225" cy="296" cx="497" fill="#de00c1"/><circle r="200" cy="296" cx="497" fill="#ffacf4"/><circle r="158" cy="296" cx="497" fill="#ff5fea"/><ellipse cx="659" cy="285" rx="28" ry="30" fill="#ffd8fb"/><ellipse cx="486" cy="307" rx="96" ry="99" fill="#ae0197"/><ellipse cy="129" cx="570" rx="60" ry="46" transform="rotate(30)" fill="#ffacf4"/><ellipse transform="rotate(-23)" cy="382" cx="299" rx="96" ry="63" fill="#ffacf4"/><ellipse cy="-30" cx="597" rx="95" ry="43" transform="matrix(.92952 .36877 -.21327 .977 0 0)" fill="#ffd8fb"/><path d="M322 163s60-10 66-74c0 0 15 74 55 71 0 0-48 25-53 78 0 0 1-78-68-75z" fill="#fffeff" fill-rule="evenodd"/></g></g><path d="M1501-665c10 2 10-7 10-7s-9-36 26-14c0 0 12 1 15-6" fill="none" stroke="#fff" stroke-width="2"/><path d="M1515-692l12 20M1528-691l7 13M1510-683l7 13" fill="#fff" fill-rule="evenodd" stroke="#fff" stroke-width="2"/><path d="M1487-688l17 28 62-36" fill="none" stroke="#fff" stroke-width="2"/><path d="M1486-682v-8l6 4M1561-696l7-1-3 7" fill="none" stroke="#fff" stroke-width="2"/><g fill="#fffeff" fill-rule="evenodd"><path d="M1180-777l-116 177 116 62z"/><path d="M1179-772l117 176-116 63zM1064-601l114 60 5 124z"/><path d="M1295-595l-117 56 3 122z"/><path d="M1181-419l-52-147 51 24z"/><path d="M1180-775l80 197-84 36z"/><path d="M1136-555s38-10 42-77c0 0 10 77 36 74 0 0-31 27-34 82 0 0 0-82-44-79zM1169-678s-21-4-23-29c0 0-5 29-19 28 0 0 17 10 18 31 0 0 0-31 24-30z"/></g><g fill-rule="evenodd"><path d="M1184-741l-93 141 93 50z" fill="#fe25e0"/><path d="M1183-738l93 141-92 50z" fill="#ffd7fb"/><path d="M1091-601l91 47v102z" fill="#de01c0"/><path d="M1277-596l-94 44-1 100z" fill="#ae0197"/><path d="M1182-452l-39-121 40 19z" fill="#820070"/><path d="M1183-740l65 158-67 28z" fill="#ffadf3"/><path d="M1149-564s30-9 34-62c0 0 7 62 28 59 0 0-25 22-27 66 0 0 0-66-35-63zM1141-603s-17-3-19-24c0 0-4 24-15 23 0 0 13 8 15 25 0 0 0-25 19-24z" fill="#fffeff"/></g><g transform="translate(988 -806) scale(.39378)"><circle r="263" cy="256" cx="506" fill="#fffeff"/><g transform="translate(8 -40)"><circle r="225" cy="296" cx="497" fill="#de00c1"/><circle r="200" cy="296" cx="497" fill="#ffacf4"/><circle r="158" cy="296" cx="497" fill="#ff5fea"/><ellipse cx="659" cy="285" rx="28" ry="30" fill="#ffd8fb"/><ellipse cx="486" cy="307" rx="96" ry="99" fill="#ae0197"/><ellipse cy="129" cx="570" rx="60" ry="46" transform="rotate(30)" fill="#ffacf4"/><ellipse transform="rotate(-23)" cy="382" cx="299" rx="96" ry="63" fill="#ffacf4"/><ellipse cy="-30" cx="597" rx="95" ry="43" transform="matrix(.92952 .36877 -.21327 .977 0 0)" fill="#ffd8fb"/><path d="M322 163s60-10 66-74c0 0 15 74 55 71 0 0-48 25-53 78 0 0 1-78-68-75z" fill="#fffeff" fill-rule="evenodd"/></g></g><g fill="#fffeff" fill-rule="evenodd"><path d="M1863-751l-117 177 116 62z"/><path d="M1862-746l116 176-116 63zM1746-576l114 60 5 124z"/><path d="M1978-570l-117 56 3 123z"/><path d="M1864-394l-52-146 50 24z"/><path d="M1862-749l81 197-84 36z"/><path d="M1819-529s38-11 42-78c0 0 10 78 36 75 0 0-32 26-35 82 0 0 1-82-43-79zM1852-652s-21-4-23-29c0 0-6 29-20 28 0 0 17 10 19 31 0 0 0-31 24-30z"/></g><g fill-rule="evenodd"><path d="M1867-716l-93 141 92 50z" fill="#fe25e0"/><path d="M1866-712l93 141-93 50z" fill="#ffd7fb"/><path d="M1774-576l91 48v101z" fill="#de01c0"/><path d="M1959-570l-94 44-1 100z" fill="#ae0197"/><path d="M1864-426l-38-122 40 20z" fill="#820070"/><path d="M1866-714l65 157-67 29z" fill="#ffadf3"/><path d="M1831-538s31-9 34-63c0 0 8 63 29 60 0 0-25 21-28 65 0 0 1-65-35-62zM1823-577s-16-4-18-24c0 0-4 24-15 23 0 0 13 8 14 25 0 0 0-25 19-24z" fill="#fffeff"/></g><g transform="translate(1670 -780) scale(.39378)"><circle r="263" cy="256" cx="506" fill="#fffeff"/><g transform="translate(8 -40)"><circle r="225" cy="296" cx="497" fill="#de00c1"/><circle r="200" cy="296" cx="497" fill="#ffacf4"/><circle r="158" cy="296" cx="497" fill="#ff5fea"/><ellipse cx="659" cy="285" rx="28" ry="30" fill="#ffd8fb"/><ellipse cx="486" cy="307" rx="96" ry="99" fill="#ae0197"/><ellipse cy="129" cx="570" rx="60" ry="46" transform="rotate(30)" fill="#ffacf4"/><ellipse transform="rotate(-23)" cy="382" cx="299" rx="96" ry="63" fill="#ffacf4"/><ellipse cy="-30" cx="597" rx="95" ry="43" transform="matrix(.92952 .36877 -.21327 .977 0 0)" fill="#ffd8fb"/><path d="M322 163s60-10 66-74c0 0 15 74 55 71 0 0-48 25-53 78 0 0 1-78-68-75z" fill="#fffeff" fill-rule="evenodd"/></g></g><rect ry="0" y="-948" height="1000" width="1000" fill="#0cc4ff"/><ellipse cy="-780" cx="754" rx="35" ry="33" fill="#fdffff"/><ellipse cy="-573" cx="890" rx="35" ry="33" fill="#fff"/><ellipse cy="-342" cx="880" rx="35" ry="33" fill="#fff"/><ellipse cy="-874" cx="482" rx="33" ry="32" fill="#fdffff"/><ellipse cy="-476" cx="232" rx="27" ry="27" fill="#026b8d"/><ellipse cy="-737" cx="486" rx="27" ry="27" fill="#026b8d"/><path d="M888-621a49 48 0 0 0-49 48 49 48 0 0 0 49 49 49 48 0 0 0 49-49 49 48 0 0 0-49-48zm0 21a27 27 0 0 1 27 27 27 27 0 0 1-27 27 27 27 0 0 1-26-19h26v-14h-27a27 27 0 0 1 27-21z" fill="#0091bf"/><ellipse cy="-573" cx="98" rx="33" ry="32" fill="#fdffff"/><path d="M97-621a49 48 0 0 0-49 48 49 48 0 0 0 49 49 49 48 0 0 0 49-49 49 48 0 0 0-49-48zm0 21a27 27 0 0 1 24 16H97v14h27a27 27 0 0 1-27 24 27 27 0 0 1-28-27 27 27 0 0 1 28-27zM483-922a49 48 0 0 0-49 49 49 48 0 0 0 49 48 49 48 0 0 0 49-48 49 48 0 0 0-49-49zm0 22a27 27 0 0 1 27 27 27 27 0 0 1-20 26v-25h-14v25a27 27 0 0 1-20-26 27 27 0 0 1 27-27z" fill="#0091bf"/><path d="M753-828a49 48 0 0 0-49 49 49 48 0 0 0 49 48 49 48 0 0 0 49-48 49 48 0 0 0-49-49zm0 22a27 27 0 0 1 27 27 27 27 0 0 1-27 27 27 27 0 0 1-10-2l18-21-11-9-18 22a27 27 0 0 1-6-17 27 27 0 0 1 27-27z" fill="#057fa5"/><ellipse cy="-780" cx="223" rx="33" ry="32" fill="#fdffff"/><path d="M224-828a49 48 0 0 0-49 49 49 48 0 0 0 49 48 49 48 0 0 0 50-48 49 48 0 0 0-50-49zm0 22a27 27 0 0 1 28 27 27 27 0 0 1-3 12l-16-19-11 9 17 21a27 27 0 0 1-15 4 27 27 0 0 1-27-27 27 27 0 0 1 27-27zM914-375a49 48 0 0 0-69 1 49 48 0 0 0 1 69 49 48 0 0 0 69-2 49 48 0 0 0-1-68zm-15 15a27 27 0 0 1 0 38 27 27 0 0 1-38 1 27 27 0 0 1-5-31l19 18 9-10-19-19a27 27 0 0 1 34 3z" fill="#0091bf"/><ellipse cy="-342" cx="99" rx="33" ry="32" fill="#fdffff"/><path d="M69-375a49 48 0 0 1 69 1 49 48 0 0 1-1 69 49 48 0 0 1-70-2 49 48 0 0 1 2-68zm15 15a27 27 0 0 0-1 38 27 27 0 0 0 39 1 27 27 0 0 0 5-31l-19 18-10-10 19-19a27 27 0 0 0-33 3z" fill="#0091bf"/><path d="M329-363l69 142 102 81 147-41 119-105 25-50-254-297-98 153z" fill="#0091bf" fill-rule="evenodd"/><path d="M326-712l-10 2c-12 7-16 24-8 38l150 285c-5 11-4 22 4 29 10 9 26 6 36-5l206-227c10-11 11-27 1-36s-26-6-36 5L493-427 353-695c-6-11-17-17-27-17z" fill="#057ea4"/><path d="M490-808a343 339 0 0 0-343 339 343 339 0 0 0 343 339 343 339 0 0 0 344-339 343 339 0 0 0-344-339zm0 33a309 305 0 0 1 309 306 309 305 0 0 1-309 305 309 305 0 0 1-308-305 309 305 0 0 1 308-306z" fill="#005f7d"/><ellipse cy="-479" cx="761" rx="27" ry="27" fill="#026c8e"/><path d="M549-490l49 21 39-46-32-37c-19 20-36 42-56 62z" fill="#005b78" fill-rule="evenodd"/><path d="M488-694l-11 1h-28c-11 0-19 9-19 19v10c0 6 3 11 7 15l-3 16h-2c-5 0-10 5-10 10v31c0 5 4 10 10 10h1l5-1a71 71 0 0 0 27 35l-4 35-53 17c-10 1-24 10-34 25l-64 93c-17-4-36 1-45 12-7 10-5 23 7 31-5 4-9 8-12 14-12 22-3 45 21 53l90 29v9c-1 9 7 17 16 17l68 1c14 3 29 0 41-8 12 9 27 13 42 11l64 1c10 0 18-8 18-17v-7-3l95-31c23-7 32-31 21-52h-1c-4-8-10-14-18-19l7-6 1-2c9-12 1-27-16-34-13-4-27-3-38 2l-63-93c-10-15-24-24-35-25l-63-20-4-32c12-6 22-17 28-32l2-4 5 1h1c6 0 10-4 10-10l1-30c0-6-5-11-10-11h-2c-4-23-14-42-29-53-8-5-16-8-24-8zm77 248l3 4 69 102-86 8c-21-21-1-52 14-114zm-151 3c14 60 34 99 16 121l-85-19 69-102z" fill="#fff"/><path d="M775-353a309 305 0 0 1-285 190 309 305 0 0 1-23-1l43 34a343 339 0 0 0 290-195z" fill="#003b4d"/></g></svg>