<svg xmlns="http://www.w3.org/2000/svg" viewBox="0 0 795 767" version="1"><g transform="translate(-104 -91)"><rect width="767" height="756" x="118" y="91" ry="171" fill="#72dfc0"/><g transform="translate(6)"><rect width="594" height="368" x="197" y="284" ry="33" fill="#e6e6e6" stroke="#000" stroke-width="15"/><circle cx="494" cy="284" r="5" fill="#fff"/><rect width="556" height="211" x="217" y="423" ry="21" fill="#fff"/><rect width="271" height="49" x="230" y="303" ry="20" fill="#5c5c5c"/><rect width="492" height="21" x="227" y="439" ry="9" fill="#aaa"/><rect width="160" height="21" x="227" y="488" ry="9" fill="#5c5c5c"/><rect width="186" height="21" x="227" y="538" ry="9" fill="#5c5c5c"/><rect width="494" height="21" x="227" y="588" ry="9" fill="#5c5c5c"/><rect ry="15" y="476" x="432" height="96" width="300" style="isolation:auto;mix-blend-mode:normal" color="#000" overflow="visible" fill="#2ab890"/><rect y="300" x="642" height="113" width="131" style="isolation:auto;mix-blend-mode:normal" ry="19" color="#000" overflow="visible" fill="#6edebe"/><rect ry="12" y="367" x="237" height="41" width="376" style="isolation:auto;mix-blend-mode:normal" color="#000" overflow="visible" fill="#72dfc0"/><text y="389" x="659" style="line-height:1.25;-inkscape-font-specification:Helvetica" font-weight="400" font-size="89" font-family="Helvetica" letter-spacing="0" word-spacing="0" fill="#f3f3f3" stroke-width="2"><tspan style="-inkscape-font-specification:'Noto Serif CJK JP Heavy'" y="389" x="659" font-weight="900" font-family="Noto Serif CJK JP">W</tspan></text></g><path d="M225 652v1l-1-1-110 179-2 6v4c0 5 4 10 9 10h762c5 0 9-5 9-10v-4l-2-5-110-179-1 1v-2z" fill="#fff" stroke="#000" stroke-width="15" stroke-miterlimit="1"/><path d="M241 683l-61 94h488v1l101-1h58l-55-94-1 1v-1H241z" fill="#5c5c5c"/><path d="M422 785h-1l-22 35h207l-24-35v1-1H422z" fill="#e6e6e6"/><path style="isolation:auto;mix-blend-mode:normal" color="#000" overflow="visible" fill="#fff" d="M382 738h242v20H382z"/><text style="line-height:1.25;-inkscape-font-specification:Helvetica" x="219" y="231" font-weight="400" font-size="64" font-family="Helvetica" letter-spacing="0" word-spacing="0" fill="#fff" stroke-width="2"><tspan x="219" y="231" style="-inkscape-font-specification:'Century Gothic Semi-Bold'" font-weight="600" font-family="Century Gothic">lorem ipsum dolor</tspan></text></g></svg>