<svg xmlns="http://www.w3.org/2000/svg" viewBox="0 0 795 767"><rect width="767.1" height="755.8" x="14" fill="#b99c4e" ry="82.2"/><rect width="593.8" height="368.3" x="99" y="193" fill="#e6e6e6" stroke="#000" stroke-width="15" ry="32.8"/><g fill="#fff"><circle cx="395.9" cy="192.8" r="5.3"/><rect width="556.5" height="211.1" x="119" y="332" ry="21.2"/></g><rect width="270.9" height="48.7" x="132" y="212" fill="#5c5c5c" ry="19.7"/><rect width="492.4" height="21.3" x="129" y="348" fill="#aaa" ry="8.6"/><g fill="#5c5c5c"><rect width="159.8" height="21.3" x="129" y="397" ry="8.6"/><rect width="185.7" height="21.3" x="129" y="447" ry="8.6"/><rect width="493.9" height="21.3" x="129" y="497" ry="8.6"/></g><rect width="299.9" height="95.9" x="334" y="385" fill="#b8ac2a" ry="14.7"/><rect width="131.3" height="112.5" x="544" y="209" fill="#7a581c" ry="19.4"/><rect width="376.3" height="41.1" x="139" y="276" fill="#6d6019" ry="12.3"/><text x="659" y="389" fill="#f3f3f3" font-family="Helvetica" font-size="88.8" letter-spacing="0" word-spacing="0"><tspan x="561" y="298" font-family="Noto Serif CJK JP" font-weight="900">W</tspan></text><path fill="#fff" stroke="#000" stroke-miterlimit="1" stroke-width="15" d="M121 561v1l-1-1L10 740l-2 6v4c0 5 4 10 9 10h762c5 0 9-5 9-10v-4l-2-5-110-179-1 1v-2z"/><path fill="#5c5c5c" d="M137 592l-61 94h488v1l101-1h58l-55-94-1 1v-1H137z"/><path fill="#e6e6e6" d="M318 694h-1l-22 35h207l-24-35v1-1H318z"/><g fill="#fff"><path d="M278 647h242v20H278z"/><path d="M118 92h9v48h-9zm33 13q5 0 9 2 4 3 6 7 3 4 3 9 0 5-3 9-2 4-6 6-4 3-9 3-8 0-13-5-5-6-5-13 0-8 6-14 5-4 12-4zm0 8q-4 0-7 3-3 2-3 7 0 4 3 7 3 3 7 3 4 0 6-3 3-3 3-7 0-5-3-7-2-3-6-3zm23-7h7v4l3-4 5-1 3 1-2 7-3-1q-2 0-3 3-2 2-2 9v16h-8zm57 19h-28l3 6q3 2 7 2 5 0 8-3l8 3q-3 4-7 6-4 2-9 2-8 0-13-5-5-5-5-13 0-8 5-13 5-5 13-5 8 0 13 5 5 5 5 14zm-9-6l-3-5-6-2q-4 0-6 2-2 1-3 5zm16-13h8v4l5-4 6-1 6 1q3 2 4 5l5-5 7-1 6 2q3 1 4 4l1 9v20h-8v-17q0-6-2-8-1-2-4-2l-4 1-3 3-1 7v16h-8v-17l-1-6-2-3-3-1-4 1-3 3-1 8v15h-8zm82-14l4 1 1 4-1 4-4 2-4-2-2-4 2-4 4-1zm-5 14h9v34h-9zm25 0v3l5-3 6-1q7 0 12 5 4 5 4 13 0 8-5 13-4 5-11 5l-6-1-5-4v16h-8v-46zm9 7q-4 0-6 3-3 2-3 7 0 4 3 7 2 3 6 3 4 0 7-3 3-3 3-7 0-5-3-7-3-3-7-3zm46-3l-5 6q-3-3-6-3h-2l-1 2 3 3 3 1 7 5 2 6q0 5-3 8-4 3-9 3-8 0-12-6l5-6 4 3 3 1 3-1 1-2q0-2-4-3l-3-2q-8-4-8-10 0-4 3-7 3-3 8-3l6 1 5 4zm8-4h8v16l1 7 2 3 4 1 3-1 3-3v-23h9v14q0 9-2 12-1 4-5 7-3 2-8 2-6 0-9-3-4-2-5-7l-1-11zm38 0h9v4q2-3 5-4l6-1 6 1 4 5 5-5 6-1q4 0 7 2l4 4 1 9v20h-9v-17l-1-8q-2-2-5-2l-4 1-2 3-1 7v16h-9v-23l-2-3-4-1-4 1-2 3-1 8v15h-9zm104-14h9v48h-9v-4q-2 3-5 4l-5 1q-7 0-12-5-5-5-5-13 0-8 5-13 5-5 11-5l6 1 5 3zm-9 21q-4 0-6 3-3 2-3 7 0 4 3 7 2 3 6 3 4 0 7-3 3-3 3-7 0-5-3-7-3-3-7-3zm43-8l9 2q4 3 6 7 3 4 3 9 0 5-3 9-2 4-6 6-4 3-9 3-8 0-13-5-5-6-5-13 0-8 6-14 5-4 12-4zm0 8q-4 0-7 3-3 2-3 7 0 4 3 7 3 3 7 3 4 0 6-3 3-3 3-7 0-5-3-7-2-3-6-3zm24-21h9v48h-9zm32 13q5 0 9 2 5 3 7 7 3 4 3 9 0 5-3 9-2 4-6 6-5 3-10 3-7 0-12-5-5-6-5-13 0-8 6-14 5-4 11-4zm1 8q-4 0-7 3-3 2-3 7 0 4 3 7 2 3 6 3 5 0 7-3 3-3 3-7 0-5-3-7-2-3-6-3zm23-7h7v4l3-4 4-1 4 1-3 7-2-1q-2 0-4 3l-1 9v16h-8z" font-family="Century Gothic" font-size="64.5" font-weight="600" letter-spacing="0" word-spacing="0"/></g></svg>