<svg xmlns="http://www.w3.org/2000/svg" width="793.701" height="1122.52" viewBox="0 0 210 297"><rect width="102.054" height="102.054" x="-561.673" y="26.369" ry="6.331" fill="#cfe7ee"/><path d="M-558.866 26.37a2.8 2.8 0 0 0-2.807 2.807V44.7h102.054V29.175a2.8 2.8 0 0 0-2.807-2.807h-96.44z" fill="#a9a9a9"/><rect ry="1.604" width="72.6" height="7.083" x="-554.087" y="31.994" fill="#444"/><path d="M-497.12 50.3h31.27v61.338h-31.27z" fill="#e2f1f5"/><path d="M-553.65 51.914h38.888v4h-38.888zm0 10.3h52.518v6.548h-52.518zm0 12.83h47.44V88.53h-47.44zm0 19.777h44.9v6.548h-44.9zm0 12.83h44.1v8.152h-44.1z" fill="#6c8cac"/><path d="M-498.2 115.257h28.464v6.548H-498.2z" fill="#90c8d8"/><circle r="2.564" cy="35.535" cx="-477.159" fill="#d06ba3"/><circle r="2.564" cy="35.535" cx="-465.022" fill="#6bd083"/><circle r="2.564" cy="35.535" cx="-471.09" fill="#f3e81f"/></svg>