<svg xmlns="http://www.w3.org/2000/svg" version="1" viewBox="0 0 79 79">
  <g color="#000" transform="matrix(.0741 0 0 .0741 -115 75)">
    <circle cx="2091" cy="-473" r="536" fill="#b8f3ff" overflow="visible" style="isolation:auto;mix-blend-mode:normal"/>
    <circle cx="2091" cy="-473" r="454" fill="#037b92" overflow="visible" style="isolation:auto;mix-blend-mode:normal"/>
    <path fill="#fff" d="M2091-797a328 354 0 0 0-327 354 328 354 0 0 0 4 60h138v234h33v-162h58v162h66v-162h58v162h62v-162h58v162h35v-234h138a328 354 0 0 0 5-60 328 354 0 0 0-328-354z" overflow="visible" style="isolation:auto;mix-blend-mode:normal"/>
    <path fill="#037b92" d="M2136-377h-90l23-69 23-69 22 69zM2165-528a68 68 0 0 0 41 62 68 68 0 0 0 74-14 68 68 0 0 0 16-73M2018-528a68 68 0 0 1-41 62 68 68 0 0 1-74-14 68 68 0 0 1-16-73" overflow="visible" style="isolation:auto;mix-blend-mode:normal"/>
    <path fill="#22dbfe" d="M2091-950a477 477 0 0 0-476 477A477 477 0 0 0 2091 4a477 477 0 0 0 477-477 477 477 0 0 0-477-477zm0 48a425 425 0 0 1 426 425 425 425 0 0 1-426 426 425 425 0 0 1-425-426 425 425 0 0 1 425-425z" overflow="visible" style="isolation:auto;mix-blend-mode:normal"/>
  </g>
</svg>
