<svg xmlns="http://www.w3.org/2000/svg" viewBox="0 0 79 79" version="1"><g transform="matrix(.0741 0 0 .0741 -115 75)" color="#000"><circle r="536" cy="-473" cx="2091" style="isolation:auto;mix-blend-mode:normal" overflow="visible" fill="#fff"/><circle r="454" cy="-473" cx="2091" style="isolation:auto;mix-blend-mode:normal" overflow="visible" fill="#037b92"/><path style="isolation:auto;mix-blend-mode:normal" d="M2091-797a328 354 0 0 0-327 354 328 354 0 0 0 4 60h138v234h33v-162h58v162h66v-162h58v162h62v-162h58v162h35v-234h138a328 354 0 0 0 5-60 328 354 0 0 0-328-354z" overflow="visible" fill="#fff"/><path d="M2136-377h-90l23-69 23-69 22 69zM2165-528a68 68 0 0 0 41 62 68 68 0 0 0 74-14 68 68 0 0 0 16-73M2018-528a68 68 0 0 1-41 62 68 68 0 0 1-74-14 68 68 0 0 1-16-73" style="isolation:auto;mix-blend-mode:normal" overflow="visible" fill="#037b92"/><path style="isolation:auto;mix-blend-mode:normal" d="M2091-950a477 477 0 0 0-476 477A477 477 0 0 0 2091 4a477 477 0 0 0 477-477 477 477 0 0 0-477-477zm0 48a425 425 0 0 1 426 425 425 425 0 0 1-426 426 425 425 0 0 1-425-426 425 425 0 0 1 425-425z" overflow="visible" fill="#22dbfe"/></g></svg>