<svg xmlns="http://www.w3.org/2000/svg" width="906.7" height="571.6" viewBox="0 0 239.9 151.2"><style>.B{opacity:.987}.C{fill-opacity:.988}</style><g transform="translate(-310.2 88) scale(.14119)"><path d="M3488.6-226l-.1 50.5 268.5.7v-50.5z" fill="#fe6c22" class="B C"/><path d="M3511.2-65l-.1 50.6 299.5.7v-50.6z" fill="#a0fe22" class="B C"/><path d="M3529.8 15.6l-.2 57.9 244 .5.1-57.9z" fill="#22dbfe" class="B C"/><path d="M3474.9-145.5l-.2 52.7 421.4 1 .1-52.7z" fill="#7a9fa6" class="B C"/><path d="M3521-306.4v55.1l135.4.3v-55z" fill="#fec982" class="B C"/><path d="M3431.6 95.8l-.1 50.5 239.5.6V96.4z" fill="#2272fe" class="B C"/><path d="M3467-387l-.1 53.2 271.6.7v-53.2z" fill="#6a1600" class="B C"/><path d="M2603.7-117.6l-.7 57-367.5-4.5.7-57z" fill="#fe6c22" class="B"/><path d="M2578.7 43l-.6 49-176.3-2.2.6-49z" fill="#a0fe22" class="B"/><path d="M2559 123.3l-.7 50-220.5-2.6.6-50.1z" fill="#22dbfe" class="B"/><path d="M2616.2-37l-.6 52.2-250-3 .5-52.3z" fill="#7a9fa6" class="B"/><path d="M2572.3-198.5l-.6 52.5-374.6-4.6.6-52.5z" fill="#fec982" class="B"/><path d="M2656 205l-.7 50.4-239.4-3 .6-50.4z" fill="#2272fe" class="B"/><path d="M2627.6-278.3l-.6 50.5-196.6-2.4.6-50.5z" fill="#6a1600" class="B"/><circle cx="3024.9" cy="-87.1" r="535.5" fill="#e7f9f8"/><circle cx="3024.9" cy="-87.1" r="454.5" fill="#037b92"/><path d="M3025-411.2c-87 0-170.4 37.3-231.9 103.8s-96 156.6-96 250.7a382.5 382.5 0 004.8 60.2h138V237h32.6V75.3h58.3V237h65.9V75.3h58.3V237h61.7V75.3h58.3V237h35V3.5h137.7a382.4 382.4 0 005-60.2c0-94-34.5-184.2-96-250.7S3112-411.2 3025-411.2z" fill="#fff"/><path d="M3069 9l-89.3.1 45.8-137.6 21.8 68.7zm29.5-151a67.7 67.7 0 0041.3 62.4 67.8 67.8 0 0073.5-13.7 67.8 67.8 0 0016.2-73M2951.4-142a67.7 67.7 0 01-41.3 62.4 67.8 67.8 0 01-73.6-13.7 67.8 67.8 0 01-16.1-73" fill="#024451"/><path d="M3025-564a476.9 476.9 0 100 953.8 476.9 476.9 0 000-953.8zm0 48.4a425.3 425.3 0 010 850.5 425.3 425.3 0 01-425.3-425.2 425.3 425.3 0 01425.2-425.3z" fill="#9aefff" class="B"/></g></svg>