<svg xmlns="http://www.w3.org/2000/svg" viewBox="0 0 213 151" version="1"><path style="isolation:auto;mix-blend-mode:normal" overflow="visible" d="M167 61v7h38v-7zm3 22v8h43v-8zm3 12v7h36v-7zm-8-23v7h46v-7zm7-23v8h29v-8zm-13 57v7h34v-7zm5-68v7h28v-7zM45 61v7H8v-7zm-3 22v8H0v-8zm-2 12v7H4v-7zm7-23v7H1v-7zm-6-23v8H12v-8zm13 57v7H20v-7zm-5-68v7H21v-7z" color="#000" fill="#22dbfe"/><g transform="translate(52 103) scale(.14119)" color="#000"><circle style="isolation:auto;mix-blend-mode:normal" cx="390" cy="-192" r="536" overflow="visible" fill="#fff"/><circle style="isolation:auto;mix-blend-mode:normal" cx="390" cy="-192" r="454" overflow="visible" fill="#037b92"/><path d="M390-516A328 354 0 0062-162a328 354 0 005 60h138v234h32V-30h59v162h65V-30h59v162h61V-30h59v162h35v-234h137a328 354 0 006-60 328 354 0 00-328-354z" style="isolation:auto;mix-blend-mode:normal" overflow="visible" fill="#fff"/><path style="isolation:auto;mix-blend-mode:normal" d="M434-96h-90l23-69 23-69 22 69zm29-151a68 68 0 0042 62 68 68 0 0073-14 68 68 0 0016-73m-278 25a68 68 0 01-41 62 68 68 0 01-74-14 68 68 0 01-16-73" overflow="visible" fill="#037b92"/><path d="M390-669A477 477 0 00-87-192a477 477 0 00477 476 477 477 0 00477-476 477 477 0 00-477-477zm0 48a425 425 0 01425 425 425 425 0 01-425 426A425 425 0 01-36-196a425 425 0 01426-425z" style="isolation:auto;mix-blend-mode:normal" overflow="visible" fill="#22dbfe"/></g></svg>