<svg xmlns="http://www.w3.org/2000/svg" viewBox="0 0 213 151" version="1"><g color="#000" fill="#22dbfe"><path style="isolation:auto;mix-blend-mode:normal" overflow="visible" d="M167 61v7h38v-7zM170 83v8h43v-8zM173 95v7h36v-7zM165 72v7h46v-7zM172 49v8h29v-8zM159 106v7h34v-7zM164 38v7h28v-7z"/></g><g color="#000" fill="#22dbfe"><path style="isolation:auto;mix-blend-mode:normal" overflow="visible" d="M45 61v7H8v-7zM42 83v8H0v-8zM40 95v7H4v-7zM47 72v7H1v-7zM41 49v8H12v-8zM54 106v7H20v-7zM49 38v7H21v-7z"/></g><g transform="matrix(.14119 0 0 .14119 52 103)" color="#000"><circle style="isolation:auto;mix-blend-mode:normal" cx="390" cy="-192" r="536" overflow="visible" fill="#fff"/><circle style="isolation:auto;mix-blend-mode:normal" cx="390" cy="-192" r="454" overflow="visible" fill="#037b92"/><path d="M390-516A328 354 0 0 0 62-162a328 354 0 0 0 5 60h138v234h32V-30h59v162h65V-30h59v162h61V-30h59v162h35v-234h137a328 354 0 0 0 6-60 328 354 0 0 0-328-354z" style="isolation:auto;mix-blend-mode:normal" overflow="visible" fill="#fff"/><path style="isolation:auto;mix-blend-mode:normal" d="M434-96h-90l23-69 23-69 22 69zM463-247a68 68 0 0 0 42 62 68 68 0 0 0 73-14 68 68 0 0 0 16-73M316-247a68 68 0 0 1-41 62 68 68 0 0 1-74-14 68 68 0 0 1-16-73" overflow="visible" fill="#037b92"/><path d="M390-669A477 477 0 0 0-87-192a477 477 0 0 0 477 476 477 477 0 0 0 477-476 477 477 0 0 0-477-477zm0 48a425 425 0 0 1 425 425 425 425 0 0 1-425 426A425 425 0 0 1-36-196a425 425 0 0 1 426-425z" style="isolation:auto;mix-blend-mode:normal" overflow="visible" fill="#22dbfe"/></g></svg>