<svg xmlns="http://www.w3.org/2000/svg" width="300" height="300" viewBox="0 0 79.4 79.4"><g transform="matrix(.0741 0 0 .0741 -115.3 74.8)" color="#000"><circle r="535.5" cy="-473.4" cx="2091.4" style="isolation:auto;mix-blend-mode:normal;solid-color:#000;solid-opacity:1" overflow="visible" fill="#b8f3ff"/><circle r="454.5" cy="-473.4" cx="2091.4" style="isolation:auto;mix-blend-mode:normal;solid-color:#000;solid-opacity:1" overflow="visible" fill="#037b92"/><path style="isolation:auto;mix-blend-mode:normal;solid-color:#000;solid-opacity:1" d="M2091.4-797.5A327.8 354.5 0 001763.6-443a327.8 354.5 0 004.8 60.2h138v233.6h32.6V-311h58.3v161.7h65.9V-311h58.3v161.7h61.7V-311h58.3v161.7h35v-233.6h137.7a327.8 354.5 0 005-60.2 327.8 354.5 0 00-327.8-354.5z" overflow="visible" fill="#fff"/><path d="M2135.6-377.3h-44.7l-44.8.2 23-68.9 22.9-68.8 21.8 68.8zM2165-528.3a67.7 67.7 0 0041.3 62.4 67.7 67.7 0 0073.5-13.6 67.7 67.7 0 0016.2-73M2017.9-528.3a67.7 67.7 0 01-41.3 62.4 67.7 67.7 0 01-73.6-13.6 67.7 67.7 0 01-16.1-73" style="isolation:auto;mix-blend-mode:normal;solid-color:#000;solid-opacity:1" overflow="visible" fill="#037b92"/><path style="isolation:auto;mix-blend-mode:normal;solid-color:#000;solid-opacity:1" d="M2091.4-950.2a476.9 476.9 0 00-476.8 476.8 476.9 476.9 0 00476.8 477 476.9 476.9 0 00476.9-477 476.9 476.9 0 00-476.9-476.8zm0 48.3a425.3 425.3 0 01425.3 425.3 425.3 425.3 0 01-425.3 425.3 425.3 425.3 0 01-425.3-425.3A425.3 425.3 0 012091.4-902z" overflow="visible" fill="#22dbfe"/></g></svg>