<svg xmlns="http://www.w3.org/2000/svg" width="906.694" height="571.552" viewBox="0 0 239.896 151.223"><style><![CDATA[.B{opacity:.987}.C{fill-opacity:.988}]]></style><g transform="matrix(.141187 0 0 .141187 -310.19944 87.90795)"><path d="M3488.6-225.962l-.118 50.507 268.483.626.118-50.507z" fill="#fe6c22" class="B C"/><path d="M3511.2-64.956l-.118 50.507 299.49.7.118-50.507z" fill="#a0fe22" class="B C"/><path d="M3529.765 15.563l-.135 57.916 243.954.57.135-57.916z" fill="#22dbfe" class="B C"/><path d="M3474.873-145.518l-.123 52.76 421.35.983.123-52.76z" fill="#7a9fa6" class="B C"/><path d="M3521.094-306.363l-.13 55.093 135.398.316.13-55.093z" fill="#fec982" class="B C"/><path d="M3431.584 95.81l-.118 50.507 239.5.56.118-50.507z" fill="#2272fe" class="B C"/><path d="M3466.996-386.965l-.124 53.2 271.592.634.124-53.2z" fill="#6a1600" class="B C"/><path d="M2603.653-117.643l-.7 57.074-367.437-4.515.7-57.074z" fill="#fe6c22" class="B"/><path d="M2578.702 43.015l-.602 48.992-176.338-2.167.602-48.992z" fill="#a0fe22" class="B"/><path d="M2558.963 123.254l-.616 50.11-220.58-2.7.616-50.11z" fill="#22dbfe" class="B"/><path d="M2616.203-37.007l-.642 52.227-250.056-3.073.642-52.227z" fill="#7a9fa6" class="B"/><path d="M2572.34-198.5l-.646 52.55-374.607-4.603.646-52.55z" fill="#fec982" class="B"/><path d="M2655.96 204.928l-.62 50.504-239.472-2.943.62-50.504z" fill="#2272fe" class="B"/><path d="M2627.6-278.314L2627-227.8l-196.618-2.416.62-50.504z" fill="#6a1600" class="B"/><circle cx="3024.946" cy="-87.09" r="535.542" fill="#e7f9f8"/><circle cx="3024.946" cy="-87.09" r="454.46" fill="#037b92"/><path d="M3024.946-411.2c-86.946 0-170.332 37.344-231.812 103.818s-96.02 156.63-96.02 250.64a382.54 382.54 0 0 0 4.767 60.209h138V237.02h32.617V75.348h58.285v161.67h65.91V75.348h58.285v161.67h61.72V75.348h58.285v161.67h35.02V3.467h137.66a382.45 382.45 0 0 0 5.108-60.209c0-94.008-34.54-184.165-96.02-250.64S3111.893-411.2 3024.946-411.2z" fill="#fff"/><path d="M3069.077 8.96l-89.4.16 45.804-137.625 21.803 68.733zm29.44-150.953c0 27.2 16.257 51.746 41.288 62.364a67.75 67.75 0 0 0 73.536-13.654c19.55-18.896 25.9-47.65 16.148-73.03m-278.116 24.32c0 27.2-16.257 51.746-41.288 62.364a67.75 67.75 0 0 1-73.536-13.654c-19.55-18.896-25.9-47.65-16.148-73.03" fill="#024451"/><path d="M3024.946-563.956c-263.366 0-476.866 213.5-476.866 476.866s213.5 476.866 476.866 476.866 476.866-213.5 476.866-476.866-213.5-476.866-476.866-476.866zm0 48.33c234.874 0 425.277 190.403 425.278 425.278S3259.82 334.93 3024.946 334.93a425.28 425.28 0 0 1-425.28-425.278 425.28 425.28 0 0 1 425.28-425.278z" fill="#9aefff" class="B"/></g></svg>