<svg xmlns="http://www.w3.org/2000/svg" viewBox="0 0 281 272"><g stroke="#969696" stroke-linejoin="round"><rect width="179" height="265.3" x="3" y="4" fill="#29323f" stroke-width="6.5" rx="31.4"/><rect width="143" height="265.3" x="135" y="4" fill="#fff" stroke-width="5.8" rx="22.5" ry="32.2"/></g><rect width="52.7" height="7.1" x="31" y="22" fill="#74dddc" rx="3.5"/><rect width="45.1" height="7.1" x="31" y="50" fill="#a0a0a0" rx="3.5"/><rect width="41.7" height="7.1" x="31" y="77" fill="#d46969" rx="3.5"/><rect width="72.3" height="7.1" x="31" y="105" fill="#fff" rx="3.5"/><rect width="39.2" height="7.1" x="31" y="133" fill="#74dddc" rx="3.5"/><g fill="#fff"><rect width="94.5" height="7.1" x="29" y="161" rx="3.5"/><rect width="46.3" height="7.1" x="31" y="216" rx="3.5"/></g><rect width="58.5" height="7.1" x="31" y="244" fill="#a0a0a0" rx="3.5"/><rect width="84.2" height="7.1" x="29" y="188" fill="#d46969" rx="3.5"/><g stroke="#d9d9d9" stroke-linejoin="round"><rect width="69" height="69" x="-357" y="4" fill="#29323f" stroke-width="5" rx="3.5" transform="matrix(.951057 -.309017 .309017 .951057 504 -3)"/><rect width="53" height="53" x="-293" y="-227" fill="#f9abab" stroke-width="3.8" rx="11.9" ry="14" transform="matrix(.325568 -.945519 .945519 .325568 504 -3)"/><circle cx="-300.9" cy="-9.3" r="26.7" fill="#74dddc" stroke-width="5" transform="matrix(.951057 -.309017 .309017 .951057 504 -3)"/></g></svg>