<svg xmlns="http://www.w3.org/2000/svg" viewBox="0 0 87.1 94">
  <defs/>
  <g transform="translate(-52.1 -41.9)">
    <rect width="52.1" height="58.2" x="54" y="43.8" fill="#8dbfae" stroke="#e7f1ee" stroke-linejoin="round" stroke-width="3.8" rx="7.8" ry="7.8"/>
    <g fill="#fff" stroke-width=".6" style="line-height:1.25;-inkscape-font-specification:'Ubuntu Condensed, Bold'" aria-label="bèi" font-family="Roboto" font-size="22.7" font-weight="700" letter-spacing="0" word-spacing="0">
      <path style="-inkscape-font-specification:'Roboto Bold'" d="M75.4 70.7q0 2.9-1.3 4.5-1.2 1.6-3.4 1.6-2 0-3.1-1.5l-.1 1.3h-3v-17h3.3v6q1-1.2 2.9-1.2 2.2 0 3.4 1.6 1.3 1.6 1.3 4.5zm-3.2-.3q0-1.8-.6-2.6t-1.7-.8q-1.6 0-2.1 1.2V73q.6 1.3 2.1 1.3t2-1.5q.3-.8.3-2.3zM82.8 76.8q-2.6 0-4.3-1.6-1.6-1.7-1.6-4.3v-.4q0-1.8.7-3.2.7-1.4 2-2.2 1.2-.7 2.9-.7 2.4 0 3.8 1.5 1.5 1.6 1.5 4.4v1.3H80q.2 1.2 1 1.9t2 .7q1.8 0 2.8-1.3l1.6 1.7q-.7 1-2 1.6-1.2.6-2.7.6zm-.3-9.9q-1 0-1.6.7-.6.6-.7 1.8h4.4v-.2q0-1-.6-1.7-.5-.6-1.5-.6zm1.2-4h-2.6l-3-3.3h3.4zM93 76.6h-3.2v-12H93zm-3.4-15.1q0-.7.4-1.2.5-.5 1.4-.5.8 0 1.3.5t.5 1.2q0 .7-.5 1.2-.5.4-1.3.4t-1.3-.4q-.5-.5-.5-1.2z"/>
    </g>
    <rect width="52" height="61.1" x="85.3" y="72.9" fill="#8dbfae" stroke="#e7f1ee" stroke-linejoin="round" stroke-width="3.9" rx="7.8" ry="7.8"/>
    <path fill="#fff" stroke-width=".9" d="M106.5 100.8h4.2V87.1h-4.2v2.6h-8.1V93h8.1v2.2c-3.4.5-6.6 1-9 1.2l.6 3.5 8.4-1.4zm-.3 10.6v-2h14.4v2zm14.4-6.7v1.8h-14.4v-1.8zm4.4-3h-23.1v18.5h4.3v-6h14.4v1.7c0 .5-.2.7-.8.7l-4.5-.1c.5 1 1.1 2.6 1.3 3.7 2.9 0 5 0 6.4-.6 1.5-.6 2-1.6 2-3.7zm-4.7-4.7c-1.3 0-1.6-.2-1.6-1.3V94c3.2-.6 6.7-1.6 9.6-2.6l-2.7-3c-1.8.8-4.3 1.7-6.9 2.4V87h-4.2v8.6c0 3.7 1 4.9 5.2 4.9h5c3.1 0 4.3-1.1 4.7-4.9-1.2-.2-2.9-.8-3.7-1.4-.1 2.3-.4 2.7-1.5 2.7z" aria-label="背" font-family="Ubuntu Condensed" font-size="35.5" font-weight="700" letter-spacing="0" word-spacing="0"/>
    <rect width="21.8" height="3.9" x="61.7" y="85.1" fill="#fff" rx="0" ry="0"/>
  </g>
</svg>
