<svg xmlns="http://www.w3.org/2000/svg" viewBox="0 0 180 180" fill="#a00"><g transform="matrix(.19629 .21051 -.2105 .1963 106.7 -70.5)"><circle cx="-424" cy="369" r="313" fill="#ff9c9c" transform="rotate(270)"/><path fill="#e31212" d="M369 111a313 313 0 01271 157 313 313 0 01-272 468"/><path fill="#760a0a" d="M682 424a313 313 0 01-157 270 313 313 0 01-313 0A313 313 0 0157 423"/><path fill="#e41212" d="M369 736A313 313 0 0157 423l312 1z"/><circle cx="369" cy="424" r="286" fill="#fff"/></g><g transform="matrix(.28781 0 0 .28784 -33 228)"><path d="M409-684l-18-55-87 24-48 63-21 68-32 81-3 130 22 43 13 10 24 35 38 27 7 18 46 23 15-25h20l44-73v-370zm40 0l18-55 87 24 48 63 21 68 32 81 3 130-22 43-13 10-24 35-39 27-6 18-46 23-15-25h-20l-44-73v-370z"/><rect width="33" height="371" x="412" y="-686" ry="12"/></g><path d="M49.9 66.3l7.8 32.6h.2l8-32.6H77v44.4h-8.6V97.8l.8-17.2H69l-8.4 30.1H55l-8.3-30-.2.1.8 17v13h-8.6V66.2zm42.3 37.5h16v7H83.5V66.2h8.7zm48.1-37.5v30.2q0 7.1-4.1 11-4.1 3.9-10.8 3.9-6.7 0-10.8-4-4.1-3.8-4.1-10.9V66.3h8.6v30.2q0 4.1 1.6 6 1.7 2 4.7 2 3.1 0 4.7-1.9 1.7-1.8 1.7-6V66.2z" fill="#fffdfd"/></svg>