<svg xmlns="http://www.w3.org/2000/svg" width="572.793" height="571.805"><rect transform="rotate(319)" rx="20.8" y="194.642" x="-180.496" height="417.4" width="417.4" fill="#f3efef"/><g transform="rotate(85)" fill="#c77ca5"><circle r="40.9" cy="-112.92" cx="320.541"/><circle r="29.9" cy="-152.22" cx="234.941"/><circle r="19.5" cy="-186.52" cx="451.341"/></g><path d="M189.854 98.823l-1.204-1.885zm5.184-10.978l2.667 9.147 110.745 445.9L566.108 320.71c8.22-7.902 8.85-21.04 1.94-29.364L319.258 9.81c-8.007-9.214-21.145-9.844-29.364-1.94zM299.382 556.4c-198.945 14.147-99.472 7.074 0 0z" fill="#dceaeb"/><g transform="rotate(319)" fill="#5fb2bb"><circle r="29.9" cy="545.142" cx="26.604"/><circle r="48.9" cy="379.642" cx="148.204"/><circle r="29.9" cy="449.742" cx="52.704"/></g><circle transform="rotate(85)" r="19.5" cy="-240.12" cx="125.741" fill="#5fb2bb"/></svg>