<svg xmlns="http://www.w3.org/2000/svg" width="572.8" height="571.8"><rect transform="rotate(319)" rx="20.8" y="194.6" x="-180.5" height="417.4" width="417.4" fill="#f3efef"/><g transform="rotate(85)" fill="#c77ca5"><circle r="40.9" cy="-112.9" cx="320.5"/><circle r="29.9" cy="-152.2" cx="234.9"/><circle r="19.5" cy="-186.5" cx="451.3"/></g><path d="M189.9 98.8l-1.2-1.9zm5.1-11l2.7 9.2 110.8 445.9L566 320.7a22 22 0 002-29.4L319.2 9.8a20 20 0 00-29.4-2zm104.4 468.6c-199 14.1-99.5 7 0 0z" fill="#dceaeb"/><g transform="rotate(319)" fill="#5fb2bb"><circle r="29.9" cy="545.1" cx="26.6"/><circle r="48.9" cy="379.6" cx="148.2"/><circle r="29.9" cy="449.7" cx="52.7"/></g><circle transform="rotate(85)" r="19.5" cy="-240.1" cx="125.7" fill="#5fb2bb"/></svg>