<svg xmlns="http://www.w3.org/2000/svg" width="831.999" height="604.244" viewBox="0 0 780 566.479"><rect width="593.753" height="368.35" x="91.382" y="-.001" rx="32.802" fill="#d6d6d6"/><rect width="556.474" height="211.145" x="111.066" y="139.12" rx="21.185" fill="#b99f72"/><g fill="#7a581c"><rect width="270.935" height="48.707" x="124.581" y="18.418" rx="19.681"/><rect y="192.355" x="326.235" height="95.893" width="299.855" rx="14.679"/><rect y="15.55" x="536.466" height="112.5" width="131.25" rx="19.414"/></g><path d="M643.546 47.876l-5.2.65-12.785 54.825h-11.745L602.243 61.7h-.26l-11.572 41.65h-11.745l-12.872-54.825-5.157-.65v-7.628h23.23v7.628l-5.764.997 7.238 34.585.26.043 11.832-43.253h9.318L618.67 83.5l.26-.043 7.194-34.585-5.764-.997v-7.628h23.187z" fill="#f3f3f3"/><path d="M112.936 368.015v.875l-.346-.572L2.625 546.494C1.003 548.207 0 550.582 0 553.215v3.788c0 5.25 3.98 9.475 8.928 9.475H771.07c4.946 0 8.93-4.227 8.93-9.475v-3.788c0-1.964-.56-3.786-1.516-5.295h.17L668.086 368.763l-.957 1.583v-2.332z" fill="#d6d6d6"/><path d="M129.462 398.78v.458l-.33-.3-61.098 93.828 61.428.245v.24h427.154l-.257.233 103.225-.24L715.28 493l-54.78-93.828-.916.83v-1.22H129.462z" fill="#5c5c5c"/><path d="M309.937 500.997v.17l-.1-.112-22.047 34.975 22.147.09v.1H439.36l-.078.087 55.6-.18-24.046-34.975-.277.31V501H309.937z" fill="#b7b7b7"/><rect y="454.324" x="270.118" height="20.203" width="242.437" rx="10.102" fill="#fff"/></svg>