<svg xmlns="http://www.w3.org/2000/svg" width="832" height="604.2" viewBox="0 0 780 566.5"><rect width="593.8" height="368.4" x="91.4" rx="32.8" fill="#d6d6d6"/><rect width="556.5" height="211.1" x="111.1" y="139.1" rx="21.2" fill="#b99f72"/><g fill="#7a581c"><rect width="270.9" height="48.7" x="124.6" y="18.4" rx="19.7"/><rect y="192.4" x="326.2" height="95.9" width="299.9" rx="14.7"/><rect y="15.6" x="536.5" height="112.5" width="131.3" rx="19.4"/></g><path d="M643.5 47.9l-5.2.6-12.7 54.9h-11.8l-11.6-41.7h-.2l-11.6 41.6h-11.7l-13-54.8-5-.6v-7.7h23.2V48l-5.8 1 7.2 34.6h.3l11.8-43.3h9.4l11.9 43.3h.2l7.2-34.6-5.7-1v-7.7h23.1z" fill="#f3f3f3"/><path d="M113 368v.9l-.4-.6-110 178.2a9.7 9.7 0 00-2.6 6.7v3.8c0 5.3 4 9.5 9 9.5h762c5 0 9-4.2 9-9.5v-3.8c0-2-.6-3.8-1.5-5.3h.2L668 368.8l-1 1.5V368z" fill="#d6d6d6"/><path d="M129.5 398.8v.4l-.4-.3-61 93.9 61.4.2v.3h427.1l-.2.2 103.2-.3 55.7-.2-54.8-93.8-1 .8v-1.2h-530z" fill="#5c5c5c"/><path d="M310 501v.2l-.2-.1-22 35h22.1v.1h129.5l-.1.1 55.6-.2-24-35-.3.4v-.5H309.9z" fill="#b7b7b7"/><rect y="454.3" x="270.1" height="20.2" width="242.4" rx="10.1" fill="#fff"/></svg>