<svg xmlns="http://www.w3.org/2000/svg" width="571.6" height="571.6" viewBox="0 0 151.2 151.2"><circle cx="75.6" cy="75.6" r="75.6" fill="#bff4ff"/><circle cx="75.6" cy="75.6" r="64.2" fill="#037b92"/><path d="M75.6 29.9c-12.3 0-24 5.2-32.7 14.6S29.3 66.6 29.3 80a54 54 0 00.7 8.5h19.5v33H54V98.5h8.2v22.9h9.3V98.5H80v22.9h8.7V98.5h8.2v22.9h5v-33h19.4a52.2 52.2 0 00-12.8-43.9A44.6 44.6 0 0075.5 30z" fill="#fff"/><path d="M81.8 89.2H69.2l6.5-19.4 3 9.7zM86 67.9a9.6 9.6 0 1018.5-3.5M65.2 68a9.6 9.6 0 11-18.5-3.5" fill="#037b92"/><path d="M75.6 8.3a67.3 67.3 0 100 134.6 67.3 67.3 0 000-134.6zm0 6.8a60 60 0 110 120.1 60 60 0 010-120z" fill="#22dbfe"/></svg>