<svg xmlns="http://www.w3.org/2000/svg" width="571.552" height="571.552" viewBox="0 0 151.223 151.223"><circle cx="75.612" cy="75.612" r="75.612" fill="#bff4ff"/><circle cx="75.612" cy="75.612" r="64.164" fill="#037b92"/><path d="M75.612 29.852c-12.276 0-24.05 5.273-32.73 14.658S29.327 66.624 29.327 79.897A54.01 54.01 0 0 0 30 88.397h19.484v32.974h4.605V98.546h8.23v22.826h9.306V98.546h8.23v22.826h8.714V98.546h8.23v22.826h4.945V88.397h19.436c.464-2.806.705-5.65.72-8.5 0-13.273-4.876-26.002-13.557-35.387s-20.453-14.658-32.73-14.658z" fill="#fff"/><path d="M81.843 89.173l-12.623.022 6.467-19.43 3.078 9.704zM86 67.86c0 3.84 2.295 7.306 5.83 8.805s7.622.74 10.382-1.928 3.658-6.728 2.28-10.3M65.225 67.86c0 3.84-2.295 7.306-5.83 8.805s-7.622.74-10.382-1.928-3.658-6.728-2.28-10.3" fill="#037b92"/><path d="M75.612 8.285c-37.184 0-67.327 30.143-67.327 67.327s30.143 67.327 67.327 67.327 67.327-30.143 67.327-67.327S112.796 8.285 75.612 8.285zm0 6.824c33.16 0 60.044 26.882 60.044 60.044s-26.882 60.044-60.044 60.044c-15.925 0-31.197-6.326-42.457-17.586S15.568 91.077 15.568 75.152s6.326-31.197 17.587-42.457 26.533-17.586 42.457-17.586z" opacity=".987" fill="#22dbfe"/></svg>